G04 #@! TF.FileFunction,Soldermask,Top*
%FSLAX46Y46*%
G04 Gerber Fmt 4.6, Leading zero omitted, Abs format (unit mm)*
G04 Created by KiCad (PCBNEW 0.201508080901+6071~28~ubuntu14.04.1-product) date lun 10 ago 2015 21:40:22 CEST*
%MOMM*%
G01*
G04 APERTURE LIST*
%ADD10C,0.200000*%
%ADD11O,1.901140X2.599640*%
%ADD12C,2.150060*%
%ADD13R,1.924000X2.599640*%
%ADD14O,1.924000X2.599640*%
%ADD15R,2.599640X1.924000*%
%ADD16O,2.599640X1.924000*%
%ADD17R,1.700000X2.200000*%
%ADD18O,1.700000X2.200000*%
%ADD19O,1.924000X2.597100*%
G04 APERTURE END LIST*
D10*
D11*
X106680000Y-77470000D03*
X109220000Y-77470000D03*
X111760000Y-77470000D03*
X114300000Y-77470000D03*
X116840000Y-77470000D03*
X119380000Y-77470000D03*
X121920000Y-77470000D03*
X124460000Y-77470000D03*
X124460000Y-69850000D03*
X121920000Y-69850000D03*
X119380000Y-69850000D03*
X116840000Y-69850000D03*
X114300000Y-69850000D03*
X111760000Y-69850000D03*
X109220000Y-69850000D03*
X106680000Y-69850000D03*
D12*
X130810000Y-75565000D03*
X133350000Y-73660000D03*
X130810000Y-71755000D03*
X101600000Y-72390000D03*
X99060000Y-74295000D03*
X101600000Y-76200000D03*
D13*
X146050000Y-66040000D03*
D14*
X148590000Y-66040000D03*
D15*
X93980000Y-71120000D03*
D16*
X93980000Y-68580000D03*
D17*
X121825000Y-85725000D03*
D18*
X123825000Y-85725000D03*
X125825000Y-85725000D03*
D17*
X118840000Y-85725000D03*
D18*
X116840000Y-85725000D03*
X114840000Y-85725000D03*
D14*
X96520000Y-81280000D03*
X99060000Y-81280000D03*
X101600000Y-81280000D03*
X104140000Y-81280000D03*
X106680000Y-81280000D03*
X109220000Y-81280000D03*
X111760000Y-81280000D03*
X114300000Y-81280000D03*
X116840000Y-81280000D03*
X119380000Y-81280000D03*
X121920000Y-81280000D03*
X124460000Y-81280000D03*
X127000000Y-81280000D03*
X129540000Y-81280000D03*
X132080000Y-81280000D03*
X132080000Y-66040000D03*
X129540000Y-66040000D03*
X127000000Y-66040000D03*
X124460000Y-66040000D03*
D19*
X121920000Y-66040000D03*
X119380000Y-66040000D03*
X116840000Y-66040000D03*
X114300000Y-66040000D03*
X111760000Y-66040000D03*
X109220000Y-66040000D03*
X106680000Y-66040000D03*
X104140000Y-66040000D03*
X101600000Y-66040000D03*
X99060000Y-66040000D03*
X96520000Y-66040000D03*
D13*
X148590000Y-85090000D03*
D14*
X146050000Y-85090000D03*
X143510000Y-85090000D03*
X140970000Y-85090000D03*
X138430000Y-85090000D03*
X135890000Y-85090000D03*
D13*
X93980000Y-85090000D03*
D14*
X96520000Y-85090000D03*
D13*
X105410000Y-85090000D03*
D14*
X102870000Y-85090000D03*
X100330000Y-85090000D03*
D13*
X138430000Y-77470000D03*
D14*
X140970000Y-77470000D03*
X143510000Y-77470000D03*
X146050000Y-77470000D03*
X148590000Y-77470000D03*
D13*
X138430000Y-81280000D03*
D14*
X140970000Y-81280000D03*
X143510000Y-81280000D03*
X146050000Y-81280000D03*
X148590000Y-81280000D03*
M02*
