<?xml version="1.0" standalone="no"?>
 <!DOCTYPE svg PUBLIC "-//W3C//DTD SVG 1.1//EN" 
 "http://www.w3.org/Graphics/SVG/1.1/DTD/svg11.dtd"> 
<svg xmlns="http://www.w3.org/2000/svg" version="1.1" 
    width="8.04418cm" height="4.19862cm" viewBox="0 0 31670 16530 ">
<title>SVG Picture created as 04_motor_driver_L293D-brd.svg date 2015/11/07 09:57:46 </title>
  <desc>Picture generated by PCBNEW </desc>
<g style="fill:#000000; fill-opacity:1;stroke:#000000; stroke-opacity:1;
stroke-linecap:round; stroke-linejoin:round; "
 transform="translate(0 0) scale(1 1)">
</g>
<g style="fill:#000000; fill-opacity:0.0; 
stroke:#000000; stroke-width:-0.000393701; stroke-opacity:1; 
stroke-linecap:round; stroke-linejoin:round;">
</g>
<g style="fill:#000000; fill-opacity:0.0; 
stroke:#000000; stroke-width:50; stroke-opacity:1; 
stroke-linecap:round; stroke-linejoin:round;">
<path d="M13890 7468
L13890 6968
" />
<path d="M14390 7468
L14390 6978
" />
<path d="M14540 7468
L13740 7468
" />
<path d="M13740 7468
L13740 6968
" />
<path d="M13740 6968
L14540 6968
" />
<path d="M14540 6968
L14540 7468
" />
<path d="M14690 3418
L14690 3918
" />
<path d="M14190 3418
L14190 3908
" />
<path d="M14040 3418
L14840 3418
" />
<path d="M14840 3418
L14840 3918
" />
<path d="M14840 3918
L14040 3918
" />
<path d="M14040 3918
L14040 3418
" />
<path d="M17390 5718
L17390 5218
" />
<path d="M17890 5718
L17890 5228
" />
<path d="M18040 5718
L17240 5718
" />
<path d="M17240 5718
L17240 5218
" />
<path d="M17240 5218
L18040 5218
" />
<path d="M18040 5218
L18040 5718
" />
<path d="M25640 4218
L25640 3718
" />
<path d="M26140 4218
L26140 3728
" />
<path d="M26290 4218
L25490 4218
" />
<path d="M25490 4218
L25490 3718
" />
<path d="M25490 3718
L26290 3718
" />
<path d="M26290 3718
L26290 4218
" />
<path d="M10286 3753
L10286 4383
" />
<path d="M10246 4383
L10246 3753
" />
<path d="M11191 4383
L10089 4383
" />
<path d="M10089 4383
L10089 3753
" />
<path d="M10089 3753
L11191 3753
" />
<path d="M11191 3753
L11191 4383
" />
<path d="M8594 4383
L8594 3753
" />
<path d="M8634 3753
L8634 4383
" />
<path d="M7689 3753
L8791 3753
" />
<path d="M8791 3753
L8791 4383
" />
<path d="M8791 4383
L7689 4383
" />
<path d="M7689 4383
L7689 3753
" />
<path d="M22994 10533
L22994 9903
" />
<path d="M23034 9903
L23034 10533
" />
<path d="M22089 9903
L23191 9903
" />
<path d="M23191 9903
L23191 10533
" />
<path d="M23191 10533
L22089 10533
" />
<path d="M22089 10533
L22089 9903
" />
<path d="M8594 5683
L8594 5053
" />
<path d="M8634 5053
L8634 5683
" />
<path d="M7689 5053
L8791 5053
" />
<path d="M8791 5053
L8791 5683
" />
<path d="M8791 5683
L7689 5683
" />
<path d="M7689 5683
L7689 5053
" />
<path d="M30855 2614
L30225 2614
" />
<path d="M30225 2574
L30855 2574
" />
<path d="M30225 3519
L30225 2417
" />
<path d="M30225 2417
L30855 2417
" />
<path d="M30855 2417
L30855 3519
" />
<path d="M30855 3519
L30225 3519
" />
<path d="M30325 9722
L30955 9722
" />
<path d="M30955 9762
L30325 9762
" />
<path d="M30955 8817
L30955 9919
" />
<path d="M30955 9919
L30325 9919
" />
<path d="M30325 9919
L30325 8817
" />
<path d="M30325 8817
L30955 8817
" />
<path d="M10994 5683
L10994 5053
" />
<path d="M11034 5053
L11034 5683
" />
<path d="M10089 5053
L11191 5053
" />
<path d="M11191 5053
L11191 5683
" />
<path d="M11191 5683
L10089 5683
" />
<path d="M10089 5683
L10089 5053
" />
<path d="M12425 8122
L13055 8122
" />
<path d="M13055 8162
L12425 8162
" />
<path d="M13055 7217
L13055 8319
" />
<path d="M13055 8319
L12425 8319
" />
<path d="M12425 8319
L12425 7217
" />
<path d="M12425 7217
L13055 7217
" />
<path d="M27990 6618
L28490 6618
" />
<path d="M27990 7118
L28480 7118
" />
<path d="M27990 7268
L27990 6468
" />
<path d="M27990 6468
L28490 6468
" />
<path d="M28490 6468
L28490 7268
" />
<path d="M28490 7268
L27990 7268
" />
<path d="M16090 6918
L15590 6918
" />
<path d="M16090 6418
L15600 6418
" />
<path d="M16090 6268
L16090 7068
" />
<path d="M16090 7068
L15590 7068
" />
<path d="M15590 7068
L15590 6268
" />
<path d="M15590 6268
L16090 6268
" />
</g>
<g style="fill:#000000; fill-opacity:0.0; 
stroke:#000000; stroke-width:59.0551; stroke-opacity:1; 
stroke-linecap:round; stroke-linejoin:round;">
<path d="M13274 6746
L13143 6558
" />
<path d="M13049 6746
L13049 6352
L13199 6352
L13237 6371
L13256 6390
L13274 6427
L13274 6483
L13256 6521
L13237 6539
L13199 6558
L13049 6558
" />
<path d="M13649 6746
L13424 6746
" />
<path d="M13537 6746
L13537 6352
L13499 6408
L13462 6446
L13424 6464
" />
<path d="M13074 3846
L12943 3658
" />
<path d="M12849 3846
L12849 3452
L12999 3452
L13037 3471
L13056 3490
L13074 3527
L13074 3583
L13056 3621
L13037 3639
L12999 3658
L12849 3658
" />
<path d="M13224 3490
L13243 3471
L13281 3452
L13374 3452
L13412 3471
L13431 3490
L13449 3527
L13449 3564
L13431 3621
L13206 3846
L13449 3846
" />
<path d="M17574 6446
L17443 6258
" />
<path d="M17349 6446
L17349 6052
L17499 6052
L17537 6071
L17556 6090
L17574 6127
L17574 6183
L17556 6221
L17537 6239
L17499 6258
L17349 6258
" />
<path d="M17706 6052
L17949 6052
L17818 6202
L17874 6202
L17912 6221
L17931 6239
L17949 6277
L17949 6371
L17931 6408
L17912 6427
L17874 6446
L17762 6446
L17724 6427
L17706 6408
" />
<path d="M25874 3546
L25743 3358
" />
<path d="M25649 3546
L25649 3152
L25799 3152
L25837 3171
L25856 3190
L25874 3227
L25874 3283
L25856 3321
L25837 3339
L25799 3358
L25649 3358
" />
<path d="M26212 3283
L26212 3546
" />
<path d="M26118 3133
L26024 3414
L26268 3414
" />
</g>
<g style="fill:#000000; fill-opacity:0.0; 
stroke:#000000; stroke-width:39.3701; stroke-opacity:1; 
stroke-linecap:round; stroke-linejoin:round;">
<path d="M10524 4651
L10524 4493
L10561 4493
L10584 4501
L10599 4516
L10606 4531
L10614 4561
L10614 4583
L10606 4613
L10599 4628
L10584 4643
L10561 4651
L10524 4651
" />
<path d="M10764 4651
L10674 4651
" />
<path d="M10719 4651
L10719 4493
L10704 4516
L10689 4531
L10674 4538
" />
<path d="M8124 3627
L8124 3469
L8161 3469
L8184 3477
L8199 3492
L8206 3507
L8214 3537
L8214 3559
L8206 3589
L8199 3604
L8184 3619
L8161 3627
L8124 3627
" />
<path d="M8274 3484
L8281 3477
L8296 3469
L8334 3469
L8349 3477
L8356 3484
L8364 3499
L8364 3514
L8356 3537
L8266 3627
L8364 3627
" />
<path d="M22524 9777
L22524 9619
L22561 9619
L22584 9627
L22599 9642
L22606 9657
L22614 9687
L22614 9709
L22606 9739
L22599 9754
L22584 9769
L22561 9777
L22524 9777
" />
<path d="M22666 9619
L22764 9619
L22711 9679
L22734 9679
L22749 9687
L22756 9694
L22764 9709
L22764 9747
L22756 9762
L22749 9769
L22734 9777
L22689 9777
L22674 9769
L22666 9762
" />
<path d="M8124 4927
L8124 4769
L8161 4769
L8184 4777
L8199 4792
L8206 4807
L8214 4837
L8214 4859
L8206 4889
L8199 4904
L8184 4919
L8161 4927
L8124 4927
" />
<path d="M8349 4822
L8349 4927
" />
<path d="M8311 4762
L8274 4874
L8371 4874
" />
<path d="M29957 2851
L30114 2851
L30114 2889
L30107 2911
L30092 2926
L30077 2934
L30047 2941
L30024 2941
L29994 2934
L29979 2926
L29964 2911
L29957 2889
L29957 2851
" />
<path d="M30114 3084
L30114 3009
L30039 3001
L30047 3009
L30054 3024
L30054 3061
L30047 3076
L30039 3084
L30024 3091
L29987 3091
L29972 3084
L29964 3076
L29957 3061
L29957 3024
L29964 3009
L29972 3001
" />
<path d="M31081 9251
L31238 9251
L31238 9289
L31231 9311
L31216 9326
L31201 9334
L31171 9341
L31148 9341
L31118 9334
L31103 9326
L31088 9311
L31081 9289
L31081 9251
" />
<path d="M31238 9476
L31238 9446
L31231 9431
L31223 9424
L31201 9409
L31171 9401
L31111 9401
L31096 9409
L31088 9416
L31081 9431
L31081 9461
L31088 9476
L31096 9484
L31111 9491
L31148 9491
L31163 9484
L31171 9476
L31178 9461
L31178 9431
L31171 9416
L31163 9409
L31148 9401
" />
<path d="M10524 4927
L10524 4769
L10561 4769
L10584 4777
L10599 4792
L10606 4807
L10614 4837
L10614 4859
L10606 4889
L10599 4904
L10584 4919
L10561 4927
L10524 4927
" />
<path d="M10666 4769
L10771 4769
L10704 4927
" />
<path d="M13181 7651
L13338 7651
L13338 7689
L13331 7711
L13316 7726
L13301 7734
L13271 7741
L13248 7741
L13218 7734
L13203 7726
L13188 7711
L13181 7689
L13181 7651
" />
<path d="M13271 7831
L13278 7816
L13286 7809
L13301 7801
L13308 7801
L13323 7809
L13331 7816
L13338 7831
L13338 7861
L13331 7876
L13323 7884
L13308 7891
L13301 7891
L13286 7884
L13278 7876
L13271 7861
L13271 7831
L13263 7816
L13256 7809
L13241 7801
L13211 7801
L13196 7809
L13188 7816
L13181 7831
L13181 7861
L13188 7876
L13196 7884
L13211 7891
L13241 7891
L13256 7884
L13263 7876
L13271 7861
" />
</g>
<g style="fill:#000000; fill-opacity:0.0; 
stroke:#000000; stroke-width:59.0551; stroke-opacity:1; 
stroke-linecap:round; stroke-linejoin:round;">
<path d="M27262 6902
L27449 6771
" />
<path d="M27262 6677
L27656 6677
L27656 6827
L27637 6864
L27618 6883
L27581 6902
L27524 6902
L27487 6883
L27468 6864
L27449 6827
L27449 6677
" />
<path d="M27656 7258
L27656 7071
L27468 7052
L27487 7071
L27506 7108
L27506 7202
L27487 7239
L27468 7258
L27431 7277
L27337 7277
L27299 7258
L27281 7239
L27262 7202
L27262 7108
L27281 7071
L27299 7052
" />
<path d="M15662 5202
L15849 5071
" />
<path d="M15662 4977
L16056 4977
L16056 5127
L16037 5164
L16018 5183
L15981 5202
L15924 5202
L15887 5183
L15868 5164
L15849 5127
L15849 4977
" />
<path d="M16056 5539
L16056 5464
L16037 5427
L16018 5408
L15962 5371
L15887 5352
L15737 5352
L15699 5371
L15681 5389
L15662 5427
L15662 5502
L15681 5539
L15699 5558
L15737 5577
L15831 5577
L15868 5558
L15887 5539
L15906 5502
L15906 5427
L15887 5389
L15868 5371
L15831 5352
" />
</g>
<g style="fill:#000000; fill-opacity:0.0; 
stroke:#000000; stroke-width:0; stroke-opacity:1; 
stroke-linecap:round; stroke-linejoin:round;">
</g>
<g style="fill:#000000; fill-opacity:1.0; 
stroke:#000000; stroke-width:0; stroke-opacity:1; 
stroke-linecap:round; stroke-linejoin:round;">
<polyline style="fill-rule:evenodd;"
points="14021,7513
14021,6923
13509,6923
13509,7513
14021,7513
" /> 
<polyline style="fill-rule:evenodd;"
points="14771,7513
14771,6923
14259,6923
14259,7513
14771,7513
" /> 
<polyline style="fill-rule:evenodd;"
points="14559,3373
14559,3963
15071,3963
15071,3373
14559,3373
" /> 
<polyline style="fill-rule:evenodd;"
points="13809,3373
13809,3963
14321,3963
14321,3373
13809,3373
" /> 
<polyline style="fill-rule:evenodd;"
points="17521,5763
17521,5173
17009,5173
17009,5763
17521,5763
" /> 
<polyline style="fill-rule:evenodd;"
points="18271,5763
18271,5173
17759,5173
17759,5763
18271,5763
" /> 
<polyline style="fill-rule:evenodd;"
points="25771,4263
25771,3673
25259,3673
25259,4263
25771,4263
" /> 
<polyline style="fill-rule:evenodd;"
points="26521,4263
26521,3673
26009,3673
26009,4263
26521,4263
" /> 
<polyline style="fill-rule:evenodd;"
points="10148,4235
10148,3900
9813,3900
9813,4235
10148,4235
" /> 
<polyline style="fill-rule:evenodd;"
points="11466,4235
11466,3900
11131,3900
11131,4235
11466,4235
" /> 
<polyline style="fill-rule:evenodd;"
points="8731,3900
8731,4235
9066,4235
9066,3900
8731,3900
" /> 
<polyline style="fill-rule:evenodd;"
points="7413,3900
7413,4235
7748,4235
7748,3900
7413,3900
" /> 
<polyline style="fill-rule:evenodd;"
points="23131,10050
23131,10385
23466,10385
23466,10050
23131,10050
" /> 
<polyline style="fill-rule:evenodd;"
points="21813,10050
21813,10385
22148,10385
22148,10050
21813,10050
" /> 
<polyline style="fill-rule:evenodd;"
points="8731,5200
8731,5535
9066,5535
9066,5200
8731,5200
" /> 
<polyline style="fill-rule:evenodd;"
points="7413,5200
7413,5535
7748,5535
7748,5200
7413,5200
" /> 
<polyline style="fill-rule:evenodd;"
points="30372,2476
30707,2476
30707,2141
30372,2141
30372,2476
" /> 
<polyline style="fill-rule:evenodd;"
points="30372,3794
30707,3794
30707,3459
30372,3459
30372,3794
" /> 
<polyline style="fill-rule:evenodd;"
points="30807,9859
30472,9859
30472,10194
30807,10194
30807,9859
" /> 
<polyline style="fill-rule:evenodd;"
points="30807,8541
30472,8541
30472,8876
30807,8876
30807,8541
" /> 
<polyline style="fill-rule:evenodd;"
points="11131,5200
11131,5535
11466,5535
11466,5200
11131,5200
" /> 
<polyline style="fill-rule:evenodd;"
points="9813,5200
9813,5535
10148,5535
10148,5200
9813,5200
" /> 
<polyline style="fill-rule:evenodd;"
points="12907,8259
12572,8259
12572,8594
12907,8594
12907,8259
" /> 
<polyline style="fill-rule:evenodd;"
points="12907,6941
12572,6941
12572,7276
12907,7276
12907,6941
" /> 
<polyline style="fill-rule:evenodd;"
points="27945,6749
28535,6749
28535,6237
27945,6237
27945,6749
" /> 
<polyline style="fill-rule:evenodd;"
points="27945,7499
28535,7499
28535,6987
27945,6987
27945,7499
" /> 
<polyline style="fill-rule:evenodd;"
points="16135,6787
15545,6787
15545,7299
16135,7299
16135,6787
" /> 
<polyline style="fill-rule:evenodd;"
points="16135,6037
15545,6037
15545,6549
16135,6549
16135,6037
" /> 
</g>
<g style="fill:#000000; fill-opacity:1.0; 
stroke:#000000; stroke-width:748.48; stroke-opacity:1; 
stroke-linecap:round; stroke-linejoin:round;">
</g>
<g style="fill:#000000; fill-opacity:0.0; 
stroke:#000000; stroke-width:748.48; stroke-opacity:1; 
stroke-linecap:round; stroke-linejoin:round;">
<path d="M24140 6830
L24140 7105
" />
<path d="M23140 6830
L23140 7105
" />
<path d="M22140 6830
L22140 7105
" />
<path d="M21140 6830
L21140 7105
" />
<path d="M20140 6830
L20140 7105
" />
<path d="M19140 6830
L19140 7105
" />
<path d="M18140 6830
L18140 7105
" />
<path d="M17140 6830
L17140 7105
" />
<path d="M17140 3830
L17140 4105
" />
<path d="M18140 3830
L18140 4105
" />
<path d="M19140 3830
L19140 4105
" />
<path d="M20140 3830
L20140 4105
" />
<path d="M21140 3830
L21140 4105
" />
<path d="M22140 3830
L22140 4105
" />
<path d="M23140 3830
L23140 4105
" />
<path d="M24140 3830
L24140 4105
" />
</g>
<g style="fill:#000000; fill-opacity:1.0; 
stroke:#000000; stroke-width:0; stroke-opacity:1; 
stroke-linecap:round; stroke-linejoin:round;">
<circle cx="14640.5" cy="6218.11" r="423.24" /> 
</g>
<g style="fill:#000000; fill-opacity:1.0; 
stroke:#000000; stroke-width:78.7402; stroke-opacity:1; 
stroke-linecap:round; stroke-linejoin:round;">
</g>
<g style="fill:#000000; fill-opacity:1.0; 
stroke:#000000; stroke-width:0; stroke-opacity:1; 
stroke-linecap:round; stroke-linejoin:round;">
<circle cx="13640.5" cy="5468.11" r="423.24" /> 
</g>
<g style="fill:#000000; fill-opacity:1.0; 
stroke:#000000; stroke-width:78.7402; stroke-opacity:1; 
stroke-linecap:round; stroke-linejoin:round;">
</g>
<g style="fill:#000000; fill-opacity:1.0; 
stroke:#000000; stroke-width:0; stroke-opacity:1; 
stroke-linecap:round; stroke-linejoin:round;">
<circle cx="14640.5" cy="4718.11" r="423.24" /> 
</g>
<g style="fill:#000000; fill-opacity:1.0; 
stroke:#000000; stroke-width:78.7402; stroke-opacity:1; 
stroke-linecap:round; stroke-linejoin:round;">
</g>
<g style="fill:#000000; fill-opacity:1.0; 
stroke:#000000; stroke-width:0; stroke-opacity:1; 
stroke-linecap:round; stroke-linejoin:round;">
<circle cx="26140.5" cy="4968.11" r="423.24" /> 
</g>
<g style="fill:#000000; fill-opacity:1.0; 
stroke:#000000; stroke-width:78.7402; stroke-opacity:1; 
stroke-linecap:round; stroke-linejoin:round;">
</g>
<g style="fill:#000000; fill-opacity:1.0; 
stroke:#000000; stroke-width:0; stroke-opacity:1; 
stroke-linecap:round; stroke-linejoin:round;">
<circle cx="27140.5" cy="5718.11" r="423.24" /> 
</g>
<g style="fill:#000000; fill-opacity:1.0; 
stroke:#000000; stroke-width:78.7402; stroke-opacity:1; 
stroke-linecap:round; stroke-linejoin:round;">
</g>
<g style="fill:#000000; fill-opacity:1.0; 
stroke:#000000; stroke-width:0; stroke-opacity:1; 
stroke-linecap:round; stroke-linejoin:round;">
<circle cx="26140.5" cy="6468.11" r="423.24" /> 
</g>
<g style="fill:#000000; fill-opacity:1.0; 
stroke:#000000; stroke-width:78.7402; stroke-opacity:1; 
stroke-linecap:round; stroke-linejoin:round;">
</g>
<g style="fill:#000000; fill-opacity:1.0; 
stroke:#000000; stroke-width:0; stroke-opacity:1; 
stroke-linecap:round; stroke-linejoin:round;">
<polyline style="fill-rule:evenodd;"
points="14100,7591
14100,6844
13430,6844
13430,7591
14100,7591
" /> 
<polyline style="fill-rule:evenodd;"
points="14850,7591
14850,6844
14180,6844
14180,7591
14850,7591
" /> 
<polyline style="fill-rule:evenodd;"
points="14480,3294
14480,4041
15150,4041
15150,3294
14480,3294
" /> 
<polyline style="fill-rule:evenodd;"
points="13730,3294
13730,4041
14400,4041
14400,3294
13730,3294
" /> 
<polyline style="fill-rule:evenodd;"
points="17600,5841
17600,5094
16930,5094
16930,5841
17600,5841
" /> 
<polyline style="fill-rule:evenodd;"
points="18350,5841
18350,5094
17680,5094
17680,5841
18350,5841
" /> 
<polyline style="fill-rule:evenodd;"
points="25850,4341
25850,3594
25180,3594
25180,4341
25850,4341
" /> 
<polyline style="fill-rule:evenodd;"
points="26600,4341
26600,3594
25930,3594
25930,4341
26600,4341
" /> 
<polyline style="fill-rule:evenodd;"
points="9019,2979
9019,1956
8261,1956
8261,2979
9019,2979
" /> 
</g>
<g style="fill:#000000; fill-opacity:1.0; 
stroke:#000000; stroke-width:757.48; stroke-opacity:1; 
stroke-linecap:round; stroke-linejoin:round;">
</g>
<g style="fill:#000000; fill-opacity:0.0; 
stroke:#000000; stroke-width:757.48; stroke-opacity:1; 
stroke-linecap:round; stroke-linejoin:round;">
<path d="M7640 2335
L7640 2601
" />
</g>
<g style="fill:#000000; fill-opacity:0.0; 
stroke:#000000; stroke-width:0; stroke-opacity:1; 
stroke-linecap:round; stroke-linejoin:round;">
</g>
<g style="fill:#000000; fill-opacity:1.0; 
stroke:#000000; stroke-width:0; stroke-opacity:1; 
stroke-linecap:round; stroke-linejoin:round;">
<polyline style="fill-rule:evenodd;"
points="28628,4846
29652,4846
29652,4089
28628,4089
28628,4846
" /> 
</g>
<g style="fill:#000000; fill-opacity:1.0; 
stroke:#000000; stroke-width:757.48; stroke-opacity:1; 
stroke-linecap:round; stroke-linejoin:round;">
</g>
<g style="fill:#000000; fill-opacity:0.0; 
stroke:#000000; stroke-width:757.48; stroke-opacity:1; 
stroke-linecap:round; stroke-linejoin:round;">
<path d="M29273 3468
L29007 3468
" />
</g>
<g style="fill:#000000; fill-opacity:0.0; 
stroke:#000000; stroke-width:0; stroke-opacity:1; 
stroke-linecap:round; stroke-linejoin:round;">
</g>
<g style="fill:#000000; fill-opacity:1.0; 
stroke:#000000; stroke-width:0; stroke-opacity:1; 
stroke-linecap:round; stroke-linejoin:round;">
<polyline style="fill-rule:evenodd;"
points="18512,10651
18512,9785
17843,9785
17843,10651
18512,10651
" /> 
</g>
<g style="fill:#000000; fill-opacity:1.0; 
stroke:#000000; stroke-width:669.291; stroke-opacity:1; 
stroke-linecap:round; stroke-linejoin:round;">
</g>
<g style="fill:#000000; fill-opacity:0.0; 
stroke:#000000; stroke-width:669.291; stroke-opacity:1; 
stroke-linecap:round; stroke-linejoin:round;">
<path d="M17390 10119
L17390 10316
" />
<path d="M16603 10119
L16603 10316
" />
</g>
<g style="fill:#000000; fill-opacity:0.0; 
stroke:#000000; stroke-width:0; stroke-opacity:1; 
stroke-linecap:round; stroke-linejoin:round;">
</g>
<g style="fill:#000000; fill-opacity:1.0; 
stroke:#000000; stroke-width:0; stroke-opacity:1; 
stroke-linecap:round; stroke-linejoin:round;">
<polyline style="fill-rule:evenodd;"
points="19018,9785
19018,10651
19687,10651
19687,9785
19018,9785
" /> 
</g>
<g style="fill:#000000; fill-opacity:1.0; 
stroke:#000000; stroke-width:669.291; stroke-opacity:1; 
stroke-linecap:round; stroke-linejoin:round;">
</g>
<g style="fill:#000000; fill-opacity:0.0; 
stroke:#000000; stroke-width:669.291; stroke-opacity:1; 
stroke-linecap:round; stroke-linejoin:round;">
<path d="M20140 10316
L20140 10119
" />
<path d="M20927 10316
L20927 10119
" />
</g>
<g style="fill:#000000; fill-opacity:0.0; 
stroke:#000000; stroke-width:757.48; stroke-opacity:1; 
stroke-linecap:round; stroke-linejoin:round;">
<path d="M28140 8335
L28140 8601
" />
<path d="M27140 8335
L27140 8601
" />
<path d="M26140 8335
L26140 8601
" />
<path d="M25140 8335
L25140 8601
" />
<path d="M24140 8335
L24140 8601
" />
<path d="M23140 8335
L23140 8601
" />
<path d="M22140 8335
L22140 8601
" />
<path d="M21140 8335
L21140 8601
" />
<path d="M20140 8335
L20140 8601
" />
<path d="M19140 8335
L19140 8601
" />
<path d="M18140 8335
L18140 8601
" />
<path d="M17140 8335
L17140 8601
" />
<path d="M16140 8335
L16140 8601
" />
<path d="M15140 8335
L15140 8601
" />
<path d="M14140 8335
L14140 8601
" />
<path d="M14140 2335
L14140 2601
" />
<path d="M15140 2335
L15140 2601
" />
<path d="M16140 2335
L16140 2601
" />
<path d="M17140 2335
L17140 2601
" />
<path d="M18140 2335
L18140 2600
" />
<path d="M19140 2335
L19140 2600
" />
<path d="M20140 2335
L20140 2600
" />
<path d="M21140 2335
L21140 2600
" />
<path d="M22140 2335
L22140 2600
" />
<path d="M23140 2335
L23140 2600
" />
<path d="M24140 2335
L24140 2600
" />
<path d="M25140 2335
L25140 2600
" />
<path d="M26140 2335
L26140 2600
" />
<path d="M27140 2335
L27140 2600
" />
<path d="M28140 2335
L28140 2600
" />
</g>
<g style="fill:#000000; fill-opacity:0.0; 
stroke:#000000; stroke-width:0; stroke-opacity:1; 
stroke-linecap:round; stroke-linejoin:round;">
</g>
<g style="fill:#000000; fill-opacity:1.0; 
stroke:#000000; stroke-width:0; stroke-opacity:1; 
stroke-linecap:round; stroke-linejoin:round;">
<polyline style="fill-rule:evenodd;"
points="7261,9456
7261,10479
8019,10479
8019,9456
7261,9456
" /> 
</g>
<g style="fill:#000000; fill-opacity:1.0; 
stroke:#000000; stroke-width:757.48; stroke-opacity:1; 
stroke-linecap:round; stroke-linejoin:round;">
</g>
<g style="fill:#000000; fill-opacity:0.0; 
stroke:#000000; stroke-width:757.48; stroke-opacity:1; 
stroke-linecap:round; stroke-linejoin:round;">
<path d="M8640 10101
L8640 9835
" />
<path d="M9640 10101
L9640 9835
" />
<path d="M10640 10101
L10640 9835
" />
<path d="M11640 10101
L11640 9835
" />
<path d="M12640 10101
L12640 9835
" />
</g>
<g style="fill:#000000; fill-opacity:0.0; 
stroke:#000000; stroke-width:0; stroke-opacity:1; 
stroke-linecap:round; stroke-linejoin:round;">
</g>
<g style="fill:#000000; fill-opacity:1.0; 
stroke:#000000; stroke-width:0; stroke-opacity:1; 
stroke-linecap:round; stroke-linejoin:round;">
<polyline style="fill-rule:evenodd;"
points="29519,10479
29519,9456
28761,9456
28761,10479
29519,10479
" /> 
</g>
<g style="fill:#000000; fill-opacity:1.0; 
stroke:#000000; stroke-width:757.48; stroke-opacity:1; 
stroke-linecap:round; stroke-linejoin:round;">
</g>
<g style="fill:#000000; fill-opacity:0.0; 
stroke:#000000; stroke-width:757.48; stroke-opacity:1; 
stroke-linecap:round; stroke-linejoin:round;">
<path d="M28140 9835
L28140 10101
" />
</g>
<g style="fill:#000000; fill-opacity:0.0; 
stroke:#000000; stroke-width:0; stroke-opacity:1; 
stroke-linecap:round; stroke-linejoin:round;">
</g>
<g style="fill:#000000; fill-opacity:1.0; 
stroke:#000000; stroke-width:0; stroke-opacity:1; 
stroke-linecap:round; stroke-linejoin:round;">
<polyline style="fill-rule:evenodd;"
points="10227,4314
10227,3821
9735,3821
9735,4314
10227,4314
" /> 
<polyline style="fill-rule:evenodd;"
points="11545,4314
11545,3821
11053,3821
11053,4314
11545,4314
" /> 
<polyline style="fill-rule:evenodd;"
points="8653,3821
8653,4314
9145,4314
9145,3821
8653,3821
" /> 
<polyline style="fill-rule:evenodd;"
points="7335,3821
7335,4314
7827,4314
7827,3821
7335,3821
" /> 
<polyline style="fill-rule:evenodd;"
points="23053,9971
23053,10464
23545,10464
23545,9971
23053,9971
" /> 
<polyline style="fill-rule:evenodd;"
points="21735,9971
21735,10464
22227,10464
22227,9971
21735,9971
" /> 
<polyline style="fill-rule:evenodd;"
points="8653,5121
8653,5614
9145,5614
9145,5121
8653,5121
" /> 
<polyline style="fill-rule:evenodd;"
points="7335,5121
7335,5614
7827,5614
7827,5121
7335,5121
" /> 
<polyline style="fill-rule:evenodd;"
points="30294,2555
30786,2555
30786,2062
30294,2062
30294,2555
" /> 
<polyline style="fill-rule:evenodd;"
points="30294,3873
30786,3873
30786,3380
30294,3380
30294,3873
" /> 
<polyline style="fill-rule:evenodd;"
points="30886,9780
30394,9780
30394,10273
30886,10273
30886,9780
" /> 
<polyline style="fill-rule:evenodd;"
points="30886,8462
30394,8462
30394,8955
30886,8955
30886,8462
" /> 
<polyline style="fill-rule:evenodd;"
points="11053,5121
11053,5614
11545,5614
11545,5121
11053,5121
" /> 
<polyline style="fill-rule:evenodd;"
points="9735,5121
9735,5614
10227,5614
10227,5121
9735,5121
" /> 
<polyline style="fill-rule:evenodd;"
points="12986,8180
12494,8180
12494,8673
12986,8673
12986,8180
" /> 
<polyline style="fill-rule:evenodd;"
points="12986,6862
12494,6862
12494,7355
12986,7355
12986,6862
" /> 
<polyline style="fill-rule:evenodd;"
points="24261,9456
24261,10479
25019,10479
25019,9456
24261,9456
" /> 
</g>
<g style="fill:#000000; fill-opacity:1.0; 
stroke:#000000; stroke-width:757.48; stroke-opacity:1; 
stroke-linecap:round; stroke-linejoin:round;">
</g>
<g style="fill:#000000; fill-opacity:0.0; 
stroke:#000000; stroke-width:757.48; stroke-opacity:1; 
stroke-linecap:round; stroke-linejoin:round;">
<path d="M25640 10101
L25640 9835
" />
<path d="M26640 10101
L26640 9835
" />
</g>
<g style="fill:#000000; fill-opacity:0.0; 
stroke:#000000; stroke-width:0; stroke-opacity:1; 
stroke-linecap:round; stroke-linejoin:round;">
</g>
<g style="fill:#000000; fill-opacity:1.0; 
stroke:#000000; stroke-width:0; stroke-opacity:1; 
stroke-linecap:round; stroke-linejoin:round;">
<polyline style="fill-rule:evenodd;"
points="12019,7479
12019,6456
11261,6456
11261,7479
12019,7479
" /> 
</g>
<g style="fill:#000000; fill-opacity:1.0; 
stroke:#000000; stroke-width:757.48; stroke-opacity:1; 
stroke-linecap:round; stroke-linejoin:round;">
</g>
<g style="fill:#000000; fill-opacity:0.0; 
stroke:#000000; stroke-width:757.48; stroke-opacity:1; 
stroke-linecap:round; stroke-linejoin:round;">
<path d="M10640 6835
L10640 7101
" />
<path d="M9640 6835
L9640 7101
" />
<path d="M8640 6835
L8640 7101
" />
<path d="M7640 6835
L7640 7101
" />
</g>
<g style="fill:#000000; fill-opacity:0.0; 
stroke:#000000; stroke-width:0; stroke-opacity:1; 
stroke-linecap:round; stroke-linejoin:round;">
</g>
<g style="fill:#000000; fill-opacity:1.0; 
stroke:#000000; stroke-width:0; stroke-opacity:1; 
stroke-linecap:round; stroke-linejoin:round;">
<polyline style="fill-rule:evenodd;"
points="12019,8979
12019,7956
11261,7956
11261,8979
12019,8979
" /> 
</g>
<g style="fill:#000000; fill-opacity:1.0; 
stroke:#000000; stroke-width:757.48; stroke-opacity:1; 
stroke-linecap:round; stroke-linejoin:round;">
</g>
<g style="fill:#000000; fill-opacity:0.0; 
stroke:#000000; stroke-width:757.48; stroke-opacity:1; 
stroke-linecap:round; stroke-linejoin:round;">
<path d="M10640 8335
L10640 8601
" />
<path d="M9640 8335
L9640 8601
" />
<path d="M8640 8335
L8640 8601
" />
<path d="M7640 8335
L7640 8601
" />
</g>
<g style="fill:#000000; fill-opacity:0.0; 
stroke:#000000; stroke-width:0; stroke-opacity:1; 
stroke-linecap:round; stroke-linejoin:round;">
</g>
<g style="fill:#000000; fill-opacity:1.0; 
stroke:#000000; stroke-width:0; stroke-opacity:1; 
stroke-linecap:round; stroke-linejoin:round;">
<polyline style="fill-rule:evenodd;"
points="27866,6827
28614,6827
28614,6158
27866,6158
27866,6827
" /> 
<polyline style="fill-rule:evenodd;"
points="27866,7577
28614,7577
28614,6908
27866,6908
27866,7577
" /> 
<polyline style="fill-rule:evenodd;"
points="16214,6708
15466,6708
15466,7377
16214,7377
16214,6708
" /> 
<polyline style="fill-rule:evenodd;"
points="16214,5958
15466,5958
15466,6627
16214,6627
16214,5958
" /> 
</g>
<g style="fill:#000000; fill-opacity:1.0; 
stroke:#000000; stroke-width:748.48; stroke-opacity:1; 
stroke-linecap:round; stroke-linejoin:round;">
</g>
<g style="fill:#000000; fill-opacity:0.0; 
stroke:#000000; stroke-width:748.48; stroke-opacity:1; 
stroke-linecap:round; stroke-linejoin:round;">
<path d="M24140 6830
L24140 7105
" />
<path d="M23140 6830
L23140 7105
" />
<path d="M22140 6830
L22140 7105
" />
<path d="M21140 6830
L21140 7105
" />
<path d="M20140 6830
L20140 7105
" />
<path d="M19140 6830
L19140 7105
" />
<path d="M18140 6830
L18140 7105
" />
<path d="M17140 6830
L17140 7105
" />
<path d="M17140 3830
L17140 4105
" />
<path d="M18140 3830
L18140 4105
" />
<path d="M19140 3830
L19140 4105
" />
<path d="M20140 3830
L20140 4105
" />
<path d="M21140 3830
L21140 4105
" />
<path d="M22140 3830
L22140 4105
" />
<path d="M23140 3830
L23140 4105
" />
<path d="M24140 3830
L24140 4105
" />
</g>
<g style="fill:#000000; fill-opacity:1.0; 
stroke:#000000; stroke-width:0; stroke-opacity:1; 
stroke-linecap:round; stroke-linejoin:round;">
<circle cx="14640.5" cy="6218.11" r="423.24" /> 
</g>
<g style="fill:#000000; fill-opacity:1.0; 
stroke:#000000; stroke-width:78.7402; stroke-opacity:1; 
stroke-linecap:round; stroke-linejoin:round;">
</g>
<g style="fill:#000000; fill-opacity:1.0; 
stroke:#000000; stroke-width:0; stroke-opacity:1; 
stroke-linecap:round; stroke-linejoin:round;">
<circle cx="13640.5" cy="5468.11" r="423.24" /> 
</g>
<g style="fill:#000000; fill-opacity:1.0; 
stroke:#000000; stroke-width:78.7402; stroke-opacity:1; 
stroke-linecap:round; stroke-linejoin:round;">
</g>
<g style="fill:#000000; fill-opacity:1.0; 
stroke:#000000; stroke-width:0; stroke-opacity:1; 
stroke-linecap:round; stroke-linejoin:round;">
<circle cx="14640.5" cy="4718.11" r="423.24" /> 
</g>
<g style="fill:#000000; fill-opacity:1.0; 
stroke:#000000; stroke-width:78.7402; stroke-opacity:1; 
stroke-linecap:round; stroke-linejoin:round;">
</g>
<g style="fill:#000000; fill-opacity:1.0; 
stroke:#000000; stroke-width:0; stroke-opacity:1; 
stroke-linecap:round; stroke-linejoin:round;">
<circle cx="26140.5" cy="4968.11" r="423.24" /> 
</g>
<g style="fill:#000000; fill-opacity:1.0; 
stroke:#000000; stroke-width:78.7402; stroke-opacity:1; 
stroke-linecap:round; stroke-linejoin:round;">
</g>
<g style="fill:#000000; fill-opacity:1.0; 
stroke:#000000; stroke-width:0; stroke-opacity:1; 
stroke-linecap:round; stroke-linejoin:round;">
<circle cx="27140.5" cy="5718.11" r="423.24" /> 
</g>
<g style="fill:#000000; fill-opacity:1.0; 
stroke:#000000; stroke-width:78.7402; stroke-opacity:1; 
stroke-linecap:round; stroke-linejoin:round;">
</g>
<g style="fill:#000000; fill-opacity:1.0; 
stroke:#000000; stroke-width:0; stroke-opacity:1; 
stroke-linecap:round; stroke-linejoin:round;">
<circle cx="26140.5" cy="6468.11" r="423.24" /> 
</g>
<g style="fill:#000000; fill-opacity:1.0; 
stroke:#000000; stroke-width:78.7402; stroke-opacity:1; 
stroke-linecap:round; stroke-linejoin:round;">
</g>
<g style="fill:#000000; fill-opacity:1.0; 
stroke:#000000; stroke-width:0; stroke-opacity:1; 
stroke-linecap:round; stroke-linejoin:round;">
<polyline style="fill-rule:evenodd;"
points="9019,2979
9019,1956
8261,1956
8261,2979
9019,2979
" /> 
</g>
<g style="fill:#000000; fill-opacity:1.0; 
stroke:#000000; stroke-width:757.48; stroke-opacity:1; 
stroke-linecap:round; stroke-linejoin:round;">
</g>
<g style="fill:#000000; fill-opacity:0.0; 
stroke:#000000; stroke-width:757.48; stroke-opacity:1; 
stroke-linecap:round; stroke-linejoin:round;">
<path d="M7640 2335
L7640 2601
" />
</g>
<g style="fill:#000000; fill-opacity:0.0; 
stroke:#000000; stroke-width:0; stroke-opacity:1; 
stroke-linecap:round; stroke-linejoin:round;">
</g>
<g style="fill:#000000; fill-opacity:1.0; 
stroke:#000000; stroke-width:0; stroke-opacity:1; 
stroke-linecap:round; stroke-linejoin:round;">
<polyline style="fill-rule:evenodd;"
points="28628,4846
29652,4846
29652,4089
28628,4089
28628,4846
" /> 
</g>
<g style="fill:#000000; fill-opacity:1.0; 
stroke:#000000; stroke-width:757.48; stroke-opacity:1; 
stroke-linecap:round; stroke-linejoin:round;">
</g>
<g style="fill:#000000; fill-opacity:0.0; 
stroke:#000000; stroke-width:757.48; stroke-opacity:1; 
stroke-linecap:round; stroke-linejoin:round;">
<path d="M29273 3468
L29007 3468
" />
</g>
<g style="fill:#000000; fill-opacity:0.0; 
stroke:#000000; stroke-width:0; stroke-opacity:1; 
stroke-linecap:round; stroke-linejoin:round;">
</g>
<g style="fill:#000000; fill-opacity:1.0; 
stroke:#000000; stroke-width:0; stroke-opacity:1; 
stroke-linecap:round; stroke-linejoin:round;">
<polyline style="fill-rule:evenodd;"
points="18512,10651
18512,9785
17843,9785
17843,10651
18512,10651
" /> 
</g>
<g style="fill:#000000; fill-opacity:1.0; 
stroke:#000000; stroke-width:669.291; stroke-opacity:1; 
stroke-linecap:round; stroke-linejoin:round;">
</g>
<g style="fill:#000000; fill-opacity:0.0; 
stroke:#000000; stroke-width:669.291; stroke-opacity:1; 
stroke-linecap:round; stroke-linejoin:round;">
<path d="M17390 10119
L17390 10316
" />
<path d="M16603 10119
L16603 10316
" />
</g>
<g style="fill:#000000; fill-opacity:0.0; 
stroke:#000000; stroke-width:0; stroke-opacity:1; 
stroke-linecap:round; stroke-linejoin:round;">
</g>
<g style="fill:#000000; fill-opacity:1.0; 
stroke:#000000; stroke-width:0; stroke-opacity:1; 
stroke-linecap:round; stroke-linejoin:round;">
<polyline style="fill-rule:evenodd;"
points="19018,9785
19018,10651
19687,10651
19687,9785
19018,9785
" /> 
</g>
<g style="fill:#000000; fill-opacity:1.0; 
stroke:#000000; stroke-width:669.291; stroke-opacity:1; 
stroke-linecap:round; stroke-linejoin:round;">
</g>
<g style="fill:#000000; fill-opacity:0.0; 
stroke:#000000; stroke-width:669.291; stroke-opacity:1; 
stroke-linecap:round; stroke-linejoin:round;">
<path d="M20140 10316
L20140 10119
" />
<path d="M20927 10316
L20927 10119
" />
</g>
<g style="fill:#000000; fill-opacity:0.0; 
stroke:#000000; stroke-width:757.48; stroke-opacity:1; 
stroke-linecap:round; stroke-linejoin:round;">
<path d="M28140 8335
L28140 8601
" />
<path d="M27140 8335
L27140 8601
" />
<path d="M26140 8335
L26140 8601
" />
<path d="M25140 8335
L25140 8601
" />
<path d="M24140 8335
L24140 8601
" />
<path d="M23140 8335
L23140 8601
" />
<path d="M22140 8335
L22140 8601
" />
<path d="M21140 8335
L21140 8601
" />
<path d="M20140 8335
L20140 8601
" />
<path d="M19140 8335
L19140 8601
" />
<path d="M18140 8335
L18140 8601
" />
<path d="M17140 8335
L17140 8601
" />
<path d="M16140 8335
L16140 8601
" />
<path d="M15140 8335
L15140 8601
" />
<path d="M14140 8335
L14140 8601
" />
<path d="M14140 2335
L14140 2601
" />
<path d="M15140 2335
L15140 2601
" />
<path d="M16140 2335
L16140 2601
" />
<path d="M17140 2335
L17140 2601
" />
<path d="M18140 2335
L18140 2600
" />
<path d="M19140 2335
L19140 2600
" />
<path d="M20140 2335
L20140 2600
" />
<path d="M21140 2335
L21140 2600
" />
<path d="M22140 2335
L22140 2600
" />
<path d="M23140 2335
L23140 2600
" />
<path d="M24140 2335
L24140 2600
" />
<path d="M25140 2335
L25140 2600
" />
<path d="M26140 2335
L26140 2600
" />
<path d="M27140 2335
L27140 2600
" />
<path d="M28140 2335
L28140 2600
" />
</g>
<g style="fill:#000000; fill-opacity:0.0; 
stroke:#000000; stroke-width:0; stroke-opacity:1; 
stroke-linecap:round; stroke-linejoin:round;">
</g>
<g style="fill:#000000; fill-opacity:1.0; 
stroke:#000000; stroke-width:0; stroke-opacity:1; 
stroke-linecap:round; stroke-linejoin:round;">
<polyline style="fill-rule:evenodd;"
points="7261,9456
7261,10479
8019,10479
8019,9456
7261,9456
" /> 
</g>
<g style="fill:#000000; fill-opacity:1.0; 
stroke:#000000; stroke-width:757.48; stroke-opacity:1; 
stroke-linecap:round; stroke-linejoin:round;">
</g>
<g style="fill:#000000; fill-opacity:0.0; 
stroke:#000000; stroke-width:757.48; stroke-opacity:1; 
stroke-linecap:round; stroke-linejoin:round;">
<path d="M8640 10101
L8640 9835
" />
<path d="M9640 10101
L9640 9835
" />
<path d="M10640 10101
L10640 9835
" />
<path d="M11640 10101
L11640 9835
" />
<path d="M12640 10101
L12640 9835
" />
</g>
<g style="fill:#000000; fill-opacity:0.0; 
stroke:#000000; stroke-width:0; stroke-opacity:1; 
stroke-linecap:round; stroke-linejoin:round;">
</g>
<g style="fill:#000000; fill-opacity:1.0; 
stroke:#000000; stroke-width:0; stroke-opacity:1; 
stroke-linecap:round; stroke-linejoin:round;">
<polyline style="fill-rule:evenodd;"
points="29519,10479
29519,9456
28761,9456
28761,10479
29519,10479
" /> 
</g>
<g style="fill:#000000; fill-opacity:1.0; 
stroke:#000000; stroke-width:757.48; stroke-opacity:1; 
stroke-linecap:round; stroke-linejoin:round;">
</g>
<g style="fill:#000000; fill-opacity:0.0; 
stroke:#000000; stroke-width:757.48; stroke-opacity:1; 
stroke-linecap:round; stroke-linejoin:round;">
<path d="M28140 9835
L28140 10101
" />
</g>
<g style="fill:#000000; fill-opacity:0.0; 
stroke:#000000; stroke-width:0; stroke-opacity:1; 
stroke-linecap:round; stroke-linejoin:round;">
</g>
<g style="fill:#000000; fill-opacity:1.0; 
stroke:#000000; stroke-width:0; stroke-opacity:1; 
stroke-linecap:round; stroke-linejoin:round;">
<polyline style="fill-rule:evenodd;"
points="24261,9456
24261,10479
25019,10479
25019,9456
24261,9456
" /> 
</g>
<g style="fill:#000000; fill-opacity:1.0; 
stroke:#000000; stroke-width:757.48; stroke-opacity:1; 
stroke-linecap:round; stroke-linejoin:round;">
</g>
<g style="fill:#000000; fill-opacity:0.0; 
stroke:#000000; stroke-width:757.48; stroke-opacity:1; 
stroke-linecap:round; stroke-linejoin:round;">
<path d="M25640 10101
L25640 9835
" />
<path d="M26640 10101
L26640 9835
" />
</g>
<g style="fill:#000000; fill-opacity:0.0; 
stroke:#000000; stroke-width:0; stroke-opacity:1; 
stroke-linecap:round; stroke-linejoin:round;">
</g>
<g style="fill:#000000; fill-opacity:1.0; 
stroke:#000000; stroke-width:0; stroke-opacity:1; 
stroke-linecap:round; stroke-linejoin:round;">
<polyline style="fill-rule:evenodd;"
points="12019,7479
12019,6456
11261,6456
11261,7479
12019,7479
" /> 
</g>
<g style="fill:#000000; fill-opacity:1.0; 
stroke:#000000; stroke-width:757.48; stroke-opacity:1; 
stroke-linecap:round; stroke-linejoin:round;">
</g>
<g style="fill:#000000; fill-opacity:0.0; 
stroke:#000000; stroke-width:757.48; stroke-opacity:1; 
stroke-linecap:round; stroke-linejoin:round;">
<path d="M10640 6835
L10640 7101
" />
<path d="M9640 6835
L9640 7101
" />
<path d="M8640 6835
L8640 7101
" />
<path d="M7640 6835
L7640 7101
" />
</g>
<g style="fill:#000000; fill-opacity:0.0; 
stroke:#000000; stroke-width:0; stroke-opacity:1; 
stroke-linecap:round; stroke-linejoin:round;">
</g>
<g style="fill:#000000; fill-opacity:1.0; 
stroke:#000000; stroke-width:0; stroke-opacity:1; 
stroke-linecap:round; stroke-linejoin:round;">
<polyline style="fill-rule:evenodd;"
points="12019,8979
12019,7956
11261,7956
11261,8979
12019,8979
" /> 
</g>
<g style="fill:#000000; fill-opacity:1.0; 
stroke:#000000; stroke-width:757.48; stroke-opacity:1; 
stroke-linecap:round; stroke-linejoin:round;">
</g>
<g style="fill:#000000; fill-opacity:0.0; 
stroke:#000000; stroke-width:757.48; stroke-opacity:1; 
stroke-linecap:round; stroke-linejoin:round;">
<path d="M10640 8335
L10640 8601
" />
<path d="M9640 8335
L9640 8601
" />
<path d="M8640 8335
L8640 8601
" />
<path d="M7640 8335
L7640 8601
" />
</g>
<g style="fill:#000000; fill-opacity:0.0; 
stroke:#000000; stroke-width:150; stroke-opacity:1; 
stroke-linecap:round; stroke-linejoin:round;">
<path d="M24640 4968
L24640 5968
" />
<path d="M16240 6768
L25040 6768
" />
<path d="M25040 4168
L16240 4168
" />
<path d="M24640 5968
L25040 5968
" />
<path d="M24640 4968
L25040 4968
" />
<path d="M16240 4168
L16240 6768
" />
<path d="M25040 6768
L25040 4168
" />
<path d="M14390 6468
L14390 4468
" />
<path d="M14390 6468
L14890 6218
" />
<path d="M14890 6218
L14890 4718
" />
<path d="M14890 4718
L14390 4468
" />
<path d="M13390.5 5468.11 A1000 1000 0.0 0 0 14390.5 6468.11 " />
<path d="M14390.5 4468.11 A1000 1000 0.0 0 0 13390.5 5468.11 " />
<path d="M26390 4718
L26390 6718
" />
<path d="M26390 4718
L25890 4968
" />
<path d="M25890 4968
L25890 6468
" />
<path d="M25890 6468
L26390 6718
" />
<path d="M27390.5 5718.11 A1000 1000 0.0 0 0 26390.5 4718.11 " />
<path d="M26390.5 6718.11 A1000 1000 0.0 0 0 27390.5 5718.11 " />
</g>
<g style="fill:#000000; fill-opacity:0.0; 
stroke:#000000; stroke-width:120; stroke-opacity:1; 
stroke-linecap:round; stroke-linejoin:round;">
<path d="M9140 2968
L8140 1968
" />
<path d="M7140 2968
L9140 2968
" />
<path d="M9140 1968
L7140 1968
" />
<path d="M9140 2968
L9140 1968
" />
<path d="M7140 1968
L7140 2968
" />
<path d="M28640 4968
L29640 3968
" />
<path d="M28640 2968
L28640 4968
" />
<path d="M29640 4968
L29640 2968
" />
<path d="M28640 4968
L29640 4968
" />
<path d="M29640 2968
L28640 2968
" />
<path d="M16209 9824
L16209 10611
" />
<path d="M16209 10611
L18571 10611
" />
<path d="M18571 9824
L16209 9824
" />
<path d="M18571 10611
L18571 9824
" />
<path d="M17784 9824
L17784 10611
" />
</g>
<g style="fill:#000000; fill-opacity:0.0; 
stroke:#000000; stroke-width:100; stroke-opacity:1; 
stroke-linecap:round; stroke-linejoin:round;">
<path d="M30140 6018
L30140 7918
" />
<path d="M31090 6968
L29190 6968
" />
<circle cx="30140.5" cy="6968.11" r="800" /> 
<path d="M10390 2018
L10390 3918
" />
<path d="M11340 2968
L9440 2968
" />
<circle cx="10390.5" cy="2968.11" r="800" /> 
</g>
<g style="fill:#000000; fill-opacity:0.0; 
stroke:#000000; stroke-width:120; stroke-opacity:1; 
stroke-linecap:round; stroke-linejoin:round;">
<path d="M21321 10611
L21321 9824
" />
<path d="M21321 9824
L18959 9824
" />
<path d="M18959 10611
L21321 10611
" />
<path d="M18959 9824
L18959 10611
" />
<path d="M19746 10611
L19746 9824
" />
</g>
<g style="fill:#000000; fill-opacity:0.0; 
stroke:#000000; stroke-width:150; stroke-opacity:1; 
stroke-linecap:round; stroke-linejoin:round;">
<path d="M27640 4968
L29640 4968
" />
<path d="M27640 5968
L29640 5968
" />
<path d="M28640 3968
L28640 6968
" />
<path d="M29640 3968
L27640 3968
" />
<path d="M27640 3968
L27640 6968
" />
<path d="M27640 6968
L29640 6968
" />
<path d="M12640 1968
L29640 1968
" />
<path d="M29640 8968
L12640 8968
" />
<path d="M29640 8968
L29640 1968
" />
<path d="M12640 8968
L12640 1968
" />
<circle cx="29140.5" cy="2468.11" r="500" /> 
<circle cx="29140.5" cy="8468.11" r="500" /> 
<circle cx="13140.5" cy="2468.11" r="500" /> 
<circle cx="13140.5" cy="8468.11" r="500" /> 
<path d="M13640 2968
L28640 2968
" />
<path d="M28640 7968
L13640 7968
" />
<path d="M13640 8968
L13640 7968
" />
<path d="M13640 2968
L13640 1968
" />
<path d="M28640 1968
L28640 2968
" />
<path d="M28640 8968
L28640 7968
" />
</g>
<g style="fill:#000000; fill-opacity:0.0; 
stroke:#000000; stroke-width:120; stroke-opacity:1; 
stroke-linecap:round; stroke-linejoin:round;">
<path d="M8140 10468
L8140 9468
" />
<path d="M7140 9468
L7140 10468
" />
<path d="M7140 10468
L13140 10468
" />
<path d="M13140 10468
L13140 9468
" />
<path d="M13140 9468
L7140 9468
" />
<path d="M29640 10468
L28640 9468
" />
<path d="M27640 10468
L29640 10468
" />
<path d="M29640 9468
L27640 9468
" />
<path d="M29640 10468
L29640 9468
" />
<path d="M27640 9468
L27640 10468
" />
<path d="M25140 9468
L25140 10468
" />
<path d="M24140 10468
L27140 10468
" />
<path d="M27140 10468
L27140 9468
" />
<path d="M27140 9468
L24140 9468
" />
<path d="M24140 9468
L24140 10468
" />
<path d="M11140 6468
L11140 7468
" />
<path d="M7140 7468
L12140 7468
" />
<path d="M12140 6468
L7140 6468
" />
<path d="M12140 7468
L12140 6468
" />
<path d="M7140 6468
L7140 7468
" />
<path d="M11140 7968
L11140 8968
" />
<path d="M7140 8968
L12140 8968
" />
<path d="M12140 7968
L7140 7968
" />
<path d="M12140 8968
L12140 7968
" />
<path d="M7140 7968
L7140 8968
" />
</g>
<g style="fill:#000000; fill-opacity:0.0; 
stroke:#000000; stroke-width:113; stroke-opacity:1; 
stroke-linecap:round; stroke-linejoin:round;">
</g>
<g style="fill:#000000; fill-opacity:0.0; 
stroke:#000000; stroke-width:112.5; stroke-opacity:1; 
stroke-linecap:round; stroke-linejoin:round;">
<path d="M21369 8339
L21583 8339
L21583 7739
" />
<path d="M21240 7796
L21219 7768
L21176 7739
L21069 7739
L21026 7768
L21004 7796
L20983 7853
L20983 7910
L21004 7996
L21261 8339
L20983 8339
" />
<path d="M20769 8339
L20683 8339
L20640 8310
L20619 8282
L20576 8196
L20554 8082
L20554 7853
L20576 7796
L20597 7768
L20640 7739
L20726 7739
L20769 7768
L20790 7796
L20811 7853
L20811 7996
L20790 8053
L20769 8082
L20726 8110
L20640 8110
L20597 8082
L20576 8053
L20554 7996
" />
<path d="M20404 7739
L20126 7739
L20276 7968
L20211 7968
L20169 7996
L20147 8025
L20126 8082
L20126 8225
L20147 8282
L20169 8310
L20211 8339
L20340 8339
L20383 8310
L20404 8282
" />
<path d="M19933 8339
L19933 7739
L19826 7739
L19761 7768
L19719 7825
L19697 7882
L19676 7996
L19676 8082
L19697 8196
L19719 8253
L19761 8310
L19826 8339
L19933 8339
" />
</g>
<g style="fill:#000000; fill-opacity:0.0; 
stroke:#000000; stroke-width:113; stroke-opacity:1; 
stroke-linecap:round; stroke-linejoin:round;">
</g>
<g style="fill:#000000; fill-opacity:0.0; 
stroke:#000000; stroke-width:80; stroke-opacity:1; 
stroke-linecap:round; stroke-linejoin:round;">
<path d="M29459 5763
L29859 5763
L29859 5610
L29840 5572
L29821 5553
L29783 5534
L29726 5534
L29688 5553
L29669 5572
L29649 5610
L29649 5763
" />
<path d="M29726 5191
L29459 5191
" />
<path d="M29878 5287
L29592 5382
L29592 5134
" />
<path d="M28359 4651
L28359 4584
L28340 4551
L28302 4518
L28226 4501
L28092 4501
L28016 4518
L27978 4551
L27959 4584
L27959 4651
L27978 4684
L28016 4718
L28092 4734
L28226 4734
L28302 4718
L28340 4684
L28359 4651
" />
<path d="M28359 4351
L28035 4351
L27997 4334
L27978 4318
L27959 4284
L27959 4218
L27978 4184
L27997 4168
L28035 4151
L28359 4151
" />
<path d="M28359 4034
L28359 3834
" />
<path d="M27959 3934
L28359 3934
" />
<path d="M28359 3751
L28359 3534
L28207 3651
L28207 3601
L28188 3568
L28169 3551
L28130 3534
L28035 3534
L27997 3551
L27978 3568
L27959 3601
L27959 3701
L27978 3734
L27997 3751
" />
<path d="M28226 3234
L27959 3234
" />
<path d="M28378 3318
L28092 3401
L28092 3184
" />
<path d="M17685 9549
L17685 9149
L17533 9149
L17495 9168
L17476 9187
L17457 9225
L17457 9282
L17476 9320
L17495 9339
L17533 9358
L17685 9358
" />
<path d="M17095 9149
L17285 9149
L17304 9339
L17285 9320
L17247 9301
L17152 9301
L17114 9320
L17095 9339
L17076 9377
L17076 9472
L17095 9510
L17114 9530
L17152 9549
L17247 9549
L17285 9530
L17304 9510
" />
</g>
<g style="fill:#000000; fill-opacity:0.0; 
stroke:#000000; stroke-width:120; stroke-opacity:1; 
stroke-linecap:round; stroke-linejoin:round;">
<path d="M30583 5839
L30583 5239
L30354 5239
L30297 5268
L30269 5296
L30240 5353
L30240 5439
L30269 5496
L30297 5525
L30354 5553
L30583 5553
" />
<path d="M29726 5239
L29840 5239
L29897 5268
L29926 5296
L29983 5382
L30011 5496
L30011 5725
L29983 5782
L29954 5810
L29897 5839
L29783 5839
L29726 5810
L29697 5782
L29669 5725
L29669 5582
L29697 5525
L29726 5496
L29783 5468
L29897 5468
L29954 5496
L29983 5525
L30011 5582
" />
</g>
<g style="fill:#000000; fill-opacity:0.0; 
stroke:#000000; stroke-width:80; stroke-opacity:1; 
stroke-linecap:round; stroke-linejoin:round;">
<path d="M21935 9649
L21935 9249
L21783 9249
L21745 9268
L21726 9287
L21707 9325
L21707 9382
L21726 9420
L21745 9439
L21783 9458
L21935 9458
" />
<path d="M21478 9420
L21516 9401
L21535 9382
L21554 9344
L21554 9325
L21535 9287
L21516 9268
L21478 9249
L21402 9249
L21364 9268
L21345 9287
L21326 9325
L21326 9344
L21345 9382
L21364 9401
L21402 9420
L21478 9420
L21516 9439
L21535 9458
L21554 9496
L21554 9572
L21535 9610
L21516 9630
L21478 9649
L21402 9649
L21364 9630
L21345 9610
L21326 9572
L21326 9496
L21345 9458
L21364 9439
L21402 9420
" />
<path d="M21140 9649
L21140 9249
" />
<path d="M21140 9439
L20940 9439
" />
<path d="M20940 9649
L20940 9249
" />
<path d="M20790 9534
L20623 9534
" />
<path d="M20823 9649
L20707 9249
L20590 9649
" />
<path d="M20307 9649
L20473 9649
L20473 9249
" />
<path d="M20023 9649
L20190 9649
L20190 9249
" />
<path d="M19990 9687
L19723 9687
" />
<path d="M19573 9249
L19540 9249
L19507 9268
L19490 9287
L19473 9325
L19457 9401
L19457 9496
L19473 9572
L19490 9610
L19507 9630
L19540 9649
L19573 9649
L19607 9630
L19623 9610
L19640 9572
L19657 9496
L19657 9401
L19640 9325
L19623 9287
L19607 9268
L19573 9249
" />
<path d="M19323 9287
L19307 9268
L19273 9249
L19190 9249
L19157 9268
L19140 9287
L19123 9325
L19123 9363
L19140 9420
L19340 9649
L19123 9649
" />
<path d="M10435 10999
L10435 10599
L10283 10599
L10245 10618
L10226 10637
L10207 10675
L10207 10732
L10226 10770
L10245 10789
L10283 10808
L10435 10808
" />
<path d="M10054 10637
L10035 10618
L9997 10599
L9902 10599
L9864 10618
L9845 10637
L9826 10675
L9826 10713
L9845 10770
L10073 10999
L9826 10999
" />
<path d="M27435 9649
L27435 9249
L27283 9249
L27245 9268
L27226 9287
L27207 9325
L27207 9382
L27226 9420
L27245 9439
L27283 9458
L27435 9458
" />
<path d="M27016 9649
L26940 9649
L26902 9630
L26883 9610
L26845 9553
L26826 9477
L26826 9325
L26845 9287
L26864 9268
L26902 9249
L26978 9249
L27016 9268
L27035 9287
L27054 9325
L27054 9420
L27035 9458
L27016 9477
L26978 9496
L26902 9496
L26864 9477
L26845 9458
L26826 9420
" />
<path d="M26126 10999
L26126 10599
L25973 10599
L25935 10618
L25916 10637
L25897 10675
L25897 10732
L25916 10770
L25935 10789
L25973 10808
L26126 10808
" />
<path d="M25516 10999
L25745 10999
" />
<path d="M25630 10999
L25630 10599
L25669 10656
L25707 10694
L25745 10713
" />
<path d="M25269 10599
L25230 10599
L25192 10618
L25173 10637
L25154 10675
L25135 10751
L25135 10846
L25154 10922
L25173 10960
L25192 10980
L25230 10999
L25269 10999
L25307 10980
L25326 10960
L25345 10922
L25364 10846
L25364 10751
L25345 10675
L25326 10637
L25307 10618
L25269 10599
" />
<path d="M9935 6299
L9935 5899
L9783 5899
L9745 5918
L9726 5937
L9707 5975
L9707 6032
L9726 6070
L9745 6089
L9783 6108
L9935 6108
" />
<path d="M9573 5899
L9326 5899
L9459 6051
L9402 6051
L9364 6070
L9345 6089
L9326 6127
L9326 6222
L9345 6260
L9364 6280
L9402 6299
L9516 6299
L9554 6280
L9573 6260
" />
<path d="M10126 7799
L10126 7399
L9973 7399
L9935 7418
L9916 7437
L9897 7475
L9897 7532
L9916 7570
L9935 7589
L9973 7608
L10126 7608
" />
<path d="M9516 7799
L9745 7799
" />
<path d="M9630 7799
L9630 7399
L9669 7456
L9707 7494
L9745 7513
" />
<path d="M9135 7799
L9364 7799
" />
<path d="M9249 7799
L9249 7399
L9288 7456
L9326 7494
L9364 7513
" />
</g>
<g style="fill:#000000; fill-opacity:0.0; 
stroke:#000000; stroke-width:59.0551; stroke-opacity:1; 
stroke-linecap:round; stroke-linejoin:round;">
<path d="M31640 10968
L30140 10968
" />
<path d="M30140 1468
L31640 1468
" />
<path d="M31640 1468
L31640 10968
" />
<path d="M6640 1468
L30140 1468
" />
<path d="M6640 1468
L6640 10968
" />
<path d="M30140 10968
L6640 10968
" />
</g> 
</svg>
