G04 #@! TF.FileFunction,Copper,L2,Bot,Signal*
%FSLAX46Y46*%
G04 Gerber Fmt 4.6, Leading zero omitted, Abs format (unit mm)*
G04 Created by KiCad (PCBNEW 0.201508080901+6071~28~ubuntu14.04.1-product) date lun 10 ago 2015 21:40:22 CEST*
%MOMM*%
G01*
G04 APERTURE LIST*
%ADD10C,0.200000*%
%ADD11O,1.501140X2.199640*%
%ADD12C,1.750060*%
%ADD13R,1.300480X1.498600*%
%ADD14R,1.524000X2.199640*%
%ADD15O,1.524000X2.199640*%
%ADD16R,2.199640X1.524000*%
%ADD17O,2.199640X1.524000*%
%ADD18R,1.300000X1.800000*%
%ADD19O,1.300000X1.800000*%
%ADD20C,3.500120*%
%ADD21O,1.524000X2.197100*%
%ADD22R,0.850900X0.850900*%
%ADD23R,1.498600X1.300480*%
%ADD24C,0.600000*%
%ADD25C,0.500000*%
%ADD26C,0.250000*%
G04 APERTURE END LIST*
D10*
D11*
X106680000Y-77470000D03*
X109220000Y-77470000D03*
X111760000Y-77470000D03*
X114300000Y-77470000D03*
X116840000Y-77470000D03*
X119380000Y-77470000D03*
X121920000Y-77470000D03*
X124460000Y-77470000D03*
X124460000Y-69850000D03*
X121920000Y-69850000D03*
X119380000Y-69850000D03*
X116840000Y-69850000D03*
X114300000Y-69850000D03*
X111760000Y-69850000D03*
X109220000Y-69850000D03*
X106680000Y-69850000D03*
D12*
X130810000Y-75565000D03*
X133350000Y-73660000D03*
X130810000Y-71755000D03*
X101600000Y-72390000D03*
X99060000Y-74295000D03*
X101600000Y-76200000D03*
D13*
X133032500Y-78105000D03*
X131127500Y-78105000D03*
X130365500Y-69088000D03*
X132270500Y-69088000D03*
X124142500Y-73660000D03*
X122237500Y-73660000D03*
X103187500Y-69850000D03*
X101282500Y-69850000D03*
D14*
X146050000Y-66040000D03*
D15*
X148590000Y-66040000D03*
D16*
X93980000Y-71120000D03*
D17*
X93980000Y-68580000D03*
D18*
X121825000Y-85725000D03*
D19*
X123825000Y-85725000D03*
X125825000Y-85725000D03*
D20*
X91440000Y-77470000D03*
X141605000Y-67310000D03*
D18*
X118840000Y-85725000D03*
D19*
X116840000Y-85725000D03*
X114840000Y-85725000D03*
D15*
X96520000Y-81280000D03*
X99060000Y-81280000D03*
X101600000Y-81280000D03*
X104140000Y-81280000D03*
X106680000Y-81280000D03*
X109220000Y-81280000D03*
X111760000Y-81280000D03*
X114300000Y-81280000D03*
X116840000Y-81280000D03*
X119380000Y-81280000D03*
X121920000Y-81280000D03*
X124460000Y-81280000D03*
X127000000Y-81280000D03*
X129540000Y-81280000D03*
X132080000Y-81280000D03*
X132080000Y-66040000D03*
X129540000Y-66040000D03*
X127000000Y-66040000D03*
X124460000Y-66040000D03*
D21*
X121920000Y-66040000D03*
X119380000Y-66040000D03*
X116840000Y-66040000D03*
X114300000Y-66040000D03*
X111760000Y-66040000D03*
X109220000Y-66040000D03*
X106680000Y-66040000D03*
X104140000Y-66040000D03*
X101600000Y-66040000D03*
X99060000Y-66040000D03*
X96520000Y-66040000D03*
D14*
X148590000Y-85090000D03*
D15*
X146050000Y-85090000D03*
X143510000Y-85090000D03*
X140970000Y-85090000D03*
X138430000Y-85090000D03*
X135890000Y-85090000D03*
D14*
X93980000Y-85090000D03*
D15*
X96520000Y-85090000D03*
D22*
X142643860Y-70104000D03*
X139296140Y-70104000D03*
X145392140Y-70104000D03*
X148739860Y-70104000D03*
X108816140Y-85725000D03*
X112163860Y-85725000D03*
X145392140Y-73406000D03*
X148739860Y-73406000D03*
X90424000Y-65636140D03*
X90424000Y-68983860D03*
X90170000Y-85239860D03*
X90170000Y-81892140D03*
X139296140Y-73406000D03*
X142643860Y-73406000D03*
X135636000Y-81175860D03*
X135636000Y-77828140D03*
D14*
X105410000Y-85090000D03*
D15*
X102870000Y-85090000D03*
X100330000Y-85090000D03*
D14*
X138430000Y-77470000D03*
D15*
X140970000Y-77470000D03*
X143510000Y-77470000D03*
X146050000Y-77470000D03*
X148590000Y-77470000D03*
D14*
X138430000Y-81280000D03*
D15*
X140970000Y-81280000D03*
X143510000Y-81280000D03*
X146050000Y-81280000D03*
X148590000Y-81280000D03*
D23*
X96266000Y-76263500D03*
X96266000Y-78168500D03*
X127762000Y-77660500D03*
X127762000Y-75755500D03*
D24*
X131053200Y-73619400D03*
X94221700Y-82248000D03*
X98298500Y-72347900D03*
X103995800Y-83058900D03*
X98781800Y-64307800D03*
X94154100Y-64658400D03*
X132030700Y-76738900D03*
X122327500Y-75630900D03*
X141668100Y-72245000D03*
X97957400Y-67552000D03*
X135184000Y-74961300D03*
X98578000Y-77317100D03*
X138859600Y-74863000D03*
X136290700Y-76702600D03*
X126511800Y-78579400D03*
X128925100Y-71102400D03*
X118373200Y-73271900D03*
X125430200Y-72602700D03*
X139488600Y-86684800D03*
X120306000Y-85126100D03*
X106721800Y-73028500D03*
D25*
X147301800Y-67690100D02*
X146050000Y-67690100D01*
X148739900Y-69128200D02*
X147301800Y-67690100D01*
X148739900Y-70104000D02*
X148739900Y-69128200D01*
X146050000Y-66040000D02*
X146050000Y-67690100D01*
X140938900Y-70104000D02*
X142643900Y-70104000D01*
X139963100Y-69128200D02*
X140938900Y-70104000D01*
X135544400Y-69128200D02*
X139963100Y-69128200D01*
X131053200Y-73619400D02*
X135544400Y-69128200D01*
X146033600Y-67690100D02*
X146050000Y-67690100D01*
X143619700Y-70104000D02*
X146033600Y-67690100D01*
X142643900Y-70104000D02*
X143619700Y-70104000D01*
D26*
X104140000Y-66040000D02*
X104140000Y-67463900D01*
X106680000Y-69850000D02*
X106680000Y-68424800D01*
X123213100Y-71656000D02*
X124142500Y-72585400D01*
X123213100Y-69244800D02*
X123213100Y-71656000D01*
X121799500Y-67831200D02*
X123213100Y-69244800D01*
X106680000Y-67831200D02*
X121799500Y-67831200D01*
X106312700Y-67463900D02*
X106680000Y-67831200D01*
X104140000Y-67463900D02*
X106312700Y-67463900D01*
X106680000Y-67831200D02*
X106680000Y-68424800D01*
X124142500Y-73660000D02*
X124142500Y-72585400D01*
X130365500Y-69088000D02*
X129390000Y-69088000D01*
X124142500Y-73660000D02*
X125118000Y-73660000D01*
X127422600Y-71055400D02*
X129390000Y-69088000D01*
X127422600Y-71494700D02*
X127422600Y-71055400D01*
X125257300Y-73660000D02*
X127422600Y-71494700D01*
X125118000Y-73660000D02*
X125257300Y-73660000D01*
X94221700Y-76424700D02*
X94221700Y-82248000D01*
X98298500Y-72347900D02*
X94221700Y-76424700D01*
D25*
X145392100Y-70104000D02*
X145392100Y-73406000D01*
X127762000Y-75755500D02*
X127762000Y-74555000D01*
X130562000Y-71755000D02*
X127762000Y-74555000D01*
X130810000Y-71755000D02*
X130562000Y-71755000D01*
X116840000Y-77470000D02*
X114300000Y-77470000D01*
X138430000Y-81280000D02*
X137117700Y-81280000D01*
X141518300Y-74381700D02*
X138430000Y-77470000D01*
X143440600Y-74381700D02*
X141518300Y-74381700D01*
X144416300Y-73406000D02*
X143440600Y-74381700D01*
X145392100Y-73406000D02*
X144416300Y-73406000D01*
X146727100Y-73406000D02*
X145392100Y-73406000D01*
X149902300Y-76581200D02*
X146727100Y-73406000D01*
X149902300Y-85090000D02*
X149902300Y-76581200D01*
X148590000Y-85090000D02*
X149902300Y-85090000D01*
X99631500Y-78168500D02*
X96266000Y-78168500D01*
X101600000Y-76200000D02*
X99631500Y-78168500D01*
X96266000Y-78168500D02*
X96266000Y-79369000D01*
X92517800Y-85239900D02*
X92667700Y-85090000D01*
X90170000Y-85239900D02*
X92517800Y-85239900D01*
X93980000Y-85090000D02*
X92667700Y-85090000D01*
X96191000Y-79369000D02*
X96266000Y-79369000D01*
X95072000Y-80488000D02*
X96191000Y-79369000D01*
X95072000Y-82621000D02*
X95072000Y-80488000D01*
X94253100Y-83439900D02*
X95072000Y-82621000D01*
X93980000Y-83439900D02*
X94253100Y-83439900D01*
X93980000Y-85090000D02*
X93980000Y-83439900D01*
X145851900Y-85090000D02*
X146050000Y-85090000D01*
X143732600Y-82970700D02*
X145851900Y-85090000D01*
X140120700Y-82970700D02*
X143732600Y-82970700D01*
X138430000Y-81280000D02*
X140120700Y-82970700D01*
X116840000Y-85725000D02*
X116840000Y-84274700D01*
X123825000Y-85725000D02*
X123825000Y-84274700D01*
X123825000Y-84274700D02*
X116840000Y-84274700D01*
X137013600Y-81175900D02*
X135636000Y-81175900D01*
X137117700Y-81280000D02*
X137013600Y-81175900D01*
X131561400Y-84274700D02*
X123825000Y-84274700D01*
X134660200Y-81175900D02*
X131561400Y-84274700D01*
X135636000Y-81175900D02*
X134660200Y-81175900D01*
X108816100Y-85725000D02*
X107840300Y-85725000D01*
X107840300Y-84871200D02*
X107840300Y-85725000D01*
X106385400Y-83416300D02*
X107840300Y-84871200D01*
X104353200Y-83416300D02*
X106385400Y-83416300D01*
X103995800Y-83058900D02*
X104353200Y-83416300D01*
X94504700Y-64307800D02*
X98781800Y-64307800D01*
X94154100Y-64658400D02*
X94504700Y-64307800D01*
X149715600Y-67165600D02*
X148590000Y-66040000D01*
X149715600Y-73406000D02*
X149715600Y-67165600D01*
X148739900Y-73406000D02*
X149715600Y-73406000D01*
X135636000Y-77828100D02*
X135636000Y-77340200D01*
X139296100Y-73406000D02*
X138320300Y-73406000D01*
X119380000Y-69850000D02*
X119380000Y-71500200D01*
X119380000Y-71500200D02*
X119380000Y-72420500D01*
X98312700Y-71120000D02*
X93980000Y-71120000D01*
X101093500Y-73900800D02*
X98312700Y-71120000D01*
X114614100Y-73900800D02*
X101093500Y-73900800D01*
X116094400Y-72420500D02*
X114614100Y-73900800D01*
X119380000Y-72420500D02*
X116094400Y-72420500D01*
X121964600Y-75630900D02*
X122327500Y-75630900D01*
X119380000Y-73046300D02*
X121964600Y-75630900D01*
X119380000Y-72420500D02*
X119380000Y-73046300D01*
X135440400Y-76738900D02*
X132030700Y-76738900D01*
X135440400Y-76285900D02*
X135440400Y-76738900D01*
X138320300Y-73406000D02*
X135440400Y-76285900D01*
X135440400Y-77144600D02*
X135636000Y-77340200D01*
X135440400Y-76738900D02*
X135440400Y-77144600D01*
X90424000Y-68983900D02*
X90424000Y-69959600D01*
X112163900Y-85725000D02*
X111188100Y-85725000D01*
X142643900Y-73406000D02*
X141668100Y-73406000D01*
X110163900Y-86749200D02*
X111188100Y-85725000D01*
X90041000Y-86749200D02*
X110163900Y-86749200D01*
X88320200Y-85028400D02*
X90041000Y-86749200D01*
X88320200Y-72063400D02*
X88320200Y-85028400D01*
X90424000Y-69959600D02*
X88320200Y-72063400D01*
X141668100Y-73406000D02*
X141668100Y-72245000D01*
X89448300Y-67032400D02*
X90424000Y-68008100D01*
X89448300Y-64928500D02*
X89448300Y-67032400D01*
X89716500Y-64660300D02*
X89448300Y-64928500D01*
X92916800Y-64660300D02*
X89716500Y-64660300D01*
X96006400Y-67749900D02*
X92916800Y-64660300D01*
X97759500Y-67749900D02*
X96006400Y-67749900D01*
X97957400Y-67552000D02*
X97759500Y-67749900D01*
X90424000Y-68983900D02*
X90424000Y-68008100D01*
X139296100Y-70104000D02*
X139296100Y-70878700D01*
X140301800Y-70878700D02*
X139296100Y-70878700D01*
X141668100Y-72245000D02*
X140301800Y-70878700D01*
X139266600Y-70878700D02*
X135184000Y-74961300D01*
X139296100Y-70878700D02*
X139266600Y-70878700D01*
X95659900Y-68550300D02*
X95630200Y-68580000D01*
X104085800Y-68550300D02*
X95659900Y-68550300D01*
X104388100Y-68852600D02*
X104085800Y-68550300D01*
X104388100Y-69759800D02*
X104388100Y-68852600D01*
X106132000Y-71503700D02*
X104388100Y-69759800D01*
X110106300Y-71503700D02*
X106132000Y-71503700D01*
X111760000Y-69850000D02*
X110106300Y-71503700D01*
X93980000Y-68580000D02*
X95630200Y-68580000D01*
X92329800Y-70109100D02*
X92329800Y-68580000D01*
X89134200Y-73304700D02*
X92329800Y-70109100D01*
X89134200Y-79880600D02*
X89134200Y-73304700D01*
X90170000Y-80916400D02*
X89134200Y-79880600D01*
X90170000Y-81892100D02*
X90170000Y-80916400D01*
X93980000Y-68580000D02*
X92329800Y-68580000D01*
X92329800Y-68517600D02*
X92329800Y-68580000D01*
X90424000Y-66611800D02*
X92329800Y-68517600D01*
X90424000Y-65636100D02*
X90424000Y-66611800D01*
D26*
X96266000Y-76263500D02*
X97340600Y-76263500D01*
X97524400Y-76263500D02*
X98578000Y-77317100D01*
X97340600Y-76263500D02*
X97524400Y-76263500D01*
X124460000Y-81280000D02*
X124460000Y-79967400D01*
X106680000Y-77470000D02*
X107755900Y-77470000D01*
X124460000Y-79967400D02*
X124460000Y-79854800D01*
X107755900Y-76932000D02*
X107755900Y-77470000D01*
X108744000Y-75943900D02*
X107755900Y-76932000D01*
X119890400Y-75943900D02*
X108744000Y-75943900D01*
X120678700Y-76732200D02*
X119890400Y-75943900D01*
X120678700Y-78160100D02*
X120678700Y-76732200D01*
X122373400Y-79854800D02*
X120678700Y-78160100D01*
X124460000Y-79854800D02*
X122373400Y-79854800D01*
X138130300Y-74863000D02*
X136290700Y-76702600D01*
X138859600Y-74863000D02*
X138130300Y-74863000D01*
X125236400Y-79854800D02*
X124460000Y-79854800D01*
X126511800Y-78579400D02*
X125236400Y-79854800D01*
X110295900Y-78390700D02*
X110295900Y-77470000D01*
X111760000Y-79854800D02*
X110295900Y-78390700D01*
X109220000Y-77470000D02*
X110295900Y-77470000D01*
X111760000Y-80788500D02*
X111760000Y-79854800D01*
X111760000Y-80788500D02*
X111760000Y-81280000D01*
X131872100Y-79265400D02*
X133032500Y-78105000D01*
X129597600Y-79265400D02*
X131872100Y-79265400D01*
X128270000Y-80593000D02*
X129597600Y-79265400D01*
X128270000Y-81908200D02*
X128270000Y-80593000D01*
X127467400Y-82710800D02*
X128270000Y-81908200D01*
X113734400Y-82710800D02*
X127467400Y-82710800D01*
X112847300Y-81823700D02*
X113734400Y-82710800D01*
X112847300Y-81280000D02*
X112847300Y-81823700D01*
X111760000Y-81280000D02*
X112847300Y-81280000D01*
X134913700Y-79010700D02*
X134008000Y-78105000D01*
X141425600Y-79010700D02*
X134913700Y-79010700D01*
X142422700Y-78013600D02*
X141425600Y-79010700D01*
X142422700Y-77470000D02*
X142422700Y-78013600D01*
X143510000Y-77470000D02*
X142422700Y-77470000D01*
X133032500Y-78105000D02*
X134008000Y-78105000D01*
X127762000Y-77660500D02*
X127762000Y-78636000D01*
X127762000Y-79092800D02*
X127762000Y-78636000D01*
X127000000Y-79854800D02*
X127762000Y-79092800D01*
X127000000Y-81280000D02*
X127000000Y-79854800D01*
X126577500Y-77550600D02*
X126687400Y-77660500D01*
X126577500Y-74132500D02*
X126577500Y-77550600D01*
X128925100Y-71784900D02*
X126577500Y-74132500D01*
X128925100Y-71102400D02*
X128925100Y-71784900D01*
X127762000Y-77660500D02*
X126687400Y-77660500D01*
X110295900Y-69261600D02*
X110295900Y-69850000D01*
X111252200Y-68305300D02*
X110295900Y-69261600D01*
X112258400Y-68305300D02*
X111252200Y-68305300D01*
X112973900Y-69020800D02*
X112258400Y-68305300D01*
X112973900Y-70685900D02*
X112973900Y-69020800D01*
X111477300Y-72182500D02*
X112973900Y-70685900D01*
X105520000Y-72182500D02*
X111477300Y-72182500D01*
X103187500Y-69850000D02*
X105520000Y-72182500D01*
X109220000Y-69850000D02*
X110295900Y-69850000D01*
X127639400Y-86564100D02*
X126800300Y-85725000D01*
X136412200Y-86564100D02*
X127639400Y-86564100D01*
X137342700Y-85633600D02*
X136412200Y-86564100D01*
X137342700Y-85090000D02*
X137342700Y-85633600D01*
X138430000Y-85090000D02*
X137342700Y-85090000D01*
X125825000Y-85725000D02*
X126800300Y-85725000D01*
X139517300Y-85633700D02*
X139517300Y-85090000D01*
X140525200Y-86641600D02*
X139517300Y-85633700D01*
X149510200Y-86641600D02*
X140525200Y-86641600D01*
X150641300Y-85510500D02*
X149510200Y-86641600D01*
X150641300Y-66063800D02*
X150641300Y-85510500D01*
X149090000Y-64512500D02*
X150641300Y-66063800D01*
X126531100Y-64512500D02*
X149090000Y-64512500D01*
X125547300Y-65496300D02*
X126531100Y-64512500D01*
X125547300Y-66040000D02*
X125547300Y-65496300D01*
X124460000Y-66040000D02*
X125547300Y-66040000D01*
X138430000Y-85090000D02*
X139517300Y-85090000D01*
X97607300Y-83454600D02*
X97607300Y-81280000D01*
X99242700Y-85090000D02*
X97607300Y-83454600D01*
X100330000Y-85090000D02*
X99242700Y-85090000D01*
X96520000Y-81280000D02*
X97607300Y-81280000D01*
X100147300Y-82367300D02*
X100147300Y-81280000D01*
X101782700Y-84002700D02*
X100147300Y-82367300D01*
X101782700Y-85090000D02*
X101782700Y-84002700D01*
X102870000Y-85090000D02*
X101782700Y-85090000D01*
X99060000Y-81280000D02*
X100147300Y-81280000D01*
X130627300Y-80736400D02*
X130627300Y-81280000D01*
X131647900Y-79715800D02*
X130627300Y-80736400D01*
X139405800Y-79715800D02*
X131647900Y-79715800D01*
X139882700Y-80192700D02*
X139405800Y-79715800D01*
X139882700Y-81280000D02*
X139882700Y-80192700D01*
X140970000Y-81280000D02*
X139882700Y-81280000D01*
X129540000Y-81280000D02*
X130627300Y-81280000D01*
X123007300Y-66463000D02*
X123007300Y-66040000D01*
X125551500Y-69007200D02*
X123007300Y-66463000D01*
X125551500Y-72481400D02*
X125551500Y-69007200D01*
X125430200Y-72602700D02*
X125551500Y-72481400D01*
X121920000Y-66040000D02*
X123007300Y-66040000D01*
X114840000Y-85725000D02*
X113864700Y-85725000D01*
X116426700Y-75218400D02*
X118373200Y-73271900D01*
X107015200Y-75218400D02*
X116426700Y-75218400D01*
X105600300Y-76633300D02*
X107015200Y-75218400D01*
X105600300Y-78261400D02*
X105600300Y-76633300D01*
X107937100Y-80598200D02*
X105600300Y-78261400D01*
X107937100Y-81939800D02*
X107937100Y-80598200D01*
X110747000Y-84749700D02*
X107937100Y-81939800D01*
X112889400Y-84749700D02*
X110747000Y-84749700D01*
X113864700Y-85725000D02*
X112889400Y-84749700D01*
X120306000Y-86220400D02*
X120306000Y-85126100D01*
X121186300Y-87100700D02*
X120306000Y-86220400D01*
X139072700Y-87100700D02*
X121186300Y-87100700D01*
X139488600Y-86684800D02*
X139072700Y-87100700D01*
X121920000Y-77470000D02*
X122995900Y-77470000D01*
X122995900Y-76838600D02*
X122995900Y-77470000D01*
X128098000Y-71736500D02*
X122995900Y-76838600D01*
X128098000Y-71045200D02*
X128098000Y-71736500D01*
X128834600Y-70308600D02*
X128098000Y-71045200D01*
X131049900Y-70308600D02*
X128834600Y-70308600D01*
X132270500Y-69088000D02*
X131049900Y-70308600D01*
X130810000Y-76712900D02*
X130810000Y-75565000D01*
X131127500Y-77030400D02*
X130810000Y-76712900D01*
X131127500Y-78105000D02*
X131127500Y-77030400D01*
X101282500Y-72072500D02*
X101600000Y-72390000D01*
X101282500Y-69850000D02*
X101282500Y-72072500D01*
X113987500Y-73028500D02*
X106721800Y-73028500D01*
X115640700Y-71375300D02*
X113987500Y-73028500D01*
X117381400Y-71375300D02*
X115640700Y-71375300D01*
X118110000Y-70646700D02*
X117381400Y-71375300D01*
X118110000Y-69043600D02*
X118110000Y-70646700D01*
X118872000Y-68281600D02*
X118110000Y-69043600D01*
X119864000Y-68281600D02*
X118872000Y-68281600D01*
X120844100Y-69261700D02*
X119864000Y-68281600D01*
X120844100Y-69850000D02*
X120844100Y-69261700D01*
X121920000Y-69850000D02*
X120844100Y-69850000D01*
X122237500Y-71592700D02*
X121920000Y-71275200D01*
X122237500Y-73660000D02*
X122237500Y-71592700D01*
X121920000Y-69850000D02*
X121920000Y-71275200D01*
M02*
