G04 #@! TF.FileFunction,Copper,L1,Top,Signal*
%FSLAX46Y46*%
G04 Gerber Fmt 4.6, Leading zero omitted, Abs format (unit mm)*
G04 Created by KiCad (PCBNEW 0.201508080901+6071~28~ubuntu14.04.1-product) date lun 10 ago 2015 21:40:22 CEST*
%MOMM*%
G01*
G04 APERTURE LIST*
%ADD10C,0.200000*%
%ADD11O,1.501140X2.199640*%
%ADD12C,1.750060*%
%ADD13R,1.524000X2.199640*%
%ADD14O,1.524000X2.199640*%
%ADD15R,2.199640X1.524000*%
%ADD16O,2.199640X1.524000*%
%ADD17R,1.300000X1.800000*%
%ADD18O,1.300000X1.800000*%
%ADD19C,3.500120*%
%ADD20O,1.524000X2.197100*%
%ADD21C,0.600000*%
%ADD22C,0.500000*%
%ADD23C,0.250000*%
%ADD24C,0.508000*%
G04 APERTURE END LIST*
D10*
D11*
X106680000Y-77470000D03*
X109220000Y-77470000D03*
X111760000Y-77470000D03*
X114300000Y-77470000D03*
X116840000Y-77470000D03*
X119380000Y-77470000D03*
X121920000Y-77470000D03*
X124460000Y-77470000D03*
X124460000Y-69850000D03*
X121920000Y-69850000D03*
X119380000Y-69850000D03*
X116840000Y-69850000D03*
X114300000Y-69850000D03*
X111760000Y-69850000D03*
X109220000Y-69850000D03*
X106680000Y-69850000D03*
D12*
X130810000Y-75565000D03*
X133350000Y-73660000D03*
X130810000Y-71755000D03*
X101600000Y-72390000D03*
X99060000Y-74295000D03*
X101600000Y-76200000D03*
D13*
X146050000Y-66040000D03*
D14*
X148590000Y-66040000D03*
D15*
X93980000Y-71120000D03*
D16*
X93980000Y-68580000D03*
D17*
X121825000Y-85725000D03*
D18*
X123825000Y-85725000D03*
X125825000Y-85725000D03*
D19*
X91440000Y-77470000D03*
X141605000Y-67310000D03*
D17*
X118840000Y-85725000D03*
D18*
X116840000Y-85725000D03*
X114840000Y-85725000D03*
D14*
X96520000Y-81280000D03*
X99060000Y-81280000D03*
X101600000Y-81280000D03*
X104140000Y-81280000D03*
X106680000Y-81280000D03*
X109220000Y-81280000D03*
X111760000Y-81280000D03*
X114300000Y-81280000D03*
X116840000Y-81280000D03*
X119380000Y-81280000D03*
X121920000Y-81280000D03*
X124460000Y-81280000D03*
X127000000Y-81280000D03*
X129540000Y-81280000D03*
X132080000Y-81280000D03*
X132080000Y-66040000D03*
X129540000Y-66040000D03*
X127000000Y-66040000D03*
X124460000Y-66040000D03*
D20*
X121920000Y-66040000D03*
X119380000Y-66040000D03*
X116840000Y-66040000D03*
X114300000Y-66040000D03*
X111760000Y-66040000D03*
X109220000Y-66040000D03*
X106680000Y-66040000D03*
X104140000Y-66040000D03*
X101600000Y-66040000D03*
X99060000Y-66040000D03*
X96520000Y-66040000D03*
D13*
X148590000Y-85090000D03*
D14*
X146050000Y-85090000D03*
X143510000Y-85090000D03*
X140970000Y-85090000D03*
X138430000Y-85090000D03*
X135890000Y-85090000D03*
D13*
X93980000Y-85090000D03*
D14*
X96520000Y-85090000D03*
D13*
X105410000Y-85090000D03*
D14*
X102870000Y-85090000D03*
X100330000Y-85090000D03*
D13*
X138430000Y-77470000D03*
D14*
X140970000Y-77470000D03*
X143510000Y-77470000D03*
X146050000Y-77470000D03*
X148590000Y-77470000D03*
D13*
X138430000Y-81280000D03*
D14*
X140970000Y-81280000D03*
X143510000Y-81280000D03*
X146050000Y-81280000D03*
X148590000Y-81280000D03*
D21*
X131053200Y-73619400D03*
X94221700Y-82248000D03*
X98298500Y-72347900D03*
X103995800Y-83058900D03*
X98781800Y-64307800D03*
X94154100Y-64658400D03*
X132030700Y-76738900D03*
X122327500Y-75630900D03*
X141668100Y-72245000D03*
X97957400Y-67552000D03*
X135184000Y-74961300D03*
X98578000Y-77317100D03*
X138859600Y-74863000D03*
X136290700Y-76702600D03*
X126511800Y-78579400D03*
X128925100Y-71102400D03*
X118373200Y-73271900D03*
X125430200Y-72602700D03*
X139488600Y-86684800D03*
X120306000Y-85126100D03*
X106721800Y-73028500D03*
D22*
X119380000Y-77470000D02*
X119380000Y-75819800D01*
X121580400Y-73619400D02*
X131053200Y-73619400D01*
X119380000Y-75819800D02*
X121580400Y-73619400D01*
D23*
X140970000Y-85090000D02*
X139882700Y-85090000D01*
X117478600Y-84363600D02*
X118840000Y-85725000D01*
X113644100Y-84363600D02*
X117478600Y-84363600D01*
X111439600Y-86568100D02*
X113644100Y-84363600D01*
X99085400Y-86568100D02*
X111439600Y-86568100D01*
X97607300Y-85090000D02*
X99085400Y-86568100D01*
X96520000Y-85090000D02*
X97063700Y-85090000D01*
X97063700Y-85090000D02*
X97607300Y-85090000D01*
X100796400Y-69850000D02*
X98298500Y-72347900D01*
X106680000Y-69850000D02*
X100796400Y-69850000D01*
X97063700Y-85090000D02*
X94221700Y-82248000D01*
X123916600Y-83633400D02*
X121825000Y-85725000D01*
X138969700Y-83633400D02*
X123916600Y-83633400D01*
X139882700Y-84546400D02*
X138969700Y-83633400D01*
X139882700Y-85090000D02*
X139882700Y-84546400D01*
X119862700Y-85772400D02*
X119815300Y-85725000D01*
X120802300Y-85772400D02*
X119862700Y-85772400D01*
X120849700Y-85725000D02*
X120802300Y-85772400D01*
X121825000Y-85725000D02*
X120849700Y-85725000D01*
X118840000Y-85725000D02*
X119815300Y-85725000D01*
D22*
X146050000Y-85090000D02*
X148590000Y-85090000D01*
X138430000Y-77470000D02*
X138430000Y-75819900D01*
X101600000Y-76093500D02*
X101600000Y-76200000D01*
X101925000Y-75768500D02*
X101600000Y-76093500D01*
X112598500Y-75768500D02*
X101925000Y-75768500D01*
X114300000Y-77470000D02*
X112598500Y-75768500D01*
X97387300Y-64367300D02*
X99060000Y-66040000D01*
X95990400Y-64367300D02*
X97387300Y-64367300D01*
X92296100Y-68061600D02*
X95990400Y-64367300D01*
X92296100Y-72122600D02*
X92296100Y-68061600D01*
X96267000Y-76093500D02*
X92296100Y-72122600D01*
X101600000Y-76093500D02*
X96267000Y-76093500D01*
X114300000Y-69850000D02*
X115600900Y-69850000D01*
X116840000Y-69850000D02*
X115600900Y-69850000D01*
X118705700Y-71715700D02*
X116840000Y-69850000D01*
X118705700Y-71736900D02*
X118705700Y-71715700D01*
X116840000Y-73602600D02*
X116840000Y-77470000D01*
X118705700Y-71736900D02*
X116840000Y-73602600D01*
X130612300Y-71952700D02*
X130810000Y-71755000D01*
X128572900Y-71952700D02*
X130612300Y-71952700D01*
X128357100Y-71736900D02*
X128572900Y-71952700D01*
X118705700Y-71736900D02*
X128357100Y-71736900D01*
X134365100Y-71755000D02*
X130810000Y-71755000D01*
X138430000Y-75819900D02*
X134365100Y-71755000D01*
X110089600Y-79140400D02*
X111760000Y-77470000D01*
X96448400Y-79140400D02*
X110089600Y-79140400D01*
X91450100Y-74142100D02*
X96448400Y-79140400D01*
X91450100Y-67362400D02*
X91450100Y-74142100D01*
X94154100Y-64658400D02*
X91450100Y-67362400D01*
X148590000Y-66040000D02*
X148590000Y-64389800D01*
X98863800Y-64389800D02*
X98781800Y-64307800D01*
X148590000Y-64389800D02*
X98863800Y-64389800D01*
X95165400Y-80423400D02*
X96448400Y-79140400D01*
X95165400Y-82161400D02*
X95165400Y-80423400D01*
X96062900Y-83058900D02*
X95165400Y-82161400D01*
X103995800Y-83058900D02*
X96062900Y-83058900D01*
X131749800Y-77019800D02*
X132030700Y-76738900D01*
X128537900Y-77019800D02*
X131749800Y-77019800D01*
X127149000Y-75630900D02*
X128537900Y-77019800D01*
X122327500Y-75630900D02*
X127149000Y-75630900D01*
X98348900Y-67943500D02*
X97957400Y-67552000D01*
X137366600Y-67943500D02*
X98348900Y-67943500D01*
X141668100Y-72245000D02*
X137366600Y-67943500D01*
X145634900Y-72245000D02*
X141668100Y-72245000D01*
X149918400Y-76528500D02*
X145634900Y-72245000D01*
X149918400Y-82147200D02*
X149918400Y-76528500D01*
X148880600Y-83185000D02*
X149918400Y-82147200D01*
X145415000Y-83185000D02*
X148880600Y-83185000D01*
X143510000Y-85090000D02*
X145415000Y-83185000D01*
X124460000Y-77470000D02*
X125760900Y-77470000D01*
X126605000Y-77470000D02*
X125760900Y-77470000D01*
X126989200Y-77854200D02*
X126605000Y-77470000D01*
X132291100Y-77854200D02*
X126989200Y-77854200D01*
X135184000Y-74961300D02*
X132291100Y-77854200D01*
D23*
X106680000Y-77470000D02*
X105604100Y-77470000D01*
X98821800Y-77560900D02*
X98578000Y-77317100D01*
X105513200Y-77560900D02*
X98821800Y-77560900D01*
X105604100Y-77470000D02*
X105513200Y-77560900D01*
X140273200Y-74863000D02*
X138859600Y-74863000D01*
X142080700Y-76670500D02*
X140273200Y-74863000D01*
X142080700Y-77976600D02*
X142080700Y-76670500D01*
X143028800Y-78924700D02*
X142080700Y-77976600D01*
X146591600Y-78924700D02*
X143028800Y-78924700D01*
X147502700Y-78013600D02*
X146591600Y-78924700D01*
X147502700Y-77470000D02*
X147502700Y-78013600D01*
X134413900Y-78579400D02*
X126511800Y-78579400D01*
X136290700Y-76702600D02*
X134413900Y-78579400D01*
X148590000Y-77470000D02*
X147502700Y-77470000D01*
X146050000Y-77470000D02*
X144962700Y-77470000D01*
X128925100Y-70396100D02*
X128925100Y-71102400D01*
X138432400Y-70396100D02*
X128925100Y-70396100D01*
X144962700Y-76926400D02*
X138432400Y-70396100D01*
X144962700Y-77470000D02*
X144962700Y-76926400D01*
X126082000Y-70396100D02*
X125535900Y-69850000D01*
X128925100Y-70396100D02*
X126082000Y-70396100D01*
X124460000Y-69850000D02*
X125535900Y-69850000D01*
X140970000Y-77470000D02*
X139882700Y-77470000D01*
X114300000Y-81280000D02*
X115387300Y-81280000D01*
X109220000Y-69850000D02*
X110295900Y-69850000D01*
X115387300Y-79665100D02*
X115847700Y-79204700D01*
X115387300Y-81280000D02*
X115387300Y-79665100D01*
X115638300Y-78995300D02*
X115847700Y-79204700D01*
X115638300Y-75775600D02*
X115638300Y-78995300D01*
X110295900Y-70433200D02*
X115638300Y-75775600D01*
X110295900Y-69850000D02*
X110295900Y-70433200D01*
X139882700Y-78557300D02*
X139882700Y-77470000D01*
X139235300Y-79204700D02*
X139882700Y-78557300D01*
X115847700Y-79204700D02*
X139235300Y-79204700D01*
X105410000Y-81462700D02*
X105227300Y-81280000D01*
X105410000Y-85090000D02*
X105410000Y-81462700D01*
X104140000Y-81280000D02*
X105227300Y-81280000D01*
X143510000Y-81280000D02*
X142422700Y-81280000D01*
X109220000Y-81280000D02*
X110307300Y-81280000D01*
X142422700Y-81823600D02*
X142422700Y-81280000D01*
X141434400Y-82811900D02*
X142422700Y-81823600D01*
X118339200Y-82811900D02*
X141434400Y-82811900D01*
X117945200Y-83205900D02*
X118339200Y-82811900D01*
X111689500Y-83205900D02*
X117945200Y-83205900D01*
X110307300Y-81823700D02*
X111689500Y-83205900D01*
X110307300Y-81280000D02*
X110307300Y-81823700D01*
X123007300Y-80736300D02*
X123007300Y-81280000D01*
X123997700Y-79745900D02*
X123007300Y-80736300D01*
X146512200Y-79745900D02*
X123997700Y-79745900D01*
X147502700Y-80736400D02*
X146512200Y-79745900D01*
X147502700Y-81280000D02*
X147502700Y-80736400D01*
X148590000Y-81280000D02*
X147502700Y-81280000D01*
X121920000Y-81280000D02*
X123007300Y-81280000D01*
X116178400Y-87063400D02*
X114840000Y-85725000D01*
X132829300Y-87063400D02*
X116178400Y-87063400D01*
X134802700Y-85090000D02*
X132829300Y-87063400D01*
X135890000Y-85090000D02*
X134802700Y-85090000D01*
X119042400Y-72602700D02*
X125430200Y-72602700D01*
X118373200Y-73271900D02*
X119042400Y-72602700D01*
X141261600Y-86684800D02*
X139488600Y-86684800D01*
X142322600Y-85623800D02*
X141261600Y-86684800D01*
X142322600Y-84247800D02*
X142322600Y-85623800D01*
X143062100Y-83508300D02*
X142322600Y-84247800D01*
X143252000Y-83508300D02*
X143062100Y-83508300D01*
X144962700Y-81797600D02*
X143252000Y-83508300D01*
X144962700Y-81280000D02*
X144962700Y-81797600D01*
X119380000Y-81280000D02*
X118292700Y-81280000D01*
X146050000Y-81280000D02*
X144962700Y-81280000D01*
X118292700Y-81719700D02*
X118292700Y-81280000D01*
X117256900Y-82755500D02*
X118292700Y-81719700D01*
X113842400Y-82755500D02*
X117256900Y-82755500D01*
X113030000Y-81943100D02*
X113842400Y-82755500D01*
X113030000Y-80672500D02*
X113030000Y-81943100D01*
X112212200Y-79854700D02*
X113030000Y-80672500D01*
X108735600Y-79854700D02*
X112212200Y-79854700D01*
X108048200Y-80542100D02*
X108735600Y-79854700D01*
X108048200Y-82048100D02*
X108048200Y-80542100D01*
X109913300Y-83913200D02*
X108048200Y-82048100D01*
X119093100Y-83913200D02*
X109913300Y-83913200D01*
X120306000Y-85126100D02*
X119093100Y-83913200D01*
X132655200Y-74354800D02*
X133350000Y-73660000D01*
X122478000Y-74354800D02*
X132655200Y-74354800D01*
X121539700Y-75293100D02*
X122478000Y-74354800D01*
X121539700Y-77089700D02*
X121539700Y-75293100D01*
X121920000Y-77470000D02*
X121539700Y-77089700D01*
X105455300Y-74295000D02*
X99060000Y-74295000D01*
X106721800Y-73028500D02*
X105455300Y-74295000D01*
D24*
G36*
X150368000Y-86866969D02*
X149717392Y-86864335D01*
X149784205Y-86836660D01*
X149998840Y-86622025D01*
X150115000Y-86341590D01*
X150115000Y-85281250D01*
X149924250Y-85090500D01*
X148590500Y-85090500D01*
X148590500Y-85110500D01*
X148589500Y-85110500D01*
X148589500Y-85090500D01*
X146050500Y-85090500D01*
X146050500Y-85110500D01*
X146049500Y-85110500D01*
X146049500Y-85090500D01*
X146029500Y-85090500D01*
X146029500Y-85089500D01*
X146049500Y-85089500D01*
X146049500Y-85069500D01*
X146050500Y-85069500D01*
X146050500Y-85089500D01*
X148589500Y-85089500D01*
X148589500Y-85069500D01*
X148590500Y-85069500D01*
X148590500Y-85089500D01*
X149924250Y-85089500D01*
X150115000Y-84898750D01*
X150115000Y-83838410D01*
X149998840Y-83557975D01*
X149821747Y-83380882D01*
X150368000Y-82834628D01*
X150368000Y-86866969D01*
X150368000Y-86866969D01*
G37*
X150368000Y-86866969D02*
X149717392Y-86864335D01*
X149784205Y-86836660D01*
X149998840Y-86622025D01*
X150115000Y-86341590D01*
X150115000Y-85281250D01*
X149924250Y-85090500D01*
X148590500Y-85090500D01*
X148590500Y-85110500D01*
X148589500Y-85110500D01*
X148589500Y-85090500D01*
X146050500Y-85090500D01*
X146050500Y-85110500D01*
X146049500Y-85110500D01*
X146049500Y-85090500D01*
X146029500Y-85090500D01*
X146029500Y-85089500D01*
X146049500Y-85089500D01*
X146049500Y-85069500D01*
X146050500Y-85069500D01*
X146050500Y-85089500D01*
X148589500Y-85089500D01*
X148589500Y-85069500D01*
X148590500Y-85069500D01*
X148590500Y-85089500D01*
X149924250Y-85089500D01*
X150115000Y-84898750D01*
X150115000Y-83838410D01*
X149998840Y-83557975D01*
X149821747Y-83380882D01*
X150368000Y-82834628D01*
X150368000Y-86866969D01*
G36*
X93380176Y-64295296D02*
X90881586Y-66793886D01*
X90707301Y-67054722D01*
X90664857Y-67268103D01*
X90646100Y-67362400D01*
X90646100Y-74142100D01*
X90707301Y-74449778D01*
X90881586Y-74710614D01*
X91436909Y-75265937D01*
X91003509Y-75265558D01*
X90193131Y-75600399D01*
X89572578Y-76219870D01*
X89236324Y-77029662D01*
X89235558Y-77906491D01*
X89570399Y-78716869D01*
X90189870Y-79337422D01*
X90999662Y-79673676D01*
X91876491Y-79674442D01*
X92686869Y-79339601D01*
X93307422Y-78720130D01*
X93643676Y-77910338D01*
X93644058Y-77473086D01*
X95311372Y-79140400D01*
X94596886Y-79854886D01*
X94422601Y-80115722D01*
X94414331Y-80157300D01*
X94361400Y-80423400D01*
X94361400Y-81494121D01*
X94072378Y-81493869D01*
X93795151Y-81608417D01*
X93582862Y-81820336D01*
X93467831Y-82097362D01*
X93467569Y-82397322D01*
X93582117Y-82674549D01*
X93794036Y-82886838D01*
X94071062Y-83001869D01*
X94156814Y-83001944D01*
X94382050Y-83227180D01*
X94171250Y-83227180D01*
X93980500Y-83417930D01*
X93980500Y-85089500D01*
X94000500Y-85089500D01*
X94000500Y-85090500D01*
X93980500Y-85090500D01*
X93980500Y-85110500D01*
X93979500Y-85110500D01*
X93979500Y-85090500D01*
X92645750Y-85090500D01*
X92455000Y-85281250D01*
X92455000Y-86341590D01*
X92571160Y-86622025D01*
X92582154Y-86633019D01*
X88138000Y-86615026D01*
X88138000Y-83838410D01*
X92455000Y-83838410D01*
X92455000Y-84898750D01*
X92645750Y-85089500D01*
X93979500Y-85089500D01*
X93979500Y-83417930D01*
X93788750Y-83227180D01*
X93066230Y-83227180D01*
X92785795Y-83343340D01*
X92571160Y-83557975D01*
X92455000Y-83838410D01*
X88138000Y-83838410D01*
X88138000Y-64262000D01*
X93394002Y-64262000D01*
X93380176Y-64295296D01*
X93380176Y-64295296D01*
G37*
X93380176Y-64295296D02*
X90881586Y-66793886D01*
X90707301Y-67054722D01*
X90664857Y-67268103D01*
X90646100Y-67362400D01*
X90646100Y-74142100D01*
X90707301Y-74449778D01*
X90881586Y-74710614D01*
X91436909Y-75265937D01*
X91003509Y-75265558D01*
X90193131Y-75600399D01*
X89572578Y-76219870D01*
X89236324Y-77029662D01*
X89235558Y-77906491D01*
X89570399Y-78716869D01*
X90189870Y-79337422D01*
X90999662Y-79673676D01*
X91876491Y-79674442D01*
X92686869Y-79339601D01*
X93307422Y-78720130D01*
X93643676Y-77910338D01*
X93644058Y-77473086D01*
X95311372Y-79140400D01*
X94596886Y-79854886D01*
X94422601Y-80115722D01*
X94414331Y-80157300D01*
X94361400Y-80423400D01*
X94361400Y-81494121D01*
X94072378Y-81493869D01*
X93795151Y-81608417D01*
X93582862Y-81820336D01*
X93467831Y-82097362D01*
X93467569Y-82397322D01*
X93582117Y-82674549D01*
X93794036Y-82886838D01*
X94071062Y-83001869D01*
X94156814Y-83001944D01*
X94382050Y-83227180D01*
X94171250Y-83227180D01*
X93980500Y-83417930D01*
X93980500Y-85089500D01*
X94000500Y-85089500D01*
X94000500Y-85090500D01*
X93980500Y-85090500D01*
X93980500Y-85110500D01*
X93979500Y-85110500D01*
X93979500Y-85090500D01*
X92645750Y-85090500D01*
X92455000Y-85281250D01*
X92455000Y-86341590D01*
X92571160Y-86622025D01*
X92582154Y-86633019D01*
X88138000Y-86615026D01*
X88138000Y-83838410D01*
X92455000Y-83838410D01*
X92455000Y-84898750D01*
X92645750Y-85089500D01*
X93979500Y-85089500D01*
X93979500Y-83417930D01*
X93788750Y-83227180D01*
X93066230Y-83227180D01*
X92785795Y-83343340D01*
X92571160Y-83557975D01*
X92455000Y-83838410D01*
X88138000Y-83838410D01*
X88138000Y-64262000D01*
X93394002Y-64262000D01*
X93380176Y-64295296D01*
G36*
X123825500Y-85724500D02*
X123845500Y-85724500D01*
X123845500Y-85725500D01*
X123825500Y-85725500D01*
X123825500Y-85745500D01*
X123824500Y-85745500D01*
X123824500Y-85725500D01*
X123804500Y-85725500D01*
X123804500Y-85724500D01*
X123824500Y-85724500D01*
X123824500Y-85704500D01*
X123825500Y-85704500D01*
X123825500Y-85724500D01*
X123825500Y-85724500D01*
G37*
X123825500Y-85724500D02*
X123845500Y-85724500D01*
X123845500Y-85725500D01*
X123825500Y-85725500D01*
X123825500Y-85745500D01*
X123824500Y-85745500D01*
X123824500Y-85725500D01*
X123804500Y-85725500D01*
X123804500Y-85724500D01*
X123824500Y-85724500D01*
X123824500Y-85704500D01*
X123825500Y-85704500D01*
X123825500Y-85724500D01*
G36*
X116840500Y-85724500D02*
X116860500Y-85724500D01*
X116860500Y-85725500D01*
X116840500Y-85725500D01*
X116840500Y-85745500D01*
X116839500Y-85745500D01*
X116839500Y-85725500D01*
X116819500Y-85725500D01*
X116819500Y-85724500D01*
X116839500Y-85724500D01*
X116839500Y-85704500D01*
X116840500Y-85704500D01*
X116840500Y-85724500D01*
X116840500Y-85724500D01*
G37*
X116840500Y-85724500D02*
X116860500Y-85724500D01*
X116860500Y-85725500D01*
X116840500Y-85725500D01*
X116840500Y-85745500D01*
X116839500Y-85745500D01*
X116839500Y-85725500D01*
X116819500Y-85725500D01*
X116819500Y-85724500D01*
X116839500Y-85724500D01*
X116839500Y-85704500D01*
X116840500Y-85704500D01*
X116840500Y-85724500D01*
G36*
X136905000Y-81088750D02*
X137095750Y-81279500D01*
X138429500Y-81279500D01*
X138429500Y-81259500D01*
X138430500Y-81259500D01*
X138430500Y-81279500D01*
X138450500Y-81279500D01*
X138450500Y-81280500D01*
X138430500Y-81280500D01*
X138430500Y-81300500D01*
X138429500Y-81300500D01*
X138429500Y-81280500D01*
X137095750Y-81280500D01*
X136905000Y-81471250D01*
X136905000Y-82232900D01*
X133123727Y-82232900D01*
X133203438Y-82113604D01*
X133296000Y-81648261D01*
X133296000Y-80911739D01*
X133203438Y-80446396D01*
X133122257Y-80324900D01*
X136905000Y-80324900D01*
X136905000Y-81088750D01*
X136905000Y-81088750D01*
G37*
X136905000Y-81088750D02*
X137095750Y-81279500D01*
X138429500Y-81279500D01*
X138429500Y-81259500D01*
X138430500Y-81259500D01*
X138430500Y-81279500D01*
X138450500Y-81279500D01*
X138450500Y-81280500D01*
X138430500Y-81280500D01*
X138430500Y-81300500D01*
X138429500Y-81300500D01*
X138429500Y-81280500D01*
X137095750Y-81280500D01*
X136905000Y-81471250D01*
X136905000Y-82232900D01*
X133123727Y-82232900D01*
X133203438Y-82113604D01*
X133296000Y-81648261D01*
X133296000Y-80911739D01*
X133203438Y-80446396D01*
X133122257Y-80324900D01*
X136905000Y-80324900D01*
X136905000Y-81088750D01*
G36*
X97927652Y-64476926D02*
X97987283Y-64621243D01*
X97982016Y-64624759D01*
X97651275Y-65119396D01*
X97635923Y-65196444D01*
X97379842Y-64813192D01*
X96985343Y-64549596D01*
X96520000Y-64457034D01*
X96054657Y-64549596D01*
X95660158Y-64813192D01*
X95396562Y-65207691D01*
X95304000Y-65673034D01*
X95304000Y-66406966D01*
X95396562Y-66872309D01*
X95660158Y-67266808D01*
X96054657Y-67530404D01*
X96520000Y-67622966D01*
X96985343Y-67530404D01*
X97103487Y-67451463D01*
X97103252Y-67721126D01*
X97232992Y-68035120D01*
X97473016Y-68275564D01*
X97594296Y-68325924D01*
X97780386Y-68512014D01*
X98041223Y-68686299D01*
X98348900Y-68747500D01*
X105742078Y-68747500D01*
X105567122Y-69009340D01*
X105515075Y-69271000D01*
X100796400Y-69271000D01*
X100574826Y-69315074D01*
X100386985Y-69440585D01*
X98233727Y-71593843D01*
X98149178Y-71593769D01*
X97871951Y-71708317D01*
X97659662Y-71920236D01*
X97544631Y-72197262D01*
X97544369Y-72497222D01*
X97658917Y-72774449D01*
X97870836Y-72986738D01*
X98147862Y-73101769D01*
X98447822Y-73102031D01*
X98725049Y-72987483D01*
X98937338Y-72775564D01*
X99052369Y-72498538D01*
X99052444Y-72412786D01*
X101036230Y-70429000D01*
X105515075Y-70429000D01*
X105567122Y-70690660D01*
X105828240Y-71081451D01*
X106219031Y-71342569D01*
X106680000Y-71434261D01*
X107140969Y-71342569D01*
X107531760Y-71081451D01*
X107792878Y-70690660D01*
X107884570Y-70229691D01*
X107884570Y-69470309D01*
X107792878Y-69009340D01*
X107617922Y-68747500D01*
X108282078Y-68747500D01*
X108107122Y-69009340D01*
X108015430Y-69470309D01*
X108015430Y-70229691D01*
X108107122Y-70690660D01*
X108368240Y-71081451D01*
X108759031Y-71342569D01*
X109220000Y-71434261D01*
X109680969Y-71342569D01*
X110071760Y-71081451D01*
X110093214Y-71049343D01*
X114721810Y-75677939D01*
X114537268Y-75625893D01*
X114300500Y-75797930D01*
X114300500Y-77469500D01*
X114320500Y-77469500D01*
X114320500Y-77470500D01*
X114300500Y-77470500D01*
X114300500Y-79142070D01*
X114537268Y-79314107D01*
X114878756Y-79217798D01*
X115077201Y-79085296D01*
X115088993Y-79144577D01*
X114977885Y-79255685D01*
X114852374Y-79443526D01*
X114808300Y-79665100D01*
X114808300Y-79817004D01*
X114765343Y-79788301D01*
X114300000Y-79695739D01*
X113834657Y-79788301D01*
X113440158Y-80051897D01*
X113355270Y-80178940D01*
X112621615Y-79445285D01*
X112579553Y-79417180D01*
X112433774Y-79319774D01*
X112212200Y-79275700D01*
X111091328Y-79275700D01*
X111301925Y-79065103D01*
X111760000Y-79156220D01*
X112259237Y-79056916D01*
X112682470Y-78774120D01*
X112917505Y-78422366D01*
X113230098Y-78889859D01*
X113721244Y-79217798D01*
X114062732Y-79314107D01*
X114299500Y-79142070D01*
X114299500Y-77470500D01*
X114279500Y-77470500D01*
X114279500Y-77469500D01*
X114299500Y-77469500D01*
X114299500Y-75797930D01*
X114062732Y-75625893D01*
X113721244Y-75722202D01*
X113230098Y-76050141D01*
X112917505Y-76517634D01*
X112682470Y-76165880D01*
X112259237Y-75883084D01*
X111760000Y-75783780D01*
X111260763Y-75883084D01*
X110837530Y-76165880D01*
X110554734Y-76589113D01*
X110455430Y-77088350D01*
X110455430Y-77637542D01*
X110424570Y-77668402D01*
X110424570Y-77090309D01*
X110332878Y-76629340D01*
X110071760Y-76238549D01*
X109680969Y-75977431D01*
X109220000Y-75885739D01*
X108759031Y-75977431D01*
X108368240Y-76238549D01*
X108107122Y-76629340D01*
X108015430Y-77090309D01*
X108015430Y-77849691D01*
X108107122Y-78310660D01*
X108124321Y-78336400D01*
X107775679Y-78336400D01*
X107792878Y-78310660D01*
X107884570Y-77849691D01*
X107884570Y-77090309D01*
X107792878Y-76629340D01*
X107531760Y-76238549D01*
X107140969Y-75977431D01*
X106680000Y-75885739D01*
X106219031Y-75977431D01*
X105828240Y-76238549D01*
X105567122Y-76629340D01*
X105511407Y-76909438D01*
X105382526Y-76935074D01*
X105312446Y-76981900D01*
X103043288Y-76981900D01*
X103224092Y-76589396D01*
X103249481Y-75938242D01*
X103023751Y-75326938D01*
X102951450Y-75218732D01*
X102646427Y-75154280D01*
X101600707Y-76200000D01*
X101614850Y-76214143D01*
X101614143Y-76214850D01*
X101600000Y-76200707D01*
X101585858Y-76214850D01*
X101585151Y-76214143D01*
X101599293Y-76200000D01*
X100553573Y-75154280D01*
X100248550Y-75218732D01*
X99975908Y-75810604D01*
X99950519Y-76461758D01*
X100142587Y-76981900D01*
X99255328Y-76981900D01*
X99217583Y-76890551D01*
X99005664Y-76678262D01*
X98728638Y-76563231D01*
X98428678Y-76562969D01*
X98151451Y-76677517D01*
X97939162Y-76889436D01*
X97824131Y-77166462D01*
X97823869Y-77466422D01*
X97938417Y-77743649D01*
X98150336Y-77955938D01*
X98427362Y-78070969D01*
X98563202Y-78071088D01*
X98600226Y-78095826D01*
X98821800Y-78139900D01*
X105513200Y-78139900D01*
X105532396Y-78136082D01*
X105567122Y-78310660D01*
X105584321Y-78336400D01*
X96781428Y-78336400D01*
X93003229Y-74558201D01*
X97730740Y-74558201D01*
X97932646Y-75046851D01*
X98306182Y-75421040D01*
X98794480Y-75623799D01*
X99323201Y-75624260D01*
X99811851Y-75422354D01*
X100186040Y-75048818D01*
X100258631Y-74874000D01*
X100613354Y-74874000D01*
X100554280Y-75153573D01*
X101600000Y-76199293D01*
X102645720Y-75153573D01*
X102586646Y-74874000D01*
X105455300Y-74874000D01*
X105676874Y-74829926D01*
X105864715Y-74704415D01*
X106786572Y-73782557D01*
X106871122Y-73782631D01*
X107148349Y-73668083D01*
X107360638Y-73456164D01*
X107475669Y-73179138D01*
X107475931Y-72879178D01*
X107361383Y-72601951D01*
X107149464Y-72389662D01*
X106872438Y-72274631D01*
X106572478Y-72274369D01*
X106295251Y-72388917D01*
X106082962Y-72600836D01*
X105967931Y-72877862D01*
X105967856Y-72963615D01*
X105215470Y-73716000D01*
X101871091Y-73716000D01*
X102351851Y-73517354D01*
X102726040Y-73143818D01*
X102928799Y-72655520D01*
X102929260Y-72126799D01*
X102727354Y-71638149D01*
X102353818Y-71263960D01*
X101865520Y-71061201D01*
X101336799Y-71060740D01*
X100848149Y-71262646D01*
X100473960Y-71636182D01*
X100271201Y-72124480D01*
X100270740Y-72653201D01*
X100472646Y-73141851D01*
X100846182Y-73516040D01*
X101327739Y-73716000D01*
X100258775Y-73716000D01*
X100187354Y-73543149D01*
X99813818Y-73168960D01*
X99325520Y-72966201D01*
X98796799Y-72965740D01*
X98308149Y-73167646D01*
X97933960Y-73541182D01*
X97731201Y-74029480D01*
X97730740Y-74558201D01*
X93003229Y-74558201D01*
X92254100Y-73809072D01*
X92254100Y-68580000D01*
X92293780Y-68580000D01*
X92393955Y-69083611D01*
X92679227Y-69510553D01*
X93102161Y-69793147D01*
X92880180Y-69793147D01*
X92674880Y-69831777D01*
X92486324Y-69953109D01*
X92359829Y-70138241D01*
X92315327Y-70358000D01*
X92315327Y-71882000D01*
X92353957Y-72087300D01*
X92475289Y-72275856D01*
X92660421Y-72402351D01*
X92880180Y-72446853D01*
X95079820Y-72446853D01*
X95285120Y-72408223D01*
X95473676Y-72286891D01*
X95600171Y-72101759D01*
X95644673Y-71882000D01*
X95644673Y-70358000D01*
X95606043Y-70152700D01*
X95484711Y-69964144D01*
X95299579Y-69837649D01*
X95079820Y-69793147D01*
X94857839Y-69793147D01*
X95280773Y-69510553D01*
X95566045Y-69083611D01*
X95666220Y-68580000D01*
X95566045Y-68076389D01*
X95280773Y-67649447D01*
X94853831Y-67364175D01*
X94350220Y-67264000D01*
X93609780Y-67264000D01*
X93106169Y-67364175D01*
X92679227Y-67649447D01*
X92393955Y-68076389D01*
X92293780Y-68580000D01*
X92254100Y-68580000D01*
X92254100Y-67695428D01*
X94517078Y-65432450D01*
X94637220Y-65382808D01*
X94877664Y-65142784D01*
X95007952Y-64829016D01*
X95008248Y-64489274D01*
X94914340Y-64262000D01*
X97927839Y-64262000D01*
X97927652Y-64476926D01*
X97927652Y-64476926D01*
G37*
X97927652Y-64476926D02*
X97987283Y-64621243D01*
X97982016Y-64624759D01*
X97651275Y-65119396D01*
X97635923Y-65196444D01*
X97379842Y-64813192D01*
X96985343Y-64549596D01*
X96520000Y-64457034D01*
X96054657Y-64549596D01*
X95660158Y-64813192D01*
X95396562Y-65207691D01*
X95304000Y-65673034D01*
X95304000Y-66406966D01*
X95396562Y-66872309D01*
X95660158Y-67266808D01*
X96054657Y-67530404D01*
X96520000Y-67622966D01*
X96985343Y-67530404D01*
X97103487Y-67451463D01*
X97103252Y-67721126D01*
X97232992Y-68035120D01*
X97473016Y-68275564D01*
X97594296Y-68325924D01*
X97780386Y-68512014D01*
X98041223Y-68686299D01*
X98348900Y-68747500D01*
X105742078Y-68747500D01*
X105567122Y-69009340D01*
X105515075Y-69271000D01*
X100796400Y-69271000D01*
X100574826Y-69315074D01*
X100386985Y-69440585D01*
X98233727Y-71593843D01*
X98149178Y-71593769D01*
X97871951Y-71708317D01*
X97659662Y-71920236D01*
X97544631Y-72197262D01*
X97544369Y-72497222D01*
X97658917Y-72774449D01*
X97870836Y-72986738D01*
X98147862Y-73101769D01*
X98447822Y-73102031D01*
X98725049Y-72987483D01*
X98937338Y-72775564D01*
X99052369Y-72498538D01*
X99052444Y-72412786D01*
X101036230Y-70429000D01*
X105515075Y-70429000D01*
X105567122Y-70690660D01*
X105828240Y-71081451D01*
X106219031Y-71342569D01*
X106680000Y-71434261D01*
X107140969Y-71342569D01*
X107531760Y-71081451D01*
X107792878Y-70690660D01*
X107884570Y-70229691D01*
X107884570Y-69470309D01*
X107792878Y-69009340D01*
X107617922Y-68747500D01*
X108282078Y-68747500D01*
X108107122Y-69009340D01*
X108015430Y-69470309D01*
X108015430Y-70229691D01*
X108107122Y-70690660D01*
X108368240Y-71081451D01*
X108759031Y-71342569D01*
X109220000Y-71434261D01*
X109680969Y-71342569D01*
X110071760Y-71081451D01*
X110093214Y-71049343D01*
X114721810Y-75677939D01*
X114537268Y-75625893D01*
X114300500Y-75797930D01*
X114300500Y-77469500D01*
X114320500Y-77469500D01*
X114320500Y-77470500D01*
X114300500Y-77470500D01*
X114300500Y-79142070D01*
X114537268Y-79314107D01*
X114878756Y-79217798D01*
X115077201Y-79085296D01*
X115088993Y-79144577D01*
X114977885Y-79255685D01*
X114852374Y-79443526D01*
X114808300Y-79665100D01*
X114808300Y-79817004D01*
X114765343Y-79788301D01*
X114300000Y-79695739D01*
X113834657Y-79788301D01*
X113440158Y-80051897D01*
X113355270Y-80178940D01*
X112621615Y-79445285D01*
X112579553Y-79417180D01*
X112433774Y-79319774D01*
X112212200Y-79275700D01*
X111091328Y-79275700D01*
X111301925Y-79065103D01*
X111760000Y-79156220D01*
X112259237Y-79056916D01*
X112682470Y-78774120D01*
X112917505Y-78422366D01*
X113230098Y-78889859D01*
X113721244Y-79217798D01*
X114062732Y-79314107D01*
X114299500Y-79142070D01*
X114299500Y-77470500D01*
X114279500Y-77470500D01*
X114279500Y-77469500D01*
X114299500Y-77469500D01*
X114299500Y-75797930D01*
X114062732Y-75625893D01*
X113721244Y-75722202D01*
X113230098Y-76050141D01*
X112917505Y-76517634D01*
X112682470Y-76165880D01*
X112259237Y-75883084D01*
X111760000Y-75783780D01*
X111260763Y-75883084D01*
X110837530Y-76165880D01*
X110554734Y-76589113D01*
X110455430Y-77088350D01*
X110455430Y-77637542D01*
X110424570Y-77668402D01*
X110424570Y-77090309D01*
X110332878Y-76629340D01*
X110071760Y-76238549D01*
X109680969Y-75977431D01*
X109220000Y-75885739D01*
X108759031Y-75977431D01*
X108368240Y-76238549D01*
X108107122Y-76629340D01*
X108015430Y-77090309D01*
X108015430Y-77849691D01*
X108107122Y-78310660D01*
X108124321Y-78336400D01*
X107775679Y-78336400D01*
X107792878Y-78310660D01*
X107884570Y-77849691D01*
X107884570Y-77090309D01*
X107792878Y-76629340D01*
X107531760Y-76238549D01*
X107140969Y-75977431D01*
X106680000Y-75885739D01*
X106219031Y-75977431D01*
X105828240Y-76238549D01*
X105567122Y-76629340D01*
X105511407Y-76909438D01*
X105382526Y-76935074D01*
X105312446Y-76981900D01*
X103043288Y-76981900D01*
X103224092Y-76589396D01*
X103249481Y-75938242D01*
X103023751Y-75326938D01*
X102951450Y-75218732D01*
X102646427Y-75154280D01*
X101600707Y-76200000D01*
X101614850Y-76214143D01*
X101614143Y-76214850D01*
X101600000Y-76200707D01*
X101585858Y-76214850D01*
X101585151Y-76214143D01*
X101599293Y-76200000D01*
X100553573Y-75154280D01*
X100248550Y-75218732D01*
X99975908Y-75810604D01*
X99950519Y-76461758D01*
X100142587Y-76981900D01*
X99255328Y-76981900D01*
X99217583Y-76890551D01*
X99005664Y-76678262D01*
X98728638Y-76563231D01*
X98428678Y-76562969D01*
X98151451Y-76677517D01*
X97939162Y-76889436D01*
X97824131Y-77166462D01*
X97823869Y-77466422D01*
X97938417Y-77743649D01*
X98150336Y-77955938D01*
X98427362Y-78070969D01*
X98563202Y-78071088D01*
X98600226Y-78095826D01*
X98821800Y-78139900D01*
X105513200Y-78139900D01*
X105532396Y-78136082D01*
X105567122Y-78310660D01*
X105584321Y-78336400D01*
X96781428Y-78336400D01*
X93003229Y-74558201D01*
X97730740Y-74558201D01*
X97932646Y-75046851D01*
X98306182Y-75421040D01*
X98794480Y-75623799D01*
X99323201Y-75624260D01*
X99811851Y-75422354D01*
X100186040Y-75048818D01*
X100258631Y-74874000D01*
X100613354Y-74874000D01*
X100554280Y-75153573D01*
X101600000Y-76199293D01*
X102645720Y-75153573D01*
X102586646Y-74874000D01*
X105455300Y-74874000D01*
X105676874Y-74829926D01*
X105864715Y-74704415D01*
X106786572Y-73782557D01*
X106871122Y-73782631D01*
X107148349Y-73668083D01*
X107360638Y-73456164D01*
X107475669Y-73179138D01*
X107475931Y-72879178D01*
X107361383Y-72601951D01*
X107149464Y-72389662D01*
X106872438Y-72274631D01*
X106572478Y-72274369D01*
X106295251Y-72388917D01*
X106082962Y-72600836D01*
X105967931Y-72877862D01*
X105967856Y-72963615D01*
X105215470Y-73716000D01*
X101871091Y-73716000D01*
X102351851Y-73517354D01*
X102726040Y-73143818D01*
X102928799Y-72655520D01*
X102929260Y-72126799D01*
X102727354Y-71638149D01*
X102353818Y-71263960D01*
X101865520Y-71061201D01*
X101336799Y-71060740D01*
X100848149Y-71262646D01*
X100473960Y-71636182D01*
X100271201Y-72124480D01*
X100270740Y-72653201D01*
X100472646Y-73141851D01*
X100846182Y-73516040D01*
X101327739Y-73716000D01*
X100258775Y-73716000D01*
X100187354Y-73543149D01*
X99813818Y-73168960D01*
X99325520Y-72966201D01*
X98796799Y-72965740D01*
X98308149Y-73167646D01*
X97933960Y-73541182D01*
X97731201Y-74029480D01*
X97730740Y-74558201D01*
X93003229Y-74558201D01*
X92254100Y-73809072D01*
X92254100Y-68580000D01*
X92293780Y-68580000D01*
X92393955Y-69083611D01*
X92679227Y-69510553D01*
X93102161Y-69793147D01*
X92880180Y-69793147D01*
X92674880Y-69831777D01*
X92486324Y-69953109D01*
X92359829Y-70138241D01*
X92315327Y-70358000D01*
X92315327Y-71882000D01*
X92353957Y-72087300D01*
X92475289Y-72275856D01*
X92660421Y-72402351D01*
X92880180Y-72446853D01*
X95079820Y-72446853D01*
X95285120Y-72408223D01*
X95473676Y-72286891D01*
X95600171Y-72101759D01*
X95644673Y-71882000D01*
X95644673Y-70358000D01*
X95606043Y-70152700D01*
X95484711Y-69964144D01*
X95299579Y-69837649D01*
X95079820Y-69793147D01*
X94857839Y-69793147D01*
X95280773Y-69510553D01*
X95566045Y-69083611D01*
X95666220Y-68580000D01*
X95566045Y-68076389D01*
X95280773Y-67649447D01*
X94853831Y-67364175D01*
X94350220Y-67264000D01*
X93609780Y-67264000D01*
X93106169Y-67364175D01*
X92679227Y-67649447D01*
X92393955Y-68076389D01*
X92293780Y-68580000D01*
X92254100Y-68580000D01*
X92254100Y-67695428D01*
X94517078Y-65432450D01*
X94637220Y-65382808D01*
X94877664Y-65142784D01*
X95007952Y-64829016D01*
X95008248Y-64489274D01*
X94914340Y-64262000D01*
X97927839Y-64262000D01*
X97927652Y-64476926D01*
G36*
X143170700Y-75953230D02*
X143044657Y-75978301D01*
X142650158Y-76241897D01*
X142563726Y-76371252D01*
X142490115Y-76261085D01*
X140682615Y-74453585D01*
X140660727Y-74438960D01*
X140494774Y-74328074D01*
X140273200Y-74284000D01*
X139346998Y-74284000D01*
X139287264Y-74224162D01*
X139010238Y-74109131D01*
X138710278Y-74108869D01*
X138433051Y-74223417D01*
X138220762Y-74435336D01*
X138105731Y-74712362D01*
X138105469Y-75012322D01*
X138220017Y-75289549D01*
X138431936Y-75501838D01*
X138685628Y-75607180D01*
X138621250Y-75607180D01*
X138430500Y-75797930D01*
X138430500Y-77469500D01*
X138450500Y-77469500D01*
X138450500Y-77470500D01*
X138430500Y-77470500D01*
X138430500Y-77490500D01*
X138429500Y-77490500D01*
X138429500Y-77470500D01*
X137095750Y-77470500D01*
X136905000Y-77661250D01*
X136905000Y-78625700D01*
X135186430Y-78625700D01*
X136355473Y-77456657D01*
X136440022Y-77456731D01*
X136717249Y-77342183D01*
X136905000Y-77154759D01*
X136905000Y-77278750D01*
X137095750Y-77469500D01*
X138429500Y-77469500D01*
X138429500Y-75797930D01*
X138238750Y-75607180D01*
X137516230Y-75607180D01*
X137235795Y-75723340D01*
X137021160Y-75937975D01*
X136905000Y-76218410D01*
X136905000Y-76250724D01*
X136718364Y-76063762D01*
X136441338Y-75948731D01*
X136141378Y-75948469D01*
X135864151Y-76063017D01*
X135651862Y-76274936D01*
X135536831Y-76551962D01*
X135536756Y-76637714D01*
X134174070Y-78000400D01*
X133281928Y-78000400D01*
X135546978Y-75735350D01*
X135667120Y-75685708D01*
X135907564Y-75445684D01*
X136037852Y-75131916D01*
X136038148Y-74792174D01*
X135908408Y-74478180D01*
X135668384Y-74237736D01*
X135354616Y-74107448D01*
X135014874Y-74107152D01*
X134700880Y-74236892D01*
X134460436Y-74476916D01*
X134410076Y-74598196D01*
X132753801Y-76254471D01*
X132515084Y-76015336D01*
X132201316Y-75885048D01*
X132116188Y-75884974D01*
X132138799Y-75830520D01*
X132139260Y-75301799D01*
X131987206Y-74933800D01*
X132655200Y-74933800D01*
X132855890Y-74893880D01*
X133084480Y-74988799D01*
X133613201Y-74989260D01*
X134101851Y-74787354D01*
X134476040Y-74413818D01*
X134678799Y-73925520D01*
X134679260Y-73396799D01*
X134477354Y-72908149D01*
X134103818Y-72533960D01*
X133615520Y-72331201D01*
X133086799Y-72330740D01*
X132598149Y-72532646D01*
X132223960Y-72906182D01*
X132021201Y-73394480D01*
X132020869Y-73775800D01*
X131907064Y-73775800D01*
X131907348Y-73450274D01*
X131777608Y-73136280D01*
X131765211Y-73123861D01*
X131791268Y-73106450D01*
X131855720Y-72801427D01*
X130810000Y-71755707D01*
X130795858Y-71769850D01*
X130795151Y-71769143D01*
X130809293Y-71755000D01*
X130795151Y-71740858D01*
X130795858Y-71740151D01*
X130810000Y-71754293D01*
X130824143Y-71740151D01*
X130824850Y-71740858D01*
X130810707Y-71755000D01*
X131856427Y-72800720D01*
X132161450Y-72736268D01*
X132434092Y-72144396D01*
X132459481Y-71493242D01*
X132268152Y-70975100D01*
X138192570Y-70975100D01*
X143170700Y-75953230D01*
X143170700Y-75953230D01*
G37*
X143170700Y-75953230D02*
X143044657Y-75978301D01*
X142650158Y-76241897D01*
X142563726Y-76371252D01*
X142490115Y-76261085D01*
X140682615Y-74453585D01*
X140660727Y-74438960D01*
X140494774Y-74328074D01*
X140273200Y-74284000D01*
X139346998Y-74284000D01*
X139287264Y-74224162D01*
X139010238Y-74109131D01*
X138710278Y-74108869D01*
X138433051Y-74223417D01*
X138220762Y-74435336D01*
X138105731Y-74712362D01*
X138105469Y-75012322D01*
X138220017Y-75289549D01*
X138431936Y-75501838D01*
X138685628Y-75607180D01*
X138621250Y-75607180D01*
X138430500Y-75797930D01*
X138430500Y-77469500D01*
X138450500Y-77469500D01*
X138450500Y-77470500D01*
X138430500Y-77470500D01*
X138430500Y-77490500D01*
X138429500Y-77490500D01*
X138429500Y-77470500D01*
X137095750Y-77470500D01*
X136905000Y-77661250D01*
X136905000Y-78625700D01*
X135186430Y-78625700D01*
X136355473Y-77456657D01*
X136440022Y-77456731D01*
X136717249Y-77342183D01*
X136905000Y-77154759D01*
X136905000Y-77278750D01*
X137095750Y-77469500D01*
X138429500Y-77469500D01*
X138429500Y-75797930D01*
X138238750Y-75607180D01*
X137516230Y-75607180D01*
X137235795Y-75723340D01*
X137021160Y-75937975D01*
X136905000Y-76218410D01*
X136905000Y-76250724D01*
X136718364Y-76063762D01*
X136441338Y-75948731D01*
X136141378Y-75948469D01*
X135864151Y-76063017D01*
X135651862Y-76274936D01*
X135536831Y-76551962D01*
X135536756Y-76637714D01*
X134174070Y-78000400D01*
X133281928Y-78000400D01*
X135546978Y-75735350D01*
X135667120Y-75685708D01*
X135907564Y-75445684D01*
X136037852Y-75131916D01*
X136038148Y-74792174D01*
X135908408Y-74478180D01*
X135668384Y-74237736D01*
X135354616Y-74107448D01*
X135014874Y-74107152D01*
X134700880Y-74236892D01*
X134460436Y-74476916D01*
X134410076Y-74598196D01*
X132753801Y-76254471D01*
X132515084Y-76015336D01*
X132201316Y-75885048D01*
X132116188Y-75884974D01*
X132138799Y-75830520D01*
X132139260Y-75301799D01*
X131987206Y-74933800D01*
X132655200Y-74933800D01*
X132855890Y-74893880D01*
X133084480Y-74988799D01*
X133613201Y-74989260D01*
X134101851Y-74787354D01*
X134476040Y-74413818D01*
X134678799Y-73925520D01*
X134679260Y-73396799D01*
X134477354Y-72908149D01*
X134103818Y-72533960D01*
X133615520Y-72331201D01*
X133086799Y-72330740D01*
X132598149Y-72532646D01*
X132223960Y-72906182D01*
X132021201Y-73394480D01*
X132020869Y-73775800D01*
X131907064Y-73775800D01*
X131907348Y-73450274D01*
X131777608Y-73136280D01*
X131765211Y-73123861D01*
X131791268Y-73106450D01*
X131855720Y-72801427D01*
X130810000Y-71755707D01*
X130795858Y-71769850D01*
X130795151Y-71769143D01*
X130809293Y-71755000D01*
X130795151Y-71740858D01*
X130795858Y-71740151D01*
X130810000Y-71754293D01*
X130824143Y-71740151D01*
X130824850Y-71740858D01*
X130810707Y-71755000D01*
X131856427Y-72800720D01*
X132161450Y-72736268D01*
X132434092Y-72144396D01*
X132459481Y-71493242D01*
X132268152Y-70975100D01*
X138192570Y-70975100D01*
X143170700Y-75953230D01*
G36*
X120807122Y-69009340D02*
X120715430Y-69470309D01*
X120715430Y-70229691D01*
X120807122Y-70690660D01*
X121068240Y-71081451D01*
X121459031Y-71342569D01*
X121920000Y-71434261D01*
X122380969Y-71342569D01*
X122771760Y-71081451D01*
X123032878Y-70690660D01*
X123124570Y-70229691D01*
X123124570Y-69470309D01*
X123032878Y-69009340D01*
X122857922Y-68747500D01*
X123522078Y-68747500D01*
X123347122Y-69009340D01*
X123255430Y-69470309D01*
X123255430Y-70229691D01*
X123347122Y-70690660D01*
X123608240Y-71081451D01*
X123999031Y-71342569D01*
X124460000Y-71434261D01*
X124920969Y-71342569D01*
X125311760Y-71081451D01*
X125566811Y-70699741D01*
X125672585Y-70805515D01*
X125860426Y-70931026D01*
X126082000Y-70975100D01*
X128171211Y-70975100D01*
X128170969Y-71251722D01*
X128285517Y-71528949D01*
X128497436Y-71741238D01*
X128774462Y-71856269D01*
X129074422Y-71856531D01*
X129168278Y-71817750D01*
X129160519Y-72016758D01*
X129386249Y-72628062D01*
X129458550Y-72736268D01*
X129763571Y-72800719D01*
X129748890Y-72815400D01*
X126158299Y-72815400D01*
X126184069Y-72753338D01*
X126184331Y-72453378D01*
X126069783Y-72176151D01*
X125857864Y-71963862D01*
X125580838Y-71848831D01*
X125280878Y-71848569D01*
X125003651Y-71963117D01*
X124942962Y-72023700D01*
X119042400Y-72023700D01*
X118820826Y-72067774D01*
X118732489Y-72126799D01*
X118632985Y-72193285D01*
X118308427Y-72517843D01*
X118223878Y-72517769D01*
X117946651Y-72632317D01*
X117734362Y-72844236D01*
X117619331Y-73121262D01*
X117619069Y-73421222D01*
X117733617Y-73698449D01*
X117945536Y-73910738D01*
X118222562Y-74025769D01*
X118522522Y-74026031D01*
X118799749Y-73911483D01*
X119012038Y-73699564D01*
X119127069Y-73422538D01*
X119127144Y-73336786D01*
X119282230Y-73181700D01*
X120881072Y-73181700D01*
X118811486Y-75251286D01*
X118637201Y-75512122D01*
X118595187Y-75723340D01*
X118576000Y-75819800D01*
X118576000Y-76086721D01*
X118457530Y-76165880D01*
X118222495Y-76517634D01*
X117909902Y-76050141D01*
X117418756Y-75722202D01*
X117077268Y-75625893D01*
X116840500Y-75797930D01*
X116840500Y-77469500D01*
X116860500Y-77469500D01*
X116860500Y-77470500D01*
X116840500Y-77470500D01*
X116840500Y-77490500D01*
X116839500Y-77490500D01*
X116839500Y-77470500D01*
X116819500Y-77470500D01*
X116819500Y-77469500D01*
X116839500Y-77469500D01*
X116839500Y-75797930D01*
X116602732Y-75625893D01*
X116261244Y-75722202D01*
X116213077Y-75754363D01*
X116173227Y-75554027D01*
X116098373Y-75442000D01*
X116047715Y-75366185D01*
X116047712Y-75366183D01*
X112141804Y-71460275D01*
X112259237Y-71436916D01*
X112682470Y-71154120D01*
X112917505Y-70802366D01*
X113230098Y-71269859D01*
X113721244Y-71597798D01*
X114062732Y-71694107D01*
X114299500Y-71522070D01*
X114299500Y-69850500D01*
X114300500Y-69850500D01*
X114300500Y-71522070D01*
X114537268Y-71694107D01*
X114878756Y-71597798D01*
X115369902Y-71269859D01*
X115570000Y-70970605D01*
X115770098Y-71269859D01*
X116261244Y-71597798D01*
X116602732Y-71694107D01*
X116839500Y-71522070D01*
X116839500Y-69850500D01*
X114300500Y-69850500D01*
X114299500Y-69850500D01*
X114279500Y-69850500D01*
X114279500Y-69849500D01*
X114299500Y-69849500D01*
X114299500Y-69829500D01*
X114300500Y-69829500D01*
X114300500Y-69849500D01*
X116839500Y-69849500D01*
X116839500Y-69829500D01*
X116840500Y-69829500D01*
X116840500Y-69849500D01*
X116860500Y-69849500D01*
X116860500Y-69850500D01*
X116840500Y-69850500D01*
X116840500Y-71522070D01*
X117077268Y-71694107D01*
X117418756Y-71597798D01*
X117909902Y-71269859D01*
X118222495Y-70802366D01*
X118457530Y-71154120D01*
X118880763Y-71436916D01*
X119380000Y-71536220D01*
X119879237Y-71436916D01*
X120302470Y-71154120D01*
X120585266Y-70730887D01*
X120684570Y-70231650D01*
X120684570Y-69468350D01*
X120585266Y-68969113D01*
X120437189Y-68747500D01*
X120982078Y-68747500D01*
X120807122Y-69009340D01*
X120807122Y-69009340D01*
G37*
X120807122Y-69009340D02*
X120715430Y-69470309D01*
X120715430Y-70229691D01*
X120807122Y-70690660D01*
X121068240Y-71081451D01*
X121459031Y-71342569D01*
X121920000Y-71434261D01*
X122380969Y-71342569D01*
X122771760Y-71081451D01*
X123032878Y-70690660D01*
X123124570Y-70229691D01*
X123124570Y-69470309D01*
X123032878Y-69009340D01*
X122857922Y-68747500D01*
X123522078Y-68747500D01*
X123347122Y-69009340D01*
X123255430Y-69470309D01*
X123255430Y-70229691D01*
X123347122Y-70690660D01*
X123608240Y-71081451D01*
X123999031Y-71342569D01*
X124460000Y-71434261D01*
X124920969Y-71342569D01*
X125311760Y-71081451D01*
X125566811Y-70699741D01*
X125672585Y-70805515D01*
X125860426Y-70931026D01*
X126082000Y-70975100D01*
X128171211Y-70975100D01*
X128170969Y-71251722D01*
X128285517Y-71528949D01*
X128497436Y-71741238D01*
X128774462Y-71856269D01*
X129074422Y-71856531D01*
X129168278Y-71817750D01*
X129160519Y-72016758D01*
X129386249Y-72628062D01*
X129458550Y-72736268D01*
X129763571Y-72800719D01*
X129748890Y-72815400D01*
X126158299Y-72815400D01*
X126184069Y-72753338D01*
X126184331Y-72453378D01*
X126069783Y-72176151D01*
X125857864Y-71963862D01*
X125580838Y-71848831D01*
X125280878Y-71848569D01*
X125003651Y-71963117D01*
X124942962Y-72023700D01*
X119042400Y-72023700D01*
X118820826Y-72067774D01*
X118732489Y-72126799D01*
X118632985Y-72193285D01*
X118308427Y-72517843D01*
X118223878Y-72517769D01*
X117946651Y-72632317D01*
X117734362Y-72844236D01*
X117619331Y-73121262D01*
X117619069Y-73421222D01*
X117733617Y-73698449D01*
X117945536Y-73910738D01*
X118222562Y-74025769D01*
X118522522Y-74026031D01*
X118799749Y-73911483D01*
X119012038Y-73699564D01*
X119127069Y-73422538D01*
X119127144Y-73336786D01*
X119282230Y-73181700D01*
X120881072Y-73181700D01*
X118811486Y-75251286D01*
X118637201Y-75512122D01*
X118595187Y-75723340D01*
X118576000Y-75819800D01*
X118576000Y-76086721D01*
X118457530Y-76165880D01*
X118222495Y-76517634D01*
X117909902Y-76050141D01*
X117418756Y-75722202D01*
X117077268Y-75625893D01*
X116840500Y-75797930D01*
X116840500Y-77469500D01*
X116860500Y-77469500D01*
X116860500Y-77470500D01*
X116840500Y-77470500D01*
X116840500Y-77490500D01*
X116839500Y-77490500D01*
X116839500Y-77470500D01*
X116819500Y-77470500D01*
X116819500Y-77469500D01*
X116839500Y-77469500D01*
X116839500Y-75797930D01*
X116602732Y-75625893D01*
X116261244Y-75722202D01*
X116213077Y-75754363D01*
X116173227Y-75554027D01*
X116098373Y-75442000D01*
X116047715Y-75366185D01*
X116047712Y-75366183D01*
X112141804Y-71460275D01*
X112259237Y-71436916D01*
X112682470Y-71154120D01*
X112917505Y-70802366D01*
X113230098Y-71269859D01*
X113721244Y-71597798D01*
X114062732Y-71694107D01*
X114299500Y-71522070D01*
X114299500Y-69850500D01*
X114300500Y-69850500D01*
X114300500Y-71522070D01*
X114537268Y-71694107D01*
X114878756Y-71597798D01*
X115369902Y-71269859D01*
X115570000Y-70970605D01*
X115770098Y-71269859D01*
X116261244Y-71597798D01*
X116602732Y-71694107D01*
X116839500Y-71522070D01*
X116839500Y-69850500D01*
X114300500Y-69850500D01*
X114299500Y-69850500D01*
X114279500Y-69850500D01*
X114279500Y-69849500D01*
X114299500Y-69849500D01*
X114299500Y-69829500D01*
X114300500Y-69829500D01*
X114300500Y-69849500D01*
X116839500Y-69849500D01*
X116839500Y-69829500D01*
X116840500Y-69829500D01*
X116840500Y-69849500D01*
X116860500Y-69849500D01*
X116860500Y-69850500D01*
X116840500Y-69850500D01*
X116840500Y-71522070D01*
X117077268Y-71694107D01*
X117418756Y-71597798D01*
X117909902Y-71269859D01*
X118222495Y-70802366D01*
X118457530Y-71154120D01*
X118880763Y-71436916D01*
X119380000Y-71536220D01*
X119879237Y-71436916D01*
X120302470Y-71154120D01*
X120585266Y-70730887D01*
X120684570Y-70231650D01*
X120684570Y-69468350D01*
X120585266Y-68969113D01*
X120437189Y-68747500D01*
X120982078Y-68747500D01*
X120807122Y-69009340D01*
G36*
X99060500Y-66039500D02*
X99080500Y-66039500D01*
X99080500Y-66040500D01*
X99060500Y-66040500D01*
X99060500Y-66060500D01*
X99059500Y-66060500D01*
X99059500Y-66040500D01*
X99039500Y-66040500D01*
X99039500Y-66039500D01*
X99059500Y-66039500D01*
X99059500Y-66019500D01*
X99060500Y-66019500D01*
X99060500Y-66039500D01*
X99060500Y-66039500D01*
G37*
X99060500Y-66039500D02*
X99080500Y-66039500D01*
X99080500Y-66040500D01*
X99060500Y-66040500D01*
X99060500Y-66060500D01*
X99059500Y-66060500D01*
X99059500Y-66040500D01*
X99039500Y-66040500D01*
X99039500Y-66039500D01*
X99059500Y-66039500D01*
X99059500Y-66019500D01*
X99060500Y-66019500D01*
X99060500Y-66039500D01*
M02*
