G04 #@! TF.FileFunction,Legend,Top*
%FSLAX46Y46*%
G04 Gerber Fmt 4.6, Leading zero omitted, Abs format (unit mm)*
G04 Created by KiCad (PCBNEW 0.201508080901+6071~28~ubuntu14.04.1-product) date lun 10 ago 2015 21:40:22 CEST*
%MOMM*%
G01*
G04 APERTURE LIST*
%ADD10C,0.200000*%
%ADD11C,0.381000*%
%ADD12C,0.304800*%
%ADD13C,0.254000*%
%ADD14C,0.285750*%
%ADD15C,0.287020*%
%ADD16C,0.203200*%
G04 APERTURE END LIST*
D10*
D11*
X105410000Y-72390000D02*
X105410000Y-74930000D01*
X126746000Y-76962000D02*
X104394000Y-76962000D01*
X104394000Y-70358000D02*
X126746000Y-70358000D01*
X105410000Y-74930000D02*
X104394000Y-74930000D01*
X105410000Y-72390000D02*
X104394000Y-72390000D01*
X126746000Y-70358000D02*
X126746000Y-76962000D01*
X104394000Y-76962000D02*
X104394000Y-70358000D01*
X131445000Y-76200000D02*
X131445000Y-71120000D01*
X131445000Y-76200000D02*
X130175000Y-75565000D01*
X130175000Y-75565000D02*
X130175000Y-71755000D01*
X130175000Y-71755000D02*
X131445000Y-71120000D01*
X131445000Y-76200000D02*
G75*
G03X133985000Y-73660000I0J2540000D01*
G01*
X133985000Y-73660000D02*
G75*
G03X131445000Y-71120000I-2540000J0D01*
G01*
X100965000Y-71755000D02*
X100965000Y-76835000D01*
X100965000Y-71755000D02*
X102235000Y-72390000D01*
X102235000Y-72390000D02*
X102235000Y-76200000D01*
X102235000Y-76200000D02*
X100965000Y-76835000D01*
X100965000Y-71755000D02*
G75*
G03X98425000Y-74295000I0J-2540000D01*
G01*
X98425000Y-74295000D02*
G75*
G03X100965000Y-76835000I2540000J0D01*
G01*
D12*
X144780000Y-67310000D02*
X147320000Y-64770000D01*
X149860000Y-67310000D02*
X144780000Y-67310000D01*
X144780000Y-64770000D02*
X149860000Y-64770000D01*
X144780000Y-67310000D02*
X144780000Y-64770000D01*
X149860000Y-64770000D02*
X149860000Y-67310000D01*
X95250000Y-72390000D02*
X92710000Y-69850000D01*
X95250000Y-67310000D02*
X95250000Y-72390000D01*
X92710000Y-72390000D02*
X92710000Y-67310000D01*
X95250000Y-72390000D02*
X92710000Y-72390000D01*
X92710000Y-67310000D02*
X95250000Y-67310000D01*
X126825000Y-84725000D02*
X126825000Y-86725000D01*
X126825000Y-86725000D02*
X120825000Y-86725000D01*
X120825000Y-84725000D02*
X126825000Y-84725000D01*
X120825000Y-86725000D02*
X120825000Y-84725000D01*
X122825000Y-84725000D02*
X122825000Y-86725000D01*
D13*
X91440000Y-75057000D02*
X91440000Y-79883000D01*
X89027000Y-77470000D02*
X93853000Y-77470000D01*
X93472000Y-77470000D02*
G75*
G03X93472000Y-77470000I-2032000J0D01*
G01*
X141605000Y-64897000D02*
X141605000Y-69723000D01*
X139192000Y-67310000D02*
X144018000Y-67310000D01*
X143637000Y-67310000D02*
G75*
G03X143637000Y-67310000I-2032000J0D01*
G01*
D12*
X113840000Y-86725000D02*
X113840000Y-84725000D01*
X113840000Y-84725000D02*
X119840000Y-84725000D01*
X119840000Y-86725000D02*
X113840000Y-86725000D01*
X119840000Y-84725000D02*
X119840000Y-86725000D01*
X117840000Y-86725000D02*
X117840000Y-84725000D01*
D11*
X97790000Y-72390000D02*
X92710000Y-72390000D01*
X97790000Y-74930000D02*
X92710000Y-74930000D01*
X95250000Y-69850000D02*
X95250000Y-77470000D01*
X92710000Y-69850000D02*
X97790000Y-69850000D01*
X97790000Y-69850000D02*
X97790000Y-77470000D01*
X97790000Y-77470000D02*
X92710000Y-77470000D01*
X135890000Y-64770000D02*
X92710000Y-64770000D01*
X92710000Y-82550000D02*
X135890000Y-82550000D01*
X92710000Y-82550000D02*
X92710000Y-64770000D01*
X135890000Y-82550000D02*
X135890000Y-64770000D01*
X95250000Y-66040000D02*
G75*
G03X95250000Y-66040000I-1270000J0D01*
G01*
X95250000Y-81280000D02*
G75*
G03X95250000Y-81280000I-1270000J0D01*
G01*
X135890000Y-66040000D02*
G75*
G03X135890000Y-66040000I-1270000J0D01*
G01*
X135890000Y-81280000D02*
G75*
G03X135890000Y-81280000I-1270000J0D01*
G01*
X133350000Y-67310000D02*
X95250000Y-67310000D01*
X95250000Y-80010000D02*
X133350000Y-80010000D01*
X133350000Y-82550000D02*
X133350000Y-80010000D01*
X133350000Y-67310000D02*
X133350000Y-64770000D01*
X95250000Y-64770000D02*
X95250000Y-67310000D01*
X95250000Y-82550000D02*
X95250000Y-80010000D01*
D12*
X147320000Y-86360000D02*
X147320000Y-83820000D01*
X149860000Y-83820000D02*
X149860000Y-86360000D01*
X149860000Y-86360000D02*
X134620000Y-86360000D01*
X134620000Y-86360000D02*
X134620000Y-83820000D01*
X134620000Y-83820000D02*
X149860000Y-83820000D01*
X92710000Y-86360000D02*
X95250000Y-83820000D01*
X97790000Y-86360000D02*
X92710000Y-86360000D01*
X92710000Y-83820000D02*
X97790000Y-83820000D01*
X92710000Y-86360000D02*
X92710000Y-83820000D01*
X97790000Y-83820000D02*
X97790000Y-86360000D01*
X104140000Y-83820000D02*
X104140000Y-86360000D01*
X106680000Y-86360000D02*
X99060000Y-86360000D01*
X99060000Y-86360000D02*
X99060000Y-83820000D01*
X99060000Y-83820000D02*
X106680000Y-83820000D01*
X106680000Y-83820000D02*
X106680000Y-86360000D01*
X139700000Y-76200000D02*
X139700000Y-78740000D01*
X149860000Y-78740000D02*
X137160000Y-78740000D01*
X137160000Y-76200000D02*
X149860000Y-76200000D01*
X137160000Y-78740000D02*
X137160000Y-76200000D01*
X149860000Y-76200000D02*
X149860000Y-78740000D01*
X139700000Y-80010000D02*
X139700000Y-82550000D01*
X149860000Y-82550000D02*
X137160000Y-82550000D01*
X137160000Y-80010000D02*
X149860000Y-80010000D01*
X137160000Y-82550000D02*
X137160000Y-80010000D01*
X149860000Y-80010000D02*
X149860000Y-82550000D01*
D14*
X113719430Y-80953429D02*
X113175144Y-80953429D01*
X113175144Y-79429429D01*
X114046001Y-79574571D02*
X114100430Y-79502000D01*
X114209287Y-79429429D01*
X114481430Y-79429429D01*
X114590287Y-79502000D01*
X114644716Y-79574571D01*
X114699144Y-79719714D01*
X114699144Y-79864857D01*
X114644716Y-80082571D01*
X113991573Y-80953429D01*
X114699144Y-80953429D01*
X115243429Y-80953429D02*
X115461144Y-80953429D01*
X115570001Y-80880857D01*
X115624429Y-80808286D01*
X115733287Y-80590571D01*
X115787715Y-80300286D01*
X115787715Y-79719714D01*
X115733287Y-79574571D01*
X115678858Y-79502000D01*
X115570001Y-79429429D01*
X115352287Y-79429429D01*
X115243429Y-79502000D01*
X115189001Y-79574571D01*
X115134572Y-79719714D01*
X115134572Y-80082571D01*
X115189001Y-80227714D01*
X115243429Y-80300286D01*
X115352287Y-80372857D01*
X115570001Y-80372857D01*
X115678858Y-80300286D01*
X115733287Y-80227714D01*
X115787715Y-80082571D01*
X116168715Y-79429429D02*
X116876286Y-79429429D01*
X116495286Y-80010000D01*
X116658572Y-80010000D01*
X116767429Y-80082571D01*
X116821858Y-80155143D01*
X116876286Y-80300286D01*
X116876286Y-80663143D01*
X116821858Y-80808286D01*
X116767429Y-80880857D01*
X116658572Y-80953429D01*
X116332000Y-80953429D01*
X116223143Y-80880857D01*
X116168715Y-80808286D01*
X117366143Y-80953429D02*
X117366143Y-79429429D01*
X117638286Y-79429429D01*
X117801571Y-79502000D01*
X117910429Y-79647143D01*
X117964857Y-79792286D01*
X118019286Y-80082571D01*
X118019286Y-80300286D01*
X117964857Y-80590571D01*
X117910429Y-80735714D01*
X117801571Y-80880857D01*
X117638286Y-80953429D01*
X117366143Y-80953429D01*
D15*
D16*
X93169619Y-74409904D02*
X92153619Y-74409904D01*
X92153619Y-74022857D01*
X92202000Y-73926095D01*
X92250381Y-73877714D01*
X92347143Y-73829333D01*
X92492286Y-73829333D01*
X92589048Y-73877714D01*
X92637429Y-73926095D01*
X92685810Y-74022857D01*
X92685810Y-74409904D01*
X92492286Y-72958476D02*
X93169619Y-72958476D01*
X92105238Y-73200380D02*
X92830952Y-73442285D01*
X92830952Y-72813333D01*
X95963619Y-71585666D02*
X95963619Y-71416333D01*
X96012000Y-71331666D01*
X96108762Y-71246999D01*
X96302286Y-71204666D01*
X96640952Y-71204666D01*
X96834476Y-71246999D01*
X96931238Y-71331666D01*
X96979619Y-71416333D01*
X96979619Y-71585666D01*
X96931238Y-71670333D01*
X96834476Y-71754999D01*
X96640952Y-71797333D01*
X96302286Y-71797333D01*
X96108762Y-71754999D01*
X96012000Y-71670333D01*
X95963619Y-71585666D01*
X95963619Y-70823666D02*
X96786095Y-70823666D01*
X96882857Y-70781333D01*
X96931238Y-70739000D01*
X96979619Y-70654333D01*
X96979619Y-70485000D01*
X96931238Y-70400333D01*
X96882857Y-70358000D01*
X96786095Y-70315666D01*
X95963619Y-70315666D01*
X95963619Y-70019333D02*
X95963619Y-69511333D01*
X96979619Y-69765333D02*
X95963619Y-69765333D01*
X95963619Y-69299667D02*
X95963619Y-68749334D01*
X96350667Y-69045667D01*
X96350667Y-68918667D01*
X96399048Y-68834000D01*
X96447429Y-68791667D01*
X96544190Y-68749334D01*
X96786095Y-68749334D01*
X96882857Y-68791667D01*
X96931238Y-68834000D01*
X96979619Y-68918667D01*
X96979619Y-69172667D01*
X96931238Y-69257334D01*
X96882857Y-69299667D01*
X96302286Y-67987333D02*
X96979619Y-67987333D01*
X95915238Y-68199000D02*
X96640952Y-68410667D01*
X96640952Y-67860333D01*
X123075096Y-84025619D02*
X123075096Y-83009619D01*
X123462143Y-83009619D01*
X123558905Y-83058000D01*
X123607286Y-83106381D01*
X123655667Y-83203143D01*
X123655667Y-83348286D01*
X123607286Y-83445048D01*
X123558905Y-83493429D01*
X123462143Y-83541810D01*
X123075096Y-83541810D01*
X124574905Y-83009619D02*
X124091096Y-83009619D01*
X124042715Y-83493429D01*
X124091096Y-83445048D01*
X124187858Y-83396667D01*
X124429762Y-83396667D01*
X124526524Y-83445048D01*
X124574905Y-83493429D01*
X124623286Y-83590190D01*
X124623286Y-83832095D01*
X124574905Y-83928857D01*
X124526524Y-83977238D01*
X124429762Y-84025619D01*
X124187858Y-84025619D01*
X124091096Y-83977238D01*
X124042715Y-83928857D01*
D12*
X90315143Y-74603429D02*
X90315143Y-73079429D01*
X90895715Y-73079429D01*
X91040857Y-73152000D01*
X91113429Y-73224571D01*
X91186000Y-73369714D01*
X91186000Y-73587429D01*
X91113429Y-73732571D01*
X91040857Y-73805143D01*
X90895715Y-73877714D01*
X90315143Y-73877714D01*
X92492286Y-73079429D02*
X92202000Y-73079429D01*
X92056857Y-73152000D01*
X91984286Y-73224571D01*
X91839143Y-73442286D01*
X91766572Y-73732571D01*
X91766572Y-74313143D01*
X91839143Y-74458286D01*
X91911715Y-74530857D01*
X92056857Y-74603429D01*
X92347143Y-74603429D01*
X92492286Y-74530857D01*
X92564857Y-74458286D01*
X92637429Y-74313143D01*
X92637429Y-73950286D01*
X92564857Y-73805143D01*
X92492286Y-73732571D01*
X92347143Y-73660000D01*
X92056857Y-73660000D01*
X91911715Y-73732571D01*
X91839143Y-73805143D01*
X91766572Y-73950286D01*
D16*
X112280096Y-84279619D02*
X112280096Y-83263619D01*
X112667143Y-83263619D01*
X112763905Y-83312000D01*
X112812286Y-83360381D01*
X112860667Y-83457143D01*
X112860667Y-83602286D01*
X112812286Y-83699048D01*
X112763905Y-83747429D01*
X112667143Y-83795810D01*
X112280096Y-83795810D01*
X113441239Y-83699048D02*
X113344477Y-83650667D01*
X113296096Y-83602286D01*
X113247715Y-83505524D01*
X113247715Y-83457143D01*
X113296096Y-83360381D01*
X113344477Y-83312000D01*
X113441239Y-83263619D01*
X113634762Y-83263619D01*
X113731524Y-83312000D01*
X113779905Y-83360381D01*
X113828286Y-83457143D01*
X113828286Y-83505524D01*
X113779905Y-83602286D01*
X113731524Y-83650667D01*
X113634762Y-83699048D01*
X113441239Y-83699048D01*
X113344477Y-83747429D01*
X113296096Y-83795810D01*
X113247715Y-83892571D01*
X113247715Y-84086095D01*
X113296096Y-84182857D01*
X113344477Y-84231238D01*
X113441239Y-84279619D01*
X113634762Y-84279619D01*
X113731524Y-84231238D01*
X113779905Y-84182857D01*
X113828286Y-84086095D01*
X113828286Y-83892571D01*
X113779905Y-83795810D01*
X113731524Y-83747429D01*
X113634762Y-83699048D01*
X114300000Y-84279619D02*
X114300000Y-83263619D01*
X114300000Y-83747429D02*
X114808000Y-83747429D01*
X114808000Y-84279619D02*
X114808000Y-83263619D01*
X115188999Y-83989333D02*
X115612333Y-83989333D01*
X115104333Y-84279619D02*
X115400666Y-83263619D01*
X115696999Y-84279619D01*
X116416666Y-84279619D02*
X115993333Y-84279619D01*
X115993333Y-83263619D01*
X117136333Y-84279619D02*
X116713000Y-84279619D01*
X116713000Y-83263619D01*
X117221000Y-84376381D02*
X117898333Y-84376381D01*
X118279333Y-83263619D02*
X118364000Y-83263619D01*
X118448666Y-83312000D01*
X118491000Y-83360381D01*
X118533333Y-83457143D01*
X118575666Y-83650667D01*
X118575666Y-83892571D01*
X118533333Y-84086095D01*
X118491000Y-84182857D01*
X118448666Y-84231238D01*
X118364000Y-84279619D01*
X118279333Y-84279619D01*
X118194666Y-84231238D01*
X118152333Y-84182857D01*
X118110000Y-84086095D01*
X118067666Y-83892571D01*
X118067666Y-83650667D01*
X118110000Y-83457143D01*
X118152333Y-83360381D01*
X118194666Y-83312000D01*
X118279333Y-83263619D01*
X118914333Y-83360381D02*
X118956667Y-83312000D01*
X119041333Y-83263619D01*
X119253000Y-83263619D01*
X119337667Y-83312000D01*
X119380000Y-83360381D01*
X119422333Y-83457143D01*
X119422333Y-83553905D01*
X119380000Y-83699048D01*
X118872000Y-84279619D01*
X119422333Y-84279619D01*
X141490096Y-87708619D02*
X141490096Y-86692619D01*
X141877143Y-86692619D01*
X141973905Y-86741000D01*
X142022286Y-86789381D01*
X142070667Y-86886143D01*
X142070667Y-87031286D01*
X142022286Y-87128048D01*
X141973905Y-87176429D01*
X141877143Y-87224810D01*
X141490096Y-87224810D01*
X142457715Y-86789381D02*
X142506096Y-86741000D01*
X142602858Y-86692619D01*
X142844762Y-86692619D01*
X142941524Y-86741000D01*
X142989905Y-86789381D01*
X143038286Y-86886143D01*
X143038286Y-86982905D01*
X142989905Y-87128048D01*
X142409334Y-87708619D01*
X143038286Y-87708619D01*
X98310096Y-84279619D02*
X98310096Y-83263619D01*
X98697143Y-83263619D01*
X98793905Y-83312000D01*
X98842286Y-83360381D01*
X98890667Y-83457143D01*
X98890667Y-83602286D01*
X98842286Y-83699048D01*
X98793905Y-83747429D01*
X98697143Y-83795810D01*
X98310096Y-83795810D01*
X99374477Y-84279619D02*
X99568001Y-84279619D01*
X99664762Y-84231238D01*
X99713143Y-84182857D01*
X99809905Y-84037714D01*
X99858286Y-83844190D01*
X99858286Y-83457143D01*
X99809905Y-83360381D01*
X99761524Y-83312000D01*
X99664762Y-83263619D01*
X99471239Y-83263619D01*
X99374477Y-83312000D01*
X99326096Y-83360381D01*
X99277715Y-83457143D01*
X99277715Y-83699048D01*
X99326096Y-83795810D01*
X99374477Y-83844190D01*
X99471239Y-83892571D01*
X99664762Y-83892571D01*
X99761524Y-83844190D01*
X99809905Y-83795810D01*
X99858286Y-83699048D01*
X101636286Y-87708619D02*
X101636286Y-86692619D01*
X102023333Y-86692619D01*
X102120095Y-86741000D01*
X102168476Y-86789381D01*
X102216857Y-86886143D01*
X102216857Y-87031286D01*
X102168476Y-87128048D01*
X102120095Y-87176429D01*
X102023333Y-87224810D01*
X101636286Y-87224810D01*
X103184476Y-87708619D02*
X102603905Y-87708619D01*
X102894191Y-87708619D02*
X102894191Y-86692619D01*
X102797429Y-86837762D01*
X102700667Y-86934524D01*
X102603905Y-86982905D01*
X103813429Y-86692619D02*
X103910190Y-86692619D01*
X104006952Y-86741000D01*
X104055333Y-86789381D01*
X104103714Y-86886143D01*
X104152095Y-87079667D01*
X104152095Y-87321571D01*
X104103714Y-87515095D01*
X104055333Y-87611857D01*
X104006952Y-87660238D01*
X103910190Y-87708619D01*
X103813429Y-87708619D01*
X103716667Y-87660238D01*
X103668286Y-87611857D01*
X103619905Y-87515095D01*
X103571524Y-87321571D01*
X103571524Y-87079667D01*
X103619905Y-86886143D01*
X103668286Y-86789381D01*
X103716667Y-86741000D01*
X103813429Y-86692619D01*
X142760096Y-75770619D02*
X142760096Y-74754619D01*
X143147143Y-74754619D01*
X143243905Y-74803000D01*
X143292286Y-74851381D01*
X143340667Y-74948143D01*
X143340667Y-75093286D01*
X143292286Y-75190048D01*
X143243905Y-75238429D01*
X143147143Y-75286810D01*
X142760096Y-75286810D01*
X143679334Y-74754619D02*
X144308286Y-74754619D01*
X143969620Y-75141667D01*
X144114762Y-75141667D01*
X144211524Y-75190048D01*
X144259905Y-75238429D01*
X144308286Y-75335190D01*
X144308286Y-75577095D01*
X144259905Y-75673857D01*
X144211524Y-75722238D01*
X144114762Y-75770619D01*
X143824477Y-75770619D01*
X143727715Y-75722238D01*
X143679334Y-75673857D01*
X142276286Y-79580619D02*
X142276286Y-78564619D01*
X142663333Y-78564619D01*
X142760095Y-78613000D01*
X142808476Y-78661381D01*
X142856857Y-78758143D01*
X142856857Y-78903286D01*
X142808476Y-79000048D01*
X142760095Y-79048429D01*
X142663333Y-79096810D01*
X142276286Y-79096810D01*
X143824476Y-79580619D02*
X143243905Y-79580619D01*
X143534191Y-79580619D02*
X143534191Y-78564619D01*
X143437429Y-78709762D01*
X143340667Y-78806524D01*
X143243905Y-78854905D01*
X144792095Y-79580619D02*
X144211524Y-79580619D01*
X144501810Y-79580619D02*
X144501810Y-78564619D01*
X144405048Y-78709762D01*
X144308286Y-78806524D01*
X144211524Y-78854905D01*
M02*
