G04 #@! TF.FileFunction,Copper,L1,Top,Signal*
%FSLAX46Y46*%
G04 Gerber Fmt 4.6, Leading zero omitted, Abs format (unit mm)*
G04 Created by KiCad (PCBNEW 0.201506222247+5806~23~ubuntu14.04.1-product) date mar 23 giu 2015 18:59:40 CEST*
%MOMM*%
G01*
G04 APERTURE LIST*
%ADD10C,0.200000*%
%ADD11O,1.501140X2.199640*%
%ADD12C,1.750060*%
%ADD13R,2.199640X1.524000*%
%ADD14O,2.199640X1.524000*%
%ADD15R,1.300000X1.800000*%
%ADD16O,1.300000X1.800000*%
%ADD17C,3.500120*%
%ADD18O,1.524000X2.199640*%
%ADD19O,1.524000X2.197100*%
%ADD20R,1.524000X2.199640*%
%ADD21C,0.600000*%
%ADD22C,0.500000*%
%ADD23C,0.250000*%
G04 APERTURE END LIST*
D10*
D11*
X106680000Y-77470000D03*
X109220000Y-77470000D03*
X111760000Y-77470000D03*
X114300000Y-77470000D03*
X116840000Y-77470000D03*
X119380000Y-77470000D03*
X121920000Y-77470000D03*
X124460000Y-77470000D03*
X124460000Y-69850000D03*
X121920000Y-69850000D03*
X119380000Y-69850000D03*
X116840000Y-69850000D03*
X114300000Y-69850000D03*
X111760000Y-69850000D03*
X109220000Y-69850000D03*
X106680000Y-69850000D03*
D12*
X130810000Y-75565000D03*
X133350000Y-73660000D03*
X130810000Y-71755000D03*
X101600000Y-72390000D03*
X99060000Y-74295000D03*
X101600000Y-76200000D03*
D13*
X148590000Y-69215000D03*
D14*
X148590000Y-71755000D03*
D13*
X148590000Y-77470000D03*
D14*
X148590000Y-80010000D03*
X148590000Y-82550000D03*
X148590000Y-85090000D03*
D13*
X93980000Y-71120000D03*
D14*
X93980000Y-68580000D03*
D15*
X121825000Y-85725000D03*
D16*
X123825000Y-85725000D03*
X125825000Y-85725000D03*
D17*
X94615000Y-76835000D03*
X144145000Y-66675000D03*
D15*
X118840000Y-85725000D03*
D16*
X116840000Y-85725000D03*
X114840000Y-85725000D03*
D18*
X96520000Y-81280000D03*
X99060000Y-81280000D03*
X101600000Y-81280000D03*
X104140000Y-81280000D03*
X106680000Y-81280000D03*
X109220000Y-81280000D03*
X111760000Y-81280000D03*
X114300000Y-81280000D03*
X116840000Y-81280000D03*
X119380000Y-81280000D03*
X121920000Y-81280000D03*
X124460000Y-81280000D03*
X127000000Y-81280000D03*
X129540000Y-81280000D03*
X132080000Y-81280000D03*
X132080000Y-66040000D03*
X129540000Y-66040000D03*
X127000000Y-66040000D03*
X124460000Y-66040000D03*
D19*
X121920000Y-66040000D03*
X119380000Y-66040000D03*
X116840000Y-66040000D03*
X114300000Y-66040000D03*
X111760000Y-66040000D03*
X109220000Y-66040000D03*
X106680000Y-66040000D03*
X104140000Y-66040000D03*
X101600000Y-66040000D03*
X99060000Y-66040000D03*
X96520000Y-66040000D03*
D13*
X140335000Y-85090000D03*
D14*
X140335000Y-82550000D03*
X140335000Y-80010000D03*
X140335000Y-77470000D03*
X140335000Y-74930000D03*
X140335000Y-72390000D03*
D20*
X93980000Y-85090000D03*
D18*
X96520000Y-85090000D03*
D21*
X131867800Y-83863600D03*
X104035700Y-83007400D03*
X136078500Y-78225200D03*
X133539600Y-76809300D03*
D22*
X133419100Y-82312300D02*
X131867800Y-83863600D01*
X133419100Y-80401700D02*
X133419100Y-82312300D01*
X132346800Y-79329400D02*
X133419100Y-80401700D01*
X121239400Y-79329400D02*
X132346800Y-79329400D01*
X119380000Y-77470000D02*
X121239400Y-79329400D01*
D23*
X118840000Y-85725000D02*
X121825000Y-85725000D01*
D22*
X114300000Y-77470000D02*
X115600900Y-77470000D01*
X123825000Y-85725000D02*
X123825000Y-84474800D01*
X123624900Y-84274700D02*
X116840000Y-84274700D01*
X123825000Y-84474800D02*
X123624900Y-84274700D01*
X116840000Y-85725000D02*
X116840000Y-84274700D01*
X101188200Y-68168200D02*
X99060000Y-66040000D01*
X112618200Y-68168200D02*
X101188200Y-68168200D01*
X114300000Y-69850000D02*
X112618200Y-68168200D01*
X115600900Y-77470000D02*
X116840000Y-77470000D01*
X126527000Y-71755000D02*
X130810000Y-71755000D01*
X122911600Y-75370400D02*
X126527000Y-71755000D01*
X118939600Y-75370400D02*
X122911600Y-75370400D01*
X116840000Y-77470000D02*
X118939600Y-75370400D01*
X148590000Y-71755000D02*
X146939800Y-71755000D01*
X110109700Y-75819700D02*
X111760000Y-77470000D01*
X104041500Y-75819700D02*
X110109700Y-75819700D01*
X101178000Y-78683200D02*
X104041500Y-75819700D01*
X96874400Y-78683200D02*
X101178000Y-78683200D01*
X95190800Y-80366800D02*
X96874400Y-78683200D01*
X95190800Y-82154100D02*
X95190800Y-80366800D01*
X96044100Y-83007400D02*
X95190800Y-82154100D01*
X104035700Y-83007400D02*
X96044100Y-83007400D01*
X114259600Y-74970400D02*
X111760000Y-77470000D01*
X117736400Y-74970400D02*
X114259600Y-74970400D01*
X118536700Y-74170100D02*
X117736400Y-74970400D01*
X122980000Y-74170100D02*
X118536700Y-74170100D01*
X126892000Y-70258100D02*
X122980000Y-74170100D01*
X145442900Y-70258100D02*
X126892000Y-70258100D01*
X146939800Y-71755000D02*
X145442900Y-70258100D01*
X95797000Y-70953100D02*
X95630100Y-71120000D01*
X103694700Y-70953100D02*
X95797000Y-70953100D01*
X105045100Y-72303500D02*
X103694700Y-70953100D01*
X116926500Y-72303500D02*
X105045100Y-72303500D01*
X119380000Y-69850000D02*
X116926500Y-72303500D01*
X93980000Y-71120000D02*
X95630100Y-71120000D01*
D23*
X122995900Y-76881600D02*
X122995900Y-77470000D01*
X126217500Y-73660000D02*
X122995900Y-76881600D01*
X133350000Y-73660000D02*
X126217500Y-73660000D01*
X121920000Y-77470000D02*
X122995900Y-77470000D01*
D22*
X124460000Y-77470000D02*
X125760900Y-77470000D01*
X126516100Y-78225200D02*
X125760900Y-77470000D01*
X136078500Y-78225200D02*
X126516100Y-78225200D01*
D23*
X121920000Y-69850000D02*
X120844100Y-69850000D01*
X116987400Y-74295000D02*
X99060000Y-74295000D01*
X120844100Y-70438300D02*
X116987400Y-74295000D01*
X120844100Y-69850000D02*
X120844100Y-70438300D01*
D22*
X95207600Y-69807600D02*
X93980000Y-68580000D01*
X104396400Y-69807600D02*
X95207600Y-69807600D01*
X106090500Y-71501700D02*
X104396400Y-69807600D01*
X110108300Y-71501700D02*
X106090500Y-71501700D01*
X111760000Y-69850000D02*
X110108300Y-71501700D01*
D23*
X116840000Y-81280000D02*
X115752700Y-81280000D01*
X106680000Y-77470000D02*
X107755900Y-77470000D01*
X148590000Y-85090000D02*
X148590000Y-86177300D01*
X114815200Y-79798900D02*
X110670800Y-79798900D01*
X115752700Y-80736400D02*
X114815200Y-79798900D01*
X115752700Y-81280000D02*
X115752700Y-80736400D01*
X110670800Y-83234100D02*
X110670800Y-79798900D01*
X114501100Y-87064400D02*
X110670800Y-83234100D01*
X147702900Y-87064400D02*
X114501100Y-87064400D01*
X148590000Y-86177300D02*
X147702900Y-87064400D01*
X107755900Y-77897000D02*
X107755900Y-77470000D01*
X109657800Y-79798900D02*
X107755900Y-77897000D01*
X110670800Y-79798900D02*
X109657800Y-79798900D01*
X148590000Y-80010000D02*
X148590000Y-78922700D01*
X111760000Y-81280000D02*
X112847300Y-81280000D01*
X139528800Y-73835200D02*
X136789700Y-76574300D01*
X142415200Y-73835200D02*
X139528800Y-73835200D01*
X147502700Y-78922700D02*
X142415200Y-73835200D01*
X148590000Y-78922700D02*
X147502700Y-78922700D01*
X133774600Y-76574300D02*
X133539600Y-76809300D01*
X136789700Y-76574300D02*
X133774600Y-76574300D01*
X112847300Y-81823700D02*
X112847300Y-81280000D01*
X114182700Y-83159100D02*
X112847300Y-81823700D01*
X127352400Y-83159100D02*
X114182700Y-83159100D01*
X128782300Y-84589000D02*
X127352400Y-83159100D01*
X132169000Y-84589000D02*
X128782300Y-84589000D01*
X136803900Y-79954100D02*
X132169000Y-84589000D01*
X136803900Y-76588500D02*
X136803900Y-79954100D01*
X136789700Y-76574300D02*
X136803900Y-76588500D01*
X148590000Y-82550000D02*
X148590000Y-81462700D01*
X124460000Y-69850000D02*
X125535900Y-69850000D01*
X125803200Y-69582700D02*
X125535900Y-69850000D01*
X146468000Y-69582700D02*
X125803200Y-69582700D01*
X147287700Y-70402400D02*
X146468000Y-69582700D01*
X149264100Y-70402400D02*
X147287700Y-70402400D01*
X150165700Y-71304000D02*
X149264100Y-70402400D01*
X150165700Y-80430600D02*
X150165700Y-71304000D01*
X149133600Y-81462700D02*
X150165700Y-80430600D01*
X148590000Y-81462700D02*
X149133600Y-81462700D01*
X131669900Y-85725000D02*
X125825000Y-85725000D01*
X138909700Y-78485200D02*
X131669900Y-85725000D01*
X138909700Y-76899000D02*
X138909700Y-78485200D01*
X139791400Y-76017300D02*
X138909700Y-76899000D01*
X140335000Y-76017300D02*
X139791400Y-76017300D01*
X140335000Y-74930000D02*
X140335000Y-76017300D01*
M02*
