G04 #@! TF.FileFunction,Soldermask,Bot*
%FSLAX46Y46*%
G04 Gerber Fmt 4.6, Leading zero omitted, Abs format (unit mm)*
G04 Created by KiCad (PCBNEW 0.201506222247+5806~23~ubuntu14.04.1-product) date gio 25 giu 2015 17:09:51 CEST*
%MOMM*%
G01*
G04 APERTURE LIST*
%ADD10C,0.200000*%
%ADD11O,1.901140X2.599640*%
%ADD12C,2.150060*%
%ADD13R,1.700480X1.898600*%
%ADD14R,1.898600X1.700480*%
%ADD15R,2.599640X1.924000*%
%ADD16O,2.599640X1.924000*%
%ADD17R,1.700000X2.200000*%
%ADD18O,1.700000X2.200000*%
%ADD19O,1.924000X2.599640*%
%ADD20O,1.924000X2.597100*%
%ADD21R,1.924000X2.599640*%
%ADD22R,1.250900X1.250900*%
G04 APERTURE END LIST*
D10*
D11*
X106680000Y-77470000D03*
X109220000Y-77470000D03*
X111760000Y-77470000D03*
X114300000Y-77470000D03*
X116840000Y-77470000D03*
X119380000Y-77470000D03*
X121920000Y-77470000D03*
X124460000Y-77470000D03*
X124460000Y-69850000D03*
X121920000Y-69850000D03*
X119380000Y-69850000D03*
X116840000Y-69850000D03*
X114300000Y-69850000D03*
X111760000Y-69850000D03*
X109220000Y-69850000D03*
X106680000Y-69850000D03*
D12*
X130810000Y-75565000D03*
X133350000Y-73660000D03*
X130810000Y-71755000D03*
X101600000Y-72390000D03*
X99060000Y-74295000D03*
X101600000Y-76200000D03*
D13*
X133032500Y-78105000D03*
X131127500Y-78105000D03*
X133032500Y-69215000D03*
X131127500Y-69215000D03*
D14*
X128270000Y-75882500D03*
X128270000Y-77787500D03*
D13*
X103187500Y-69850000D03*
X101282500Y-69850000D03*
D15*
X148590000Y-69215000D03*
D16*
X148590000Y-71755000D03*
D15*
X93980000Y-71120000D03*
D16*
X93980000Y-68580000D03*
D17*
X121825000Y-85725000D03*
D18*
X123825000Y-85725000D03*
X125825000Y-85725000D03*
D17*
X118840000Y-85725000D03*
D18*
X116840000Y-85725000D03*
X114840000Y-85725000D03*
D19*
X96520000Y-81280000D03*
X99060000Y-81280000D03*
X101600000Y-81280000D03*
X104140000Y-81280000D03*
X106680000Y-81280000D03*
X109220000Y-81280000D03*
X111760000Y-81280000D03*
X114300000Y-81280000D03*
X116840000Y-81280000D03*
X119380000Y-81280000D03*
X121920000Y-81280000D03*
X124460000Y-81280000D03*
X127000000Y-81280000D03*
X129540000Y-81280000D03*
X132080000Y-81280000D03*
X132080000Y-66040000D03*
X129540000Y-66040000D03*
X127000000Y-66040000D03*
X124460000Y-66040000D03*
D20*
X121920000Y-66040000D03*
X119380000Y-66040000D03*
X116840000Y-66040000D03*
X114300000Y-66040000D03*
X111760000Y-66040000D03*
X109220000Y-66040000D03*
X106680000Y-66040000D03*
X104140000Y-66040000D03*
X101600000Y-66040000D03*
X99060000Y-66040000D03*
X96520000Y-66040000D03*
D15*
X140335000Y-85090000D03*
D16*
X140335000Y-82550000D03*
X140335000Y-80010000D03*
X140335000Y-77470000D03*
X140335000Y-74930000D03*
X140335000Y-72390000D03*
D21*
X93980000Y-85090000D03*
D19*
X96520000Y-85090000D03*
D22*
X133753860Y-85725000D03*
X130406140Y-85725000D03*
X145646140Y-65405000D03*
X148993860Y-65405000D03*
X108816140Y-85725000D03*
X112163860Y-85725000D03*
X145415000Y-68176140D03*
X145415000Y-71523860D03*
X111528860Y-73660000D03*
X108181140Y-73660000D03*
X99926140Y-78740000D03*
X103273860Y-78740000D03*
X122786140Y-73660000D03*
X126133860Y-73660000D03*
X116436140Y-73660000D03*
X119783860Y-73660000D03*
D21*
X105410000Y-85090000D03*
D19*
X102870000Y-85090000D03*
X100330000Y-85090000D03*
D15*
X148590000Y-74930000D03*
D16*
X148590000Y-77470000D03*
X148590000Y-80010000D03*
X148590000Y-82550000D03*
X148590000Y-85090000D03*
D15*
X144780000Y-74930000D03*
D16*
X144780000Y-77470000D03*
X144780000Y-80010000D03*
X144780000Y-82550000D03*
X144780000Y-85090000D03*
M02*
