G04 #@! TF.FileFunction,Copper,L2,Bot,Signal*
%FSLAX46Y46*%
G04 Gerber Fmt 4.6, Leading zero omitted, Abs format (unit mm)*
G04 Created by KiCad (PCBNEW 0.201506222247+5806~23~ubuntu14.04.1-product) date mar 23 giu 2015 18:59:40 CEST*
%MOMM*%
G01*
G04 APERTURE LIST*
%ADD10C,0.200000*%
%ADD11O,1.501140X2.199640*%
%ADD12C,1.750060*%
%ADD13R,1.300480X1.498600*%
%ADD14R,1.498600X1.300480*%
%ADD15R,2.199640X1.524000*%
%ADD16O,2.199640X1.524000*%
%ADD17R,1.300000X1.800000*%
%ADD18O,1.300000X1.800000*%
%ADD19C,3.500120*%
%ADD20O,1.524000X2.199640*%
%ADD21O,1.524000X2.197100*%
%ADD22R,1.524000X2.199640*%
%ADD23R,0.850900X0.850900*%
%ADD24C,0.600000*%
%ADD25C,0.500000*%
%ADD26C,0.250000*%
G04 APERTURE END LIST*
D10*
D11*
X106680000Y-77470000D03*
X109220000Y-77470000D03*
X111760000Y-77470000D03*
X114300000Y-77470000D03*
X116840000Y-77470000D03*
X119380000Y-77470000D03*
X121920000Y-77470000D03*
X124460000Y-77470000D03*
X124460000Y-69850000D03*
X121920000Y-69850000D03*
X119380000Y-69850000D03*
X116840000Y-69850000D03*
X114300000Y-69850000D03*
X111760000Y-69850000D03*
X109220000Y-69850000D03*
X106680000Y-69850000D03*
D12*
X130810000Y-75565000D03*
X133350000Y-73660000D03*
X130810000Y-71755000D03*
X101600000Y-72390000D03*
X99060000Y-74295000D03*
X101600000Y-76200000D03*
D13*
X133032500Y-78105000D03*
X131127500Y-78105000D03*
X133032500Y-69215000D03*
X131127500Y-69215000D03*
D14*
X128270000Y-75882500D03*
X128270000Y-77787500D03*
D13*
X103187500Y-69850000D03*
X101282500Y-69850000D03*
D15*
X148590000Y-69215000D03*
D16*
X148590000Y-71755000D03*
D15*
X148590000Y-77470000D03*
D16*
X148590000Y-80010000D03*
X148590000Y-82550000D03*
X148590000Y-85090000D03*
D15*
X93980000Y-71120000D03*
D16*
X93980000Y-68580000D03*
D17*
X121825000Y-85725000D03*
D18*
X123825000Y-85725000D03*
X125825000Y-85725000D03*
D19*
X94615000Y-76835000D03*
X144145000Y-66675000D03*
D17*
X118840000Y-85725000D03*
D18*
X116840000Y-85725000D03*
X114840000Y-85725000D03*
D20*
X96520000Y-81280000D03*
X99060000Y-81280000D03*
X101600000Y-81280000D03*
X104140000Y-81280000D03*
X106680000Y-81280000D03*
X109220000Y-81280000D03*
X111760000Y-81280000D03*
X114300000Y-81280000D03*
X116840000Y-81280000D03*
X119380000Y-81280000D03*
X121920000Y-81280000D03*
X124460000Y-81280000D03*
X127000000Y-81280000D03*
X129540000Y-81280000D03*
X132080000Y-81280000D03*
X132080000Y-66040000D03*
X129540000Y-66040000D03*
X127000000Y-66040000D03*
X124460000Y-66040000D03*
D21*
X121920000Y-66040000D03*
X119380000Y-66040000D03*
X116840000Y-66040000D03*
X114300000Y-66040000D03*
X111760000Y-66040000D03*
X109220000Y-66040000D03*
X106680000Y-66040000D03*
X104140000Y-66040000D03*
X101600000Y-66040000D03*
X99060000Y-66040000D03*
X96520000Y-66040000D03*
D15*
X140335000Y-85090000D03*
D16*
X140335000Y-82550000D03*
X140335000Y-80010000D03*
X140335000Y-77470000D03*
X140335000Y-74930000D03*
X140335000Y-72390000D03*
D22*
X93980000Y-85090000D03*
D20*
X96520000Y-85090000D03*
D23*
X133753860Y-85725000D03*
X130406140Y-85725000D03*
X140335000Y-68983860D03*
X140335000Y-65636140D03*
X108816140Y-85725000D03*
X112163860Y-85725000D03*
X144780000Y-71351140D03*
X144780000Y-74698860D03*
X111528860Y-73660000D03*
X108181140Y-73660000D03*
X99926140Y-78740000D03*
X103273860Y-78740000D03*
X122786140Y-73660000D03*
X126133860Y-73660000D03*
X116436140Y-73660000D03*
X119783860Y-73660000D03*
D24*
X131867800Y-83863600D03*
X104035700Y-83007400D03*
X136078500Y-78225200D03*
X133539600Y-76809300D03*
D25*
X148993900Y-65405000D02*
X148993900Y-66380700D01*
X148590000Y-66784600D02*
X148590000Y-69215000D01*
X148993900Y-66380700D02*
X148590000Y-66784600D01*
X135465800Y-86461100D02*
X134729700Y-85725000D01*
X141625100Y-86461100D02*
X135465800Y-86461100D01*
X143804300Y-84281900D02*
X141625100Y-86461100D01*
X143804300Y-74009800D02*
X143804300Y-84281900D01*
X144228800Y-73585300D02*
X143804300Y-74009800D01*
X144653400Y-73585300D02*
X144228800Y-73585300D01*
X146543200Y-71695500D02*
X144653400Y-73585300D01*
X146543200Y-71261800D02*
X146543200Y-71695500D01*
X148590000Y-69215000D02*
X146543200Y-71261800D01*
X134241800Y-85725000D02*
X134729700Y-85725000D01*
X134241800Y-85725000D02*
X133753900Y-85725000D01*
X133753900Y-85725000D02*
X132778200Y-85725000D01*
X132778200Y-84774000D02*
X131867800Y-83863600D01*
X132778200Y-85725000D02*
X132778200Y-84774000D01*
D26*
X108181100Y-73660000D02*
X108181100Y-72909300D01*
X126133900Y-73660000D02*
X126884600Y-73660000D01*
X139125600Y-76382700D02*
X133032500Y-70289600D01*
X140335000Y-76382700D02*
X139125600Y-76382700D01*
X140335000Y-77470000D02*
X140335000Y-76382700D01*
X133032500Y-69215000D02*
X133032500Y-70289600D01*
X105227300Y-66972100D02*
X105227300Y-66040000D01*
X106680000Y-68424800D02*
X105227300Y-66972100D01*
X106680000Y-69850000D02*
X106680000Y-68424800D01*
X104140000Y-66040000D02*
X105227300Y-66040000D01*
X112163900Y-85725000D02*
X111413100Y-85725000D01*
X96520000Y-85090000D02*
X97607300Y-85090000D01*
X106680000Y-72909300D02*
X106680000Y-69850000D01*
X108181100Y-72909300D02*
X106680000Y-72909300D01*
X102695500Y-80313400D02*
X102695500Y-85090000D01*
X102423000Y-80040900D02*
X102695500Y-80313400D01*
X102423000Y-77500400D02*
X102423000Y-80040900D01*
X106680000Y-73243400D02*
X102423000Y-77500400D01*
X106680000Y-72909300D02*
X106680000Y-73243400D01*
X104188900Y-86583400D02*
X102695500Y-85090000D01*
X110554700Y-86583400D02*
X104188900Y-86583400D01*
X111413100Y-85725000D02*
X110554700Y-86583400D01*
X102695500Y-85090000D02*
X97607300Y-85090000D01*
X112163900Y-85725000D02*
X112914600Y-85725000D01*
X114243000Y-87053400D02*
X112914600Y-85725000D01*
X117511600Y-87053400D02*
X114243000Y-87053400D01*
X118840000Y-85725000D02*
X117511600Y-87053400D01*
X131957800Y-68140300D02*
X133032500Y-69215000D01*
X130334400Y-68140300D02*
X131957800Y-68140300D01*
X126884600Y-71590100D02*
X130334400Y-68140300D01*
X126884600Y-73660000D02*
X126884600Y-71590100D01*
X128131600Y-74907000D02*
X128270000Y-74907000D01*
X126884600Y-73660000D02*
X128131600Y-74907000D01*
X128270000Y-75882500D02*
X128270000Y-75394700D01*
X128270000Y-75394700D02*
X128270000Y-74907000D01*
X125730000Y-81914900D02*
X121987100Y-85657800D01*
X125730000Y-80604500D02*
X125730000Y-81914900D01*
X127360800Y-78973700D02*
X125730000Y-80604500D01*
X128967400Y-78973700D02*
X127360800Y-78973700D01*
X129344700Y-78596400D02*
X128967400Y-78973700D01*
X129344700Y-76469400D02*
X129344700Y-78596400D01*
X128270000Y-75394700D02*
X129344700Y-76469400D01*
X121919900Y-85725000D02*
X121825000Y-85725000D01*
X121987100Y-85657800D02*
X121919900Y-85725000D01*
X128293200Y-87087200D02*
X129655400Y-85725000D01*
X123416500Y-87087200D02*
X128293200Y-87087200D01*
X121987100Y-85657800D02*
X123416500Y-87087200D01*
X130406100Y-85725000D02*
X129655400Y-85725000D01*
D25*
X145646100Y-65405000D02*
X145646100Y-66380700D01*
X144780000Y-67246800D02*
X145646100Y-66380700D01*
X144780000Y-71351100D02*
X144780000Y-67246800D01*
X144780000Y-71351100D02*
X144780000Y-72326800D01*
X143004000Y-79881000D02*
X140335000Y-82550000D01*
X143004000Y-73678200D02*
X143004000Y-79881000D01*
X144355400Y-72326800D02*
X143004000Y-73678200D01*
X144780000Y-72326800D02*
X144355400Y-72326800D01*
X140335000Y-82550000D02*
X140335000Y-83862300D01*
X140335000Y-83862300D02*
X140335000Y-85090000D01*
X99926100Y-78740000D02*
X98950300Y-78740000D01*
X100035800Y-77764200D02*
X99926100Y-77764200D01*
X101600000Y-76200000D02*
X100035800Y-77764200D01*
X99926100Y-78740000D02*
X99926100Y-77764200D01*
X97602600Y-77473200D02*
X97852500Y-77723100D01*
X97602600Y-67497400D02*
X97602600Y-77473200D01*
X99060000Y-66040000D02*
X97602600Y-67497400D01*
X97933400Y-77723100D02*
X97852500Y-77723100D01*
X98950300Y-78740000D02*
X97933400Y-77723100D01*
X93980000Y-81595600D02*
X93980000Y-85090000D01*
X97852500Y-77723100D02*
X93980000Y-81595600D01*
X116840000Y-77470000D02*
X116840000Y-75819800D01*
X116436100Y-75415900D02*
X116840000Y-75819800D01*
X116436100Y-73660000D02*
X116436100Y-75415900D01*
X116436100Y-73660000D02*
X116436100Y-72684200D01*
X114300000Y-69850000D02*
X115600900Y-69850000D01*
X116840000Y-69850000D02*
X116220500Y-70469500D01*
X116436100Y-70685200D02*
X116220500Y-70469500D01*
X116436100Y-72684200D02*
X116436100Y-70685200D01*
X116220500Y-70469500D02*
X115600900Y-69850000D01*
X135355400Y-83862300D02*
X134389900Y-82896800D01*
X140335000Y-83862300D02*
X135355400Y-83862300D01*
X134273400Y-83013300D02*
X134389900Y-82896800D01*
X126536700Y-83013300D02*
X134273400Y-83013300D01*
X123825000Y-85725000D02*
X126536700Y-83013300D01*
X130810000Y-73138900D02*
X130810000Y-71755000D01*
X133630100Y-75959000D02*
X130810000Y-73138900D01*
X133891900Y-75959000D02*
X133630100Y-75959000D01*
X134389900Y-76457000D02*
X133891900Y-75959000D01*
X134389900Y-82896800D02*
X134389900Y-76457000D01*
X147387400Y-73067300D02*
X148590000Y-73067300D01*
X145755800Y-74698900D02*
X147387400Y-73067300D01*
X144780000Y-74698900D02*
X145755800Y-74698900D01*
X148590000Y-71755000D02*
X148590000Y-73067300D01*
X108816100Y-85725000D02*
X107840300Y-85725000D01*
X106753300Y-85725000D02*
X104035700Y-83007400D01*
X107840300Y-85725000D02*
X106753300Y-85725000D01*
X122786100Y-73660000D02*
X121810300Y-73660000D01*
X119783900Y-73660000D02*
X121810300Y-73660000D01*
X119783900Y-71904100D02*
X119380000Y-71500200D01*
X119783900Y-73660000D02*
X119783900Y-71904100D01*
X119380000Y-69850000D02*
X119380000Y-71500200D01*
D26*
X133350000Y-71437500D02*
X133350000Y-73660000D01*
X131127500Y-69215000D02*
X133350000Y-71437500D01*
D25*
X140335000Y-80010000D02*
X138684800Y-80010000D01*
X136900000Y-78225200D02*
X136078500Y-78225200D01*
X138684800Y-80010000D02*
X136900000Y-78225200D01*
D26*
X122995900Y-69312000D02*
X122995900Y-69850000D01*
X123886500Y-68421400D02*
X122995900Y-69312000D01*
X124936900Y-68421400D02*
X123886500Y-68421400D01*
X125547200Y-69031700D02*
X124936900Y-68421400D01*
X125547200Y-72102100D02*
X125547200Y-69031700D01*
X125329100Y-72320200D02*
X125547200Y-72102100D01*
X125329100Y-74846600D02*
X125329100Y-72320200D01*
X128270000Y-77787500D02*
X125329100Y-74846600D01*
X121920000Y-69850000D02*
X122995900Y-69850000D01*
X131127500Y-75882500D02*
X130810000Y-75565000D01*
X131127500Y-78105000D02*
X131127500Y-75882500D01*
X101282500Y-72072500D02*
X101600000Y-72390000D01*
X101282500Y-69850000D02*
X101282500Y-72072500D01*
D25*
X103273900Y-78740000D02*
X103273900Y-77764200D01*
X109433300Y-74779900D02*
X110553200Y-73660000D01*
X106258200Y-74779900D02*
X109433300Y-74779900D01*
X103273900Y-77764200D02*
X106258200Y-74779900D01*
X111760000Y-72453200D02*
X111760000Y-69850000D01*
X111528900Y-72684300D02*
X111760000Y-72453200D01*
X111528900Y-73660000D02*
X111528900Y-72684300D01*
X111528900Y-73660000D02*
X110553200Y-73660000D01*
D26*
X110295900Y-78390700D02*
X110295900Y-77470000D01*
X111760000Y-79854800D02*
X110295900Y-78390700D01*
X111760000Y-81280000D02*
X111760000Y-79854800D01*
X109220000Y-77470000D02*
X110295900Y-77470000D01*
X133318500Y-77030400D02*
X133032500Y-77030400D01*
X133539600Y-76809300D02*
X133318500Y-77030400D01*
X133032500Y-78105000D02*
X133032500Y-77030400D01*
X124460000Y-75346800D02*
X124460000Y-69850000D01*
X123179700Y-76627100D02*
X124460000Y-75346800D01*
X123179700Y-78121100D02*
X123179700Y-76627100D01*
X120467300Y-80833500D02*
X123179700Y-78121100D01*
X120467300Y-81280000D02*
X120467300Y-80833500D01*
X119380000Y-81280000D02*
X120467300Y-81280000D01*
X109220000Y-69850000D02*
X109758000Y-69850000D01*
X103028700Y-68616600D02*
X103187500Y-68775400D01*
X103028700Y-65207100D02*
X103028700Y-68616600D01*
X103637800Y-64598000D02*
X103028700Y-65207100D01*
X107141700Y-64598000D02*
X103637800Y-64598000D01*
X107950000Y-65406300D02*
X107141700Y-64598000D01*
X107950000Y-68042000D02*
X107950000Y-65406300D01*
X109758000Y-69850000D02*
X107950000Y-68042000D01*
X103187500Y-69850000D02*
X103187500Y-68775400D01*
X114300000Y-81280000D02*
X113212700Y-81280000D01*
X148590000Y-77470000D02*
X148590000Y-76382700D01*
X114230900Y-67876000D02*
X113030000Y-69076900D01*
X116911200Y-67876000D02*
X114230900Y-67876000D01*
X118110000Y-66677200D02*
X116911200Y-67876000D01*
X118110000Y-65365900D02*
X118110000Y-66677200D01*
X119343200Y-64132700D02*
X118110000Y-65365900D01*
X149179000Y-64132700D02*
X119343200Y-64132700D01*
X150173300Y-65127000D02*
X149179000Y-64132700D01*
X150173300Y-74799400D02*
X150173300Y-65127000D01*
X148590000Y-76382700D02*
X150173300Y-74799400D01*
X113030000Y-81097300D02*
X113030000Y-69076900D01*
X113212700Y-81280000D02*
X113030000Y-81097300D01*
X109758000Y-69778300D02*
X109758000Y-69850000D01*
X111253900Y-68282400D02*
X109758000Y-69778300D01*
X112235500Y-68282400D02*
X111253900Y-68282400D01*
X113030000Y-69076900D02*
X112235500Y-68282400D01*
X125547300Y-66583600D02*
X125547300Y-66040000D01*
X126527100Y-67563400D02*
X125547300Y-66583600D01*
X133268700Y-67563400D02*
X126527100Y-67563400D01*
X139548000Y-73842700D02*
X133268700Y-67563400D01*
X140335000Y-73842700D02*
X139548000Y-73842700D01*
X140335000Y-74930000D02*
X140335000Y-73842700D01*
X124460000Y-66040000D02*
X125547300Y-66040000D01*
X121920000Y-66040000D02*
X122411500Y-66040000D01*
X115518400Y-83821300D02*
X114840000Y-84499700D01*
X115518400Y-80688900D02*
X115518400Y-83821300D01*
X116581400Y-79625900D02*
X115518400Y-80688900D01*
X116726000Y-79625900D02*
X116581400Y-79625900D01*
X118110000Y-78241900D02*
X116726000Y-79625900D01*
X118110000Y-69026300D02*
X118110000Y-78241900D01*
X119260300Y-67876000D02*
X118110000Y-69026300D01*
X120575500Y-67876000D02*
X119260300Y-67876000D01*
X122411500Y-66040000D02*
X120575500Y-67876000D01*
X114840000Y-85725000D02*
X114840000Y-84499700D01*
X123844200Y-64607300D02*
X122411500Y-66040000D01*
X133639600Y-64607300D02*
X123844200Y-64607300D01*
X140335000Y-71302700D02*
X133639600Y-64607300D01*
X140335000Y-72390000D02*
X140335000Y-71302700D01*
M02*
