M48
INCH,TZ
T1C0.016
T2C0.031
T3C0.032
T4C0.039
T5C0.039
T6C0.138
%
G90
G05
T1
X37069Y-25456
X37095Y-32381
X38566Y-26595
X38700Y-28483
X38810Y-30440
X38890Y-25318
X40943Y-32700
X42016Y-28751
X46604Y-28847
X47365Y-33514
X48160Y-29776
X49382Y-28584
X49808Y-30937
X50758Y-27993
X51596Y-28984
X51981Y-30212
X53222Y-29512
X53658Y-30198
X54669Y-29474
X54917Y-34128
X55775Y-28443
T2
X45213Y-33750
X46000Y-33750
X46787Y-33750
X47963Y-33750
X48750Y-33750
X49537Y-33750
T3
X39000Y-29250
X40000Y-28500
X40000Y-30000
X42000Y-27500
X42000Y-30500
X43000Y-27500
X43000Y-30500
X44000Y-27500
X44000Y-30500
X45000Y-27500
X45000Y-30500
X46000Y-27500
X46000Y-30500
X47000Y-27500
X47000Y-30500
X48000Y-27500
X48000Y-30500
X49000Y-27500
X49000Y-30500
X51500Y-28250
X51500Y-29750
X52500Y-29000
T4
X38000Y-26000
X39000Y-26000
X40000Y-26000
X41000Y-26000
X42000Y-26000
X43000Y-26000
X44000Y-26000
T5
X37000Y-27000
X37000Y-28000
X37000Y-33500
X38000Y-32000
X38000Y-33500
X39000Y-32000
X39500Y-33500
X40000Y-32000
X40500Y-33500
X41000Y-32000
X41500Y-33500
X42000Y-32000
X43000Y-32000
X44000Y-32000
X45000Y-26000
X45000Y-32000
X46000Y-26000
X46000Y-32000
X47000Y-26000
X47000Y-32000
X48000Y-26000
X48000Y-32000
X49000Y-26000
X49000Y-32000
X50000Y-26000
X50000Y-32000
X51000Y-26000
X51000Y-32000
X52000Y-26000
X52000Y-32000
X53500Y-33500
X54500Y-30500
X54500Y-32000
X54500Y-33500
X55500Y-30500
X55500Y-32000
X55500Y-33500
X56500Y-30500
X56500Y-32000
X56500Y-33500
X57500Y-26000
X57500Y-30500
X57500Y-32000
X57500Y-33500
X58500Y-26000
X58500Y-30500
X58500Y-32000
X58500Y-33500
T6
X36000Y-30500
X55750Y-26500
T0
M30
