M48
INCH,TZ
T1C0.016
T2C0.031
T3C0.032
T4C0.039
T5C0.039
T6C0.138
%
G90
G05
T1
X41748Y-32680
X50598Y-33876
X51705Y-29161
X52002Y-33107
X53277Y-30974
X54304Y-32248
X55198Y-27517
X55550Y-27953
X57659Y-33697
T2
X45213Y-33750
X46000Y-33750
X46787Y-33750
X47963Y-33750
X48750Y-33750
X49537Y-33750
T3
X39000Y-29250
X40000Y-28500
X40000Y-30000
X42000Y-27500
X42000Y-30500
X43000Y-27500
X43000Y-30500
X44000Y-27500
X44000Y-30500
X45000Y-27500
X45000Y-30500
X46000Y-27500
X46000Y-30500
X47000Y-27500
X47000Y-30500
X48000Y-27500
X48000Y-30500
X49000Y-27500
X49000Y-30500
X51500Y-28250
X51500Y-29750
X52500Y-29000
T4
X38000Y-26000
X39000Y-26000
X40000Y-26000
X41000Y-26000
X42000Y-26000
X43000Y-26000
X44000Y-26000
T5
X37000Y-27000
X37000Y-28000
X37000Y-33500
X38000Y-32000
X38000Y-33500
X39000Y-32000
X39500Y-33500
X40000Y-32000
X40500Y-33500
X41000Y-32000
X41500Y-33500
X42000Y-32000
X43000Y-32000
X44000Y-32000
X45000Y-26000
X45000Y-32000
X46000Y-26000
X46000Y-32000
X47000Y-26000
X47000Y-32000
X48000Y-26000
X48000Y-32000
X49000Y-26000
X49000Y-32000
X50000Y-26000
X50000Y-32000
X51000Y-26000
X51000Y-32000
X52000Y-26000
X52000Y-32000
X55250Y-28500
X55250Y-29500
X55250Y-30500
X55250Y-31500
X55250Y-32500
X55250Y-33500
X57000Y-29500
X57000Y-30500
X57000Y-31500
X57000Y-32500
X57000Y-33500
X58500Y-27250
X58500Y-28250
X58500Y-29500
X58500Y-30500
X58500Y-31500
X58500Y-32500
X58500Y-33500
T6
X37500Y-29750
X55750Y-26500
T0
M30
