G04 #@! TF.FileFunction,Copper,L1,Top,Signal*
%FSLAX46Y46*%
G04 Gerber Fmt 4.6, Leading zero omitted, Abs format (unit mm)*
G04 Created by KiCad (PCBNEW 0.201506222247+5806~23~ubuntu14.04.1-product) date gio 25 giu 2015 17:09:51 CEST*
%MOMM*%
G01*
G04 APERTURE LIST*
%ADD10C,0.200000*%
%ADD11O,1.501140X2.199640*%
%ADD12C,1.750060*%
%ADD13R,2.199640X1.524000*%
%ADD14O,2.199640X1.524000*%
%ADD15R,1.300000X1.800000*%
%ADD16O,1.300000X1.800000*%
%ADD17C,3.500120*%
%ADD18O,1.524000X2.199640*%
%ADD19O,1.524000X2.197100*%
%ADD20R,1.524000X2.199640*%
%ADD21C,0.600000*%
%ADD22C,0.500000*%
%ADD23C,0.250000*%
G04 APERTURE END LIST*
D10*
D11*
X106680000Y-77470000D03*
X109220000Y-77470000D03*
X111760000Y-77470000D03*
X114300000Y-77470000D03*
X116840000Y-77470000D03*
X119380000Y-77470000D03*
X121920000Y-77470000D03*
X124460000Y-77470000D03*
X124460000Y-69850000D03*
X121920000Y-69850000D03*
X119380000Y-69850000D03*
X116840000Y-69850000D03*
X114300000Y-69850000D03*
X111760000Y-69850000D03*
X109220000Y-69850000D03*
X106680000Y-69850000D03*
D12*
X130810000Y-75565000D03*
X133350000Y-73660000D03*
X130810000Y-71755000D03*
X101600000Y-72390000D03*
X99060000Y-74295000D03*
X101600000Y-76200000D03*
D13*
X148590000Y-69215000D03*
D14*
X148590000Y-71755000D03*
D13*
X93980000Y-71120000D03*
D14*
X93980000Y-68580000D03*
D15*
X121825000Y-85725000D03*
D16*
X123825000Y-85725000D03*
X125825000Y-85725000D03*
D17*
X95250000Y-75565000D03*
X141605000Y-67310000D03*
D15*
X118840000Y-85725000D03*
D16*
X116840000Y-85725000D03*
X114840000Y-85725000D03*
D18*
X96520000Y-81280000D03*
X99060000Y-81280000D03*
X101600000Y-81280000D03*
X104140000Y-81280000D03*
X106680000Y-81280000D03*
X109220000Y-81280000D03*
X111760000Y-81280000D03*
X114300000Y-81280000D03*
X116840000Y-81280000D03*
X119380000Y-81280000D03*
X121920000Y-81280000D03*
X124460000Y-81280000D03*
X127000000Y-81280000D03*
X129540000Y-81280000D03*
X132080000Y-81280000D03*
X132080000Y-66040000D03*
X129540000Y-66040000D03*
X127000000Y-66040000D03*
X124460000Y-66040000D03*
D19*
X121920000Y-66040000D03*
X119380000Y-66040000D03*
X116840000Y-66040000D03*
X114300000Y-66040000D03*
X111760000Y-66040000D03*
X109220000Y-66040000D03*
X106680000Y-66040000D03*
X104140000Y-66040000D03*
X101600000Y-66040000D03*
X99060000Y-66040000D03*
X96520000Y-66040000D03*
D13*
X140335000Y-85090000D03*
D14*
X140335000Y-82550000D03*
X140335000Y-80010000D03*
X140335000Y-77470000D03*
X140335000Y-74930000D03*
X140335000Y-72390000D03*
D20*
X93980000Y-85090000D03*
D18*
X96520000Y-85090000D03*
D20*
X105410000Y-85090000D03*
D18*
X102870000Y-85090000D03*
X100330000Y-85090000D03*
D13*
X148590000Y-74930000D03*
D14*
X148590000Y-77470000D03*
X148590000Y-80010000D03*
X148590000Y-82550000D03*
X148590000Y-85090000D03*
D13*
X144780000Y-74930000D03*
D14*
X144780000Y-77470000D03*
X144780000Y-80010000D03*
X144780000Y-82550000D03*
X144780000Y-85090000D03*
D21*
X140203400Y-69893800D03*
X131330200Y-74069300D03*
X141097400Y-71000800D03*
X135323800Y-78674800D03*
X106039500Y-83007400D03*
X132084800Y-84093000D03*
X146453800Y-85589400D03*
X128519800Y-86046000D03*
X137932700Y-81908900D03*
D22*
X146261100Y-69893800D02*
X140203400Y-69893800D01*
X146939900Y-69215000D02*
X146261100Y-69893800D01*
X148590000Y-69215000D02*
X146939900Y-69215000D01*
X122780700Y-74069300D02*
X131330200Y-74069300D01*
X119380000Y-77470000D02*
X122780700Y-74069300D01*
X114300000Y-69850000D02*
X116840000Y-69850000D01*
X150257000Y-83423000D02*
X148590000Y-85090000D01*
X150257000Y-73880800D02*
X150257000Y-83423000D01*
X149993900Y-73617700D02*
X150257000Y-73880800D01*
X144780000Y-73617700D02*
X149993900Y-73617700D01*
X144780000Y-74930000D02*
X144780000Y-73617700D01*
X102784600Y-75015400D02*
X101600000Y-76200000D01*
X111845400Y-75015400D02*
X102784600Y-75015400D01*
X114300000Y-77470000D02*
X111845400Y-75015400D01*
X116840000Y-85725000D02*
X116840000Y-84274700D01*
X122768500Y-84274700D02*
X124021900Y-85528100D01*
X116840000Y-84274700D02*
X122768500Y-84274700D01*
X124021900Y-85528100D02*
X123825000Y-85725000D01*
X127455600Y-85090000D02*
X138684900Y-85090000D01*
X126606200Y-84240600D02*
X127455600Y-85090000D01*
X125309400Y-84240600D02*
X126606200Y-84240600D01*
X124021900Y-85528100D02*
X125309400Y-84240600D01*
X140335000Y-85090000D02*
X138684900Y-85090000D01*
X114300000Y-77470000D02*
X115600900Y-77470000D01*
X122555000Y-71755000D02*
X116840000Y-77470000D01*
X130810000Y-71755000D02*
X122555000Y-71755000D01*
X116840000Y-77470000D02*
X115600900Y-77470000D01*
X146185600Y-71000800D02*
X141097400Y-71000800D01*
X146939800Y-71755000D02*
X146185600Y-71000800D01*
X148590000Y-71755000D02*
X146939800Y-71755000D01*
X113458100Y-79168100D02*
X111760000Y-77470000D01*
X134830500Y-79168100D02*
X113458100Y-79168100D01*
X135323800Y-78674800D02*
X134830500Y-79168100D01*
X110107700Y-75817700D02*
X111760000Y-77470000D01*
X105777100Y-75817700D02*
X110107700Y-75817700D01*
X102943800Y-78651000D02*
X105777100Y-75817700D01*
X96952000Y-78651000D02*
X102943800Y-78651000D01*
X95172800Y-80430200D02*
X96952000Y-78651000D01*
X95172800Y-82169300D02*
X95172800Y-80430200D01*
X96010900Y-83007400D02*
X95172800Y-82169300D01*
X106039500Y-83007400D02*
X96010900Y-83007400D01*
X95802800Y-70947300D02*
X95630100Y-71120000D01*
X102501700Y-70947300D02*
X95802800Y-70947300D01*
X103066000Y-71511600D02*
X102501700Y-70947300D01*
X117718400Y-71511600D02*
X103066000Y-71511600D01*
X119380000Y-69850000D02*
X117718400Y-71511600D01*
X93980000Y-71120000D02*
X95630100Y-71120000D01*
D23*
X122995900Y-76877400D02*
X122995900Y-77470000D01*
X123938700Y-75934600D02*
X122995900Y-76877400D01*
X125481400Y-75934600D02*
X123938700Y-75934600D01*
X126341400Y-76794600D02*
X125481400Y-75934600D01*
X131342200Y-76794600D02*
X126341400Y-76794600D01*
X133350000Y-74786800D02*
X131342200Y-76794600D01*
X133350000Y-73660000D02*
X133350000Y-74786800D01*
X121920000Y-77470000D02*
X122995900Y-77470000D01*
D22*
X124460000Y-77470000D02*
X125760900Y-77470000D01*
X137795000Y-77470000D02*
X125760900Y-77470000D01*
X140335000Y-80010000D02*
X137795000Y-77470000D01*
D23*
X120844100Y-70438300D02*
X120844100Y-69850000D01*
X116987400Y-74295000D02*
X120844100Y-70438300D01*
X99060000Y-74295000D02*
X116987400Y-74295000D01*
X121920000Y-69850000D02*
X120844100Y-69850000D01*
D22*
X96030900Y-68179300D02*
X95630200Y-68580000D01*
X110089300Y-68179300D02*
X96030900Y-68179300D01*
X111760000Y-69850000D02*
X110089300Y-68179300D01*
X93980000Y-68580000D02*
X95630200Y-68580000D01*
D23*
X123372700Y-80736400D02*
X123372700Y-81280000D01*
X122479800Y-79843500D02*
X123372700Y-80736400D01*
X109591400Y-79843500D02*
X122479800Y-79843500D01*
X107755900Y-78008000D02*
X109591400Y-79843500D01*
X107755900Y-77470000D02*
X107755900Y-78008000D01*
X106680000Y-77470000D02*
X107755900Y-77470000D01*
X124460000Y-81280000D02*
X123372700Y-81280000D01*
X125547300Y-80736400D02*
X125547300Y-81280000D01*
X126440200Y-79843500D02*
X125547300Y-80736400D01*
X133413700Y-79843500D02*
X126440200Y-79843500D01*
X134783100Y-81212900D02*
X133413700Y-79843500D01*
X148340200Y-81212900D02*
X134783100Y-81212900D01*
X148590000Y-81462700D02*
X148340200Y-81212900D01*
X148590000Y-82550000D02*
X148590000Y-81462700D01*
X124460000Y-81280000D02*
X125547300Y-81280000D01*
X112847300Y-81823700D02*
X112847300Y-81280000D01*
X114554900Y-83531300D02*
X112847300Y-81823700D01*
X131115900Y-83531300D02*
X114554900Y-83531300D01*
X131677600Y-84093000D02*
X131115900Y-83531300D01*
X132084800Y-84093000D02*
X131677600Y-84093000D01*
X111760000Y-81280000D02*
X112847300Y-81280000D01*
X148590000Y-80010000D02*
X148590000Y-78922700D01*
X124460000Y-69850000D02*
X125535900Y-69850000D01*
X144291000Y-78922700D02*
X148590000Y-78922700D01*
X141568300Y-76200000D02*
X144291000Y-78922700D01*
X137941800Y-76200000D02*
X141568300Y-76200000D01*
X131591800Y-69850000D02*
X137941800Y-76200000D01*
X125535900Y-69850000D02*
X131591800Y-69850000D01*
X125547300Y-66583700D02*
X125547300Y-66040000D01*
X126460600Y-67497000D02*
X125547300Y-66583700D01*
X132902000Y-67497000D02*
X126460600Y-67497000D01*
X139247700Y-73842700D02*
X132902000Y-67497000D01*
X140335000Y-73842700D02*
X139247700Y-73842700D01*
X140335000Y-74930000D02*
X140335000Y-73842700D01*
X124460000Y-66040000D02*
X125547300Y-66040000D01*
X113588300Y-87073500D02*
X109220000Y-82705200D01*
X144969700Y-87073500D02*
X113588300Y-87073500D01*
X146453800Y-85589400D02*
X144969700Y-87073500D01*
X109220000Y-81280000D02*
X109220000Y-82705200D01*
X128751200Y-86277400D02*
X128519800Y-86046000D01*
X144679900Y-86277400D02*
X128751200Y-86277400D01*
X144780000Y-86177300D02*
X144679900Y-86277400D01*
X144780000Y-85090000D02*
X144780000Y-86177300D01*
X130627300Y-81703000D02*
X130627300Y-81280000D01*
X131664800Y-82740500D02*
X130627300Y-81703000D01*
X137101100Y-82740500D02*
X131664800Y-82740500D01*
X137932700Y-81908900D02*
X137101100Y-82740500D01*
X129540000Y-81280000D02*
X130627300Y-81280000D01*
X123007300Y-65496300D02*
X123007300Y-66040000D01*
X123893200Y-64610400D02*
X123007300Y-65496300D01*
X133642700Y-64610400D02*
X123893200Y-64610400D01*
X140335000Y-71302700D02*
X133642700Y-64610400D01*
X140335000Y-72390000D02*
X140335000Y-71302700D01*
X121920000Y-66040000D02*
X123007300Y-66040000D01*
X144780000Y-82550000D02*
X144780000Y-83637300D01*
X119380000Y-81280000D02*
X120467300Y-81280000D01*
X120467300Y-81823700D02*
X120467300Y-81280000D01*
X121696000Y-83052400D02*
X120467300Y-81823700D01*
X131273900Y-83052400D02*
X121696000Y-83052400D01*
X131442500Y-83221000D02*
X131273900Y-83052400D01*
X136863700Y-83221000D02*
X131442500Y-83221000D01*
X137381500Y-83738800D02*
X136863700Y-83221000D01*
X144678500Y-83738800D02*
X137381500Y-83738800D01*
X144780000Y-83637300D02*
X144678500Y-83738800D01*
M02*
