G04 #@! TF.FileFunction,Copper,L1,Top,Signal*
%FSLAX46Y46*%
G04 Gerber Fmt 4.6, Leading zero omitted, Abs format (unit mm)*
G04 Created by KiCad (PCBNEW 0.201510090346+6256~30~ubuntu14.04.1-product) date Mon 23 Nov 2015 18:10:39 CET*
%MOMM*%
G01*
G04 APERTURE LIST*
%ADD10C,0.100000*%
%ADD11R,2.032000X1.727200*%
%ADD12O,2.032000X1.727200*%
%ADD13R,2.500000X1.100000*%
%ADD14O,2.500000X1.100000*%
%ADD15R,1.500000X1.250000*%
%ADD16R,2.235200X2.235200*%
%ADD17R,3.657600X2.032000*%
%ADD18R,1.016000X2.032000*%
%ADD19C,1.000000*%
%ADD20C,0.254000*%
G04 APERTURE END LIST*
D10*
D11*
X139700000Y-123190000D03*
D12*
X139700000Y-120650000D03*
X139700000Y-118110000D03*
X139700000Y-115570000D03*
X139700000Y-113030000D03*
X139700000Y-110490000D03*
X139700000Y-107950000D03*
X139700000Y-105410000D03*
D11*
X172720000Y-105410000D03*
D12*
X172720000Y-107950000D03*
X172720000Y-110490000D03*
X172720000Y-113030000D03*
X172720000Y-115570000D03*
X172720000Y-118110000D03*
X172720000Y-120650000D03*
X172720000Y-123190000D03*
D13*
X147801100Y-105003600D03*
D14*
X147801100Y-107003600D03*
X147801100Y-109003600D03*
X147801100Y-111003600D03*
X147801100Y-113003600D03*
X147801100Y-115003600D03*
X147801100Y-117003600D03*
X147801100Y-119003600D03*
X163201100Y-119003600D03*
X163101100Y-117003600D03*
X163201100Y-115003600D03*
X163201100Y-113003600D03*
X163201100Y-111003600D03*
X163201100Y-109003600D03*
X163201100Y-107003600D03*
X163201100Y-105003600D03*
D15*
X162580000Y-124460000D03*
X165080000Y-124460000D03*
X160040000Y-130810000D03*
X162540000Y-130810000D03*
D16*
X146050000Y-128270000D03*
D17*
X153670000Y-131572000D03*
D18*
X153670000Y-124968000D03*
X151384000Y-124968000D03*
X155956000Y-124968000D03*
D19*
X145886400Y-117003600D02*
X142240000Y-120650000D01*
X142240000Y-120650000D02*
X139700000Y-120650000D01*
X148501100Y-117003600D02*
X145886400Y-117003600D01*
X144806400Y-113003600D02*
X142240000Y-115570000D01*
X142240000Y-115570000D02*
X139700000Y-115570000D01*
X148501100Y-113003600D02*
X144806400Y-113003600D01*
X144266400Y-111003600D02*
X142240000Y-113030000D01*
X142240000Y-113030000D02*
X139700000Y-113030000D01*
X148501100Y-111003600D02*
X144266400Y-111003600D01*
X143186400Y-107003600D02*
X142240000Y-107950000D01*
X142240000Y-107950000D02*
X139700000Y-107950000D01*
X148501100Y-107003600D02*
X143186400Y-107003600D01*
X148501100Y-105003600D02*
X140106400Y-105003600D01*
X140106400Y-105003600D02*
X139700000Y-105410000D01*
X171450000Y-105410000D02*
X172720000Y-105410000D01*
X162501100Y-105003600D02*
X171043600Y-105003600D01*
X171043600Y-105003600D02*
X171450000Y-105410000D01*
X171450000Y-107950000D02*
X172720000Y-107950000D01*
X167963600Y-107003600D02*
X168910000Y-107950000D01*
X168910000Y-107950000D02*
X171450000Y-107950000D01*
X162501100Y-107003600D02*
X167963600Y-107003600D01*
X171450000Y-110490000D02*
X172720000Y-110490000D01*
X167423600Y-109003600D02*
X168910000Y-110490000D01*
X168910000Y-110490000D02*
X171450000Y-110490000D01*
X162501100Y-109003600D02*
X167423600Y-109003600D01*
X171450000Y-113030000D02*
X172720000Y-113030000D01*
X166883600Y-111003600D02*
X168910000Y-113030000D01*
X168910000Y-113030000D02*
X171450000Y-113030000D01*
X162501100Y-111003600D02*
X166883600Y-111003600D01*
X171450000Y-115570000D02*
X172720000Y-115570000D01*
X166343600Y-113003600D02*
X168910000Y-115570000D01*
X168910000Y-115570000D02*
X171450000Y-115570000D01*
X162501100Y-113003600D02*
X166343600Y-113003600D01*
X171450000Y-118110000D02*
X172720000Y-118110000D01*
X165803600Y-115003600D02*
X168910000Y-118110000D01*
X168910000Y-118110000D02*
X171450000Y-118110000D01*
X162501100Y-115003600D02*
X165803600Y-115003600D01*
X162501100Y-117003600D02*
X162501100Y-119003600D01*
X171450000Y-120650000D02*
X172720000Y-120650000D01*
X165263600Y-117003600D02*
X168910000Y-120650000D01*
X168910000Y-120650000D02*
X171450000Y-120650000D01*
X162501100Y-117003600D02*
X165263600Y-117003600D01*
X171450000Y-123190000D02*
X172720000Y-123190000D01*
X165080000Y-124460000D02*
X165080000Y-127000000D01*
X165080000Y-127000000D02*
X165080000Y-128270000D01*
X155956000Y-124968000D02*
X157464000Y-124968000D01*
X157464000Y-124968000D02*
X159496000Y-127000000D01*
X159496000Y-127000000D02*
X165080000Y-127000000D01*
X165080000Y-128270000D02*
X162540000Y-130810000D01*
X167640000Y-123190000D02*
X167640000Y-123650000D01*
X167640000Y-123650000D02*
X166830000Y-124460000D01*
X166830000Y-124460000D02*
X165080000Y-124460000D01*
X163453600Y-119003600D02*
X167640000Y-123190000D01*
X167640000Y-123190000D02*
X171450000Y-123190000D01*
X162501100Y-119003600D02*
X163453600Y-119003600D01*
X146050000Y-128270000D02*
X147320000Y-127000000D01*
X147844000Y-127000000D02*
X147320000Y-127000000D01*
X149876000Y-124968000D02*
X147844000Y-127000000D01*
X151384000Y-124968000D02*
X149876000Y-124968000D01*
X152400000Y-121920000D02*
X151384000Y-122936000D01*
X151384000Y-122936000D02*
X151384000Y-124968000D01*
X159915000Y-121920000D02*
X152400000Y-121920000D01*
X162580000Y-124460000D02*
X162455000Y-124460000D01*
X162455000Y-124460000D02*
X159915000Y-121920000D01*
X148501100Y-115003600D02*
X151130000Y-115003600D01*
X151130000Y-115003600D02*
X151130000Y-114935000D01*
X145346400Y-115003600D02*
X142240000Y-118110000D01*
X142240000Y-118110000D02*
X139700000Y-118110000D01*
X148501100Y-115003600D02*
X145346400Y-115003600D01*
X148501100Y-109003600D02*
X150913600Y-109003600D01*
X151130000Y-109220000D02*
X151130000Y-114935000D01*
X150913600Y-109003600D02*
X151130000Y-109220000D01*
X151130000Y-114935000D02*
X151130000Y-119380000D01*
X151130000Y-119380000D02*
X148877500Y-119380000D01*
X148877500Y-119380000D02*
X148501100Y-119003600D01*
X144314700Y-123190000D02*
X142240000Y-123190000D01*
X142240000Y-123190000D02*
X139700000Y-123190000D01*
X142240000Y-132080000D02*
X142240000Y-123190000D01*
X148590000Y-132080000D02*
X142240000Y-132080000D01*
X150084397Y-130585603D02*
X148590000Y-132080000D01*
X150084397Y-130087601D02*
X150084397Y-130585603D01*
X144232399Y-123272301D02*
X144314700Y-123190000D01*
X151901998Y-128270000D02*
X150084397Y-130087601D01*
X153670000Y-124968000D02*
X153670000Y-126984000D01*
X153670000Y-126984000D02*
X152384000Y-128270000D01*
X152384000Y-128270000D02*
X151901998Y-128270000D01*
X155750000Y-128270000D02*
X151901998Y-128270000D01*
X160040000Y-130810000D02*
X158290000Y-130810000D01*
X158290000Y-130810000D02*
X155750000Y-128270000D01*
X148501100Y-119003600D02*
X144314700Y-123190000D01*
X143726400Y-109003600D02*
X142240000Y-110490000D01*
X142240000Y-110490000D02*
X139700000Y-110490000D01*
X148501100Y-109003600D02*
X143726400Y-109003600D01*
D20*
G36*
X174550000Y-133910000D02*
X137870000Y-133910000D01*
X137870000Y-105410000D01*
X138016655Y-105410000D01*
X138130729Y-105983489D01*
X138455585Y-106469670D01*
X138770366Y-106680000D01*
X138455585Y-106890330D01*
X138130729Y-107376511D01*
X138016655Y-107950000D01*
X138130729Y-108523489D01*
X138455585Y-109009670D01*
X138770366Y-109220000D01*
X138455585Y-109430330D01*
X138130729Y-109916511D01*
X138016655Y-110490000D01*
X138130729Y-111063489D01*
X138455585Y-111549670D01*
X138770366Y-111760000D01*
X138455585Y-111970330D01*
X138130729Y-112456511D01*
X138016655Y-113030000D01*
X138130729Y-113603489D01*
X138455585Y-114089670D01*
X138770366Y-114300000D01*
X138455585Y-114510330D01*
X138130729Y-114996511D01*
X138016655Y-115570000D01*
X138130729Y-116143489D01*
X138455585Y-116629670D01*
X138770366Y-116840000D01*
X138455585Y-117050330D01*
X138130729Y-117536511D01*
X138016655Y-118110000D01*
X138130729Y-118683489D01*
X138455585Y-119169670D01*
X138770366Y-119380000D01*
X138455585Y-119590330D01*
X138130729Y-120076511D01*
X138016655Y-120650000D01*
X138130729Y-121223489D01*
X138455585Y-121709670D01*
X138469913Y-121719243D01*
X138448683Y-121723238D01*
X138232559Y-121862310D01*
X138087569Y-122074510D01*
X138036560Y-122326400D01*
X138036560Y-124053600D01*
X138080838Y-124288917D01*
X138219910Y-124505041D01*
X138432110Y-124650031D01*
X138684000Y-124701040D01*
X140716000Y-124701040D01*
X140951317Y-124656762D01*
X141105000Y-124557870D01*
X141105000Y-132080000D01*
X141191397Y-132514346D01*
X141437434Y-132882566D01*
X141805654Y-133128603D01*
X142240000Y-133215000D01*
X148590000Y-133215000D01*
X149024346Y-133128603D01*
X149392566Y-132882566D01*
X150886964Y-131388169D01*
X151133001Y-131019948D01*
X151193760Y-130714490D01*
X151193760Y-132588000D01*
X151238038Y-132823317D01*
X151377110Y-133039441D01*
X151589310Y-133184431D01*
X151841200Y-133235440D01*
X155498800Y-133235440D01*
X155734117Y-133191162D01*
X155950241Y-133052090D01*
X156095231Y-132839890D01*
X156146240Y-132588000D01*
X156146240Y-130556000D01*
X156101962Y-130320683D01*
X155962890Y-130104559D01*
X155750690Y-129959569D01*
X155498800Y-129908560D01*
X151868570Y-129908560D01*
X152372130Y-129405000D01*
X155279868Y-129405000D01*
X157487433Y-131612566D01*
X157760015Y-131794699D01*
X157855654Y-131858603D01*
X158290000Y-131945000D01*
X158911614Y-131945000D01*
X159038110Y-132031431D01*
X159290000Y-132082440D01*
X160790000Y-132082440D01*
X161025317Y-132038162D01*
X161241441Y-131899090D01*
X161287969Y-131830994D01*
X161430302Y-131973327D01*
X161663691Y-132070000D01*
X162254250Y-132070000D01*
X162413000Y-131911250D01*
X162413000Y-130937000D01*
X162667000Y-130937000D01*
X162667000Y-131911250D01*
X162825750Y-132070000D01*
X163416309Y-132070000D01*
X163649698Y-131973327D01*
X163828327Y-131794699D01*
X163925000Y-131561310D01*
X163925000Y-131095750D01*
X163766250Y-130937000D01*
X162667000Y-130937000D01*
X162413000Y-130937000D01*
X162393000Y-130937000D01*
X162393000Y-130683000D01*
X162413000Y-130683000D01*
X162413000Y-129708750D01*
X162667000Y-129708750D01*
X162667000Y-130683000D01*
X163766250Y-130683000D01*
X163925000Y-130524250D01*
X163925000Y-130058690D01*
X163828327Y-129825301D01*
X163649698Y-129646673D01*
X163416309Y-129550000D01*
X162825750Y-129550000D01*
X162667000Y-129708750D01*
X162413000Y-129708750D01*
X162254250Y-129550000D01*
X161663691Y-129550000D01*
X161430302Y-129646673D01*
X161289064Y-129787910D01*
X161254090Y-129733559D01*
X161041890Y-129588569D01*
X160790000Y-129537560D01*
X159290000Y-129537560D01*
X159054683Y-129581838D01*
X158909905Y-129675000D01*
X158760133Y-129675000D01*
X156552566Y-127467434D01*
X156503045Y-127434345D01*
X156184346Y-127221397D01*
X155750000Y-127135000D01*
X154774964Y-127135000D01*
X154805000Y-126984000D01*
X154805000Y-126084936D01*
X154813000Y-126045431D01*
X154813000Y-126110310D01*
X154909673Y-126343699D01*
X155088302Y-126522327D01*
X155321691Y-126619000D01*
X155670250Y-126619000D01*
X155829000Y-126460250D01*
X155829000Y-125095000D01*
X156083000Y-125095000D01*
X156083000Y-126460250D01*
X156241750Y-126619000D01*
X156590309Y-126619000D01*
X156823698Y-126522327D01*
X157002327Y-126343699D01*
X157099000Y-126110310D01*
X157099000Y-125253750D01*
X156940250Y-125095000D01*
X156083000Y-125095000D01*
X155829000Y-125095000D01*
X155809000Y-125095000D01*
X155809000Y-124841000D01*
X155829000Y-124841000D01*
X155829000Y-123475750D01*
X156083000Y-123475750D01*
X156083000Y-124841000D01*
X156940250Y-124841000D01*
X157099000Y-124682250D01*
X157099000Y-123825690D01*
X157002327Y-123592301D01*
X156823698Y-123413673D01*
X156590309Y-123317000D01*
X156241750Y-123317000D01*
X156083000Y-123475750D01*
X155829000Y-123475750D01*
X155670250Y-123317000D01*
X155321691Y-123317000D01*
X155088302Y-123413673D01*
X154909673Y-123592301D01*
X154813000Y-123825690D01*
X154813000Y-123885887D01*
X154781162Y-123716683D01*
X154642090Y-123500559D01*
X154429890Y-123355569D01*
X154178000Y-123304560D01*
X153162000Y-123304560D01*
X152926683Y-123348838D01*
X152710559Y-123487910D01*
X152565569Y-123700110D01*
X152527457Y-123888314D01*
X152519000Y-123843371D01*
X152519000Y-123406132D01*
X152870132Y-123055000D01*
X159444868Y-123055000D01*
X161182560Y-124792693D01*
X161182560Y-125085000D01*
X161226838Y-125320317D01*
X161365910Y-125536441D01*
X161578110Y-125681431D01*
X161830000Y-125732440D01*
X163330000Y-125732440D01*
X163565317Y-125688162D01*
X163781441Y-125549090D01*
X163827969Y-125480994D01*
X163970302Y-125623327D01*
X164203691Y-125720000D01*
X164794250Y-125720000D01*
X164953000Y-125561250D01*
X164953000Y-124587000D01*
X165207000Y-124587000D01*
X165207000Y-125561250D01*
X165365750Y-125720000D01*
X165956309Y-125720000D01*
X166189698Y-125623327D01*
X166368327Y-125444699D01*
X166465000Y-125211310D01*
X166465000Y-124745750D01*
X166306250Y-124587000D01*
X165207000Y-124587000D01*
X164953000Y-124587000D01*
X164933000Y-124587000D01*
X164933000Y-124333000D01*
X164953000Y-124333000D01*
X164953000Y-123358750D01*
X165207000Y-123358750D01*
X165207000Y-124333000D01*
X166306250Y-124333000D01*
X166465000Y-124174250D01*
X166465000Y-123708690D01*
X166398865Y-123549026D01*
X171112642Y-123549026D01*
X171115291Y-123564791D01*
X171369268Y-124092036D01*
X171805680Y-124481954D01*
X172358087Y-124675184D01*
X172593000Y-124530924D01*
X172593000Y-123317000D01*
X172847000Y-123317000D01*
X172847000Y-124530924D01*
X173081913Y-124675184D01*
X173634320Y-124481954D01*
X174070732Y-124092036D01*
X174324709Y-123564791D01*
X174327358Y-123549026D01*
X174206217Y-123317000D01*
X172847000Y-123317000D01*
X172593000Y-123317000D01*
X171233783Y-123317000D01*
X171112642Y-123549026D01*
X166398865Y-123549026D01*
X166368327Y-123475301D01*
X166189698Y-123296673D01*
X165956309Y-123200000D01*
X165365750Y-123200000D01*
X165207000Y-123358750D01*
X164953000Y-123358750D01*
X164794250Y-123200000D01*
X164203691Y-123200000D01*
X163970302Y-123296673D01*
X163829064Y-123437910D01*
X163794090Y-123383559D01*
X163581890Y-123238569D01*
X163330000Y-123187560D01*
X162787693Y-123187560D01*
X160717566Y-121117434D01*
X160555322Y-121009026D01*
X171112642Y-121009026D01*
X171115291Y-121024791D01*
X171369268Y-121552036D01*
X171781108Y-121920000D01*
X171369268Y-122287964D01*
X171115291Y-122815209D01*
X171112642Y-122830974D01*
X171233783Y-123063000D01*
X172593000Y-123063000D01*
X172593000Y-120777000D01*
X172847000Y-120777000D01*
X172847000Y-123063000D01*
X174206217Y-123063000D01*
X174327358Y-122830974D01*
X174324709Y-122815209D01*
X174070732Y-122287964D01*
X173658892Y-121920000D01*
X174070732Y-121552036D01*
X174324709Y-121024791D01*
X174327358Y-121009026D01*
X174206217Y-120777000D01*
X172847000Y-120777000D01*
X172593000Y-120777000D01*
X171233783Y-120777000D01*
X171112642Y-121009026D01*
X160555322Y-121009026D01*
X160349346Y-120871397D01*
X159915000Y-120785000D01*
X152400000Y-120785000D01*
X151965654Y-120871397D01*
X151759678Y-121009026D01*
X151597434Y-121117434D01*
X150581434Y-122133434D01*
X150335397Y-122501654D01*
X150249000Y-122936000D01*
X150249000Y-123833000D01*
X149876000Y-123833000D01*
X149441654Y-123919397D01*
X149208977Y-124074867D01*
X149073434Y-124165434D01*
X147373868Y-125865000D01*
X147320000Y-125865000D01*
X146885654Y-125951397D01*
X146647824Y-126110310D01*
X146517434Y-126197434D01*
X146209908Y-126504960D01*
X144932400Y-126504960D01*
X144697083Y-126549238D01*
X144480959Y-126688310D01*
X144335969Y-126900510D01*
X144284960Y-127152400D01*
X144284960Y-129387600D01*
X144329238Y-129622917D01*
X144468310Y-129839041D01*
X144680510Y-129984031D01*
X144932400Y-130035040D01*
X147167600Y-130035040D01*
X147402917Y-129990762D01*
X147619041Y-129851690D01*
X147764031Y-129639490D01*
X147815040Y-129387600D01*
X147815040Y-128135000D01*
X147844000Y-128135000D01*
X148278346Y-128048603D01*
X148646566Y-127802566D01*
X150266025Y-126183107D01*
X150272838Y-126219317D01*
X150411910Y-126435441D01*
X150624110Y-126580431D01*
X150876000Y-126631440D01*
X151892000Y-126631440D01*
X152127317Y-126587162D01*
X152343441Y-126448090D01*
X152488431Y-126235890D01*
X152526543Y-126047686D01*
X152535000Y-126092629D01*
X152535000Y-126513868D01*
X151913868Y-127135000D01*
X151901998Y-127135000D01*
X151467652Y-127221397D01*
X151148953Y-127434345D01*
X151099432Y-127467434D01*
X149281831Y-129285035D01*
X149035794Y-129653255D01*
X148949397Y-130087601D01*
X148949397Y-130115470D01*
X148119868Y-130945000D01*
X143375000Y-130945000D01*
X143375000Y-124325000D01*
X143818646Y-124325000D01*
X144232399Y-124407301D01*
X144666744Y-124320904D01*
X145034965Y-124074867D01*
X148641730Y-120468102D01*
X148877500Y-120515000D01*
X151130000Y-120515000D01*
X151564346Y-120428603D01*
X151932566Y-120182566D01*
X152178603Y-119814346D01*
X152265000Y-119380000D01*
X152265000Y-119313344D01*
X161357297Y-119313344D01*
X161357702Y-119339746D01*
X161573376Y-119751718D01*
X161930287Y-120049796D01*
X162374100Y-120188600D01*
X163074100Y-120188600D01*
X163074100Y-119130600D01*
X163328100Y-119130600D01*
X163328100Y-120188600D01*
X164028100Y-120188600D01*
X164471913Y-120049796D01*
X164828824Y-119751718D01*
X165044498Y-119339746D01*
X165044903Y-119313344D01*
X164919461Y-119130600D01*
X163328100Y-119130600D01*
X163074100Y-119130600D01*
X161482739Y-119130600D01*
X161357297Y-119313344D01*
X152265000Y-119313344D01*
X152265000Y-117313344D01*
X161257297Y-117313344D01*
X161257702Y-117339746D01*
X161473376Y-117751718D01*
X161824973Y-118045358D01*
X161573376Y-118255482D01*
X161357702Y-118667454D01*
X161357297Y-118693856D01*
X161482739Y-118876600D01*
X163074100Y-118876600D01*
X163074100Y-117818600D01*
X162974100Y-117818600D01*
X162974100Y-117130600D01*
X163228100Y-117130600D01*
X163228100Y-118188600D01*
X163328100Y-118188600D01*
X163328100Y-118876600D01*
X164919461Y-118876600D01*
X165044903Y-118693856D01*
X165044498Y-118667454D01*
X164828824Y-118255482D01*
X164477227Y-117961842D01*
X164728824Y-117751718D01*
X164944498Y-117339746D01*
X164944903Y-117313344D01*
X164819461Y-117130600D01*
X163228100Y-117130600D01*
X162974100Y-117130600D01*
X161382739Y-117130600D01*
X161257297Y-117313344D01*
X152265000Y-117313344D01*
X152265000Y-116693856D01*
X161257297Y-116693856D01*
X161382739Y-116876600D01*
X162974100Y-116876600D01*
X162974100Y-116856600D01*
X163228100Y-116856600D01*
X163228100Y-116876600D01*
X164819461Y-116876600D01*
X164944903Y-116693856D01*
X164944498Y-116667454D01*
X164728824Y-116255482D01*
X164588872Y-116138600D01*
X165333468Y-116138600D01*
X168107434Y-118912566D01*
X168475654Y-119158603D01*
X168910000Y-119245000D01*
X171588324Y-119245000D01*
X171785069Y-119376461D01*
X171369268Y-119747964D01*
X171115291Y-120275209D01*
X171112642Y-120290974D01*
X171233783Y-120523000D01*
X172593000Y-120523000D01*
X172593000Y-120503000D01*
X172847000Y-120503000D01*
X172847000Y-120523000D01*
X174206217Y-120523000D01*
X174327358Y-120290974D01*
X174324709Y-120275209D01*
X174070732Y-119747964D01*
X173654931Y-119376461D01*
X173964415Y-119169670D01*
X174289271Y-118683489D01*
X174403345Y-118110000D01*
X174289271Y-117536511D01*
X173964415Y-117050330D01*
X173649634Y-116840000D01*
X173964415Y-116629670D01*
X174289271Y-116143489D01*
X174403345Y-115570000D01*
X174289271Y-114996511D01*
X173964415Y-114510330D01*
X173649634Y-114300000D01*
X173964415Y-114089670D01*
X174289271Y-113603489D01*
X174403345Y-113030000D01*
X174289271Y-112456511D01*
X173964415Y-111970330D01*
X173649634Y-111760000D01*
X173964415Y-111549670D01*
X174289271Y-111063489D01*
X174403345Y-110490000D01*
X174289271Y-109916511D01*
X173964415Y-109430330D01*
X173649634Y-109220000D01*
X173964415Y-109009670D01*
X174289271Y-108523489D01*
X174403345Y-107950000D01*
X174289271Y-107376511D01*
X173964415Y-106890330D01*
X173950087Y-106880757D01*
X173971317Y-106876762D01*
X174187441Y-106737690D01*
X174332431Y-106525490D01*
X174383440Y-106273600D01*
X174383440Y-104546400D01*
X174339162Y-104311083D01*
X174200090Y-104094959D01*
X173987890Y-103949969D01*
X173736000Y-103898960D01*
X171704000Y-103898960D01*
X171468683Y-103943238D01*
X171456911Y-103950813D01*
X171043600Y-103868600D01*
X164189395Y-103868600D01*
X163938029Y-103818600D01*
X162464171Y-103818600D01*
X162010691Y-103908803D01*
X161626249Y-104165678D01*
X161369374Y-104550120D01*
X161279171Y-105003600D01*
X161369374Y-105457080D01*
X161626249Y-105841522D01*
X161868817Y-106003600D01*
X161626249Y-106165678D01*
X161369374Y-106550120D01*
X161279171Y-107003600D01*
X161369374Y-107457080D01*
X161626249Y-107841522D01*
X161868817Y-108003600D01*
X161626249Y-108165678D01*
X161369374Y-108550120D01*
X161279171Y-109003600D01*
X161369374Y-109457080D01*
X161626249Y-109841522D01*
X161868817Y-110003600D01*
X161626249Y-110165678D01*
X161369374Y-110550120D01*
X161279171Y-111003600D01*
X161369374Y-111457080D01*
X161626249Y-111841522D01*
X161868817Y-112003600D01*
X161626249Y-112165678D01*
X161369374Y-112550120D01*
X161279171Y-113003600D01*
X161369374Y-113457080D01*
X161626249Y-113841522D01*
X161868817Y-114003600D01*
X161626249Y-114165678D01*
X161369374Y-114550120D01*
X161279171Y-115003600D01*
X161369374Y-115457080D01*
X161626249Y-115841522D01*
X161816683Y-115968765D01*
X161473376Y-116255482D01*
X161257702Y-116667454D01*
X161257297Y-116693856D01*
X152265000Y-116693856D01*
X152265000Y-109220000D01*
X152178603Y-108785654D01*
X151932566Y-108417434D01*
X151716166Y-108201034D01*
X151542509Y-108085000D01*
X151347946Y-107954997D01*
X150913600Y-107868600D01*
X149335426Y-107868600D01*
X149375951Y-107841522D01*
X149632826Y-107457080D01*
X149723029Y-107003600D01*
X149632826Y-106550120D01*
X149375951Y-106165678D01*
X149325229Y-106131787D01*
X149502541Y-106017690D01*
X149647531Y-105805490D01*
X149698540Y-105553600D01*
X149698540Y-104453600D01*
X149654262Y-104218283D01*
X149515190Y-104002159D01*
X149302990Y-103857169D01*
X149051100Y-103806160D01*
X146551100Y-103806160D01*
X146315783Y-103850438D01*
X146287558Y-103868600D01*
X140106400Y-103868600D01*
X139887988Y-103912045D01*
X139884745Y-103911400D01*
X139515255Y-103911400D01*
X138941766Y-104025474D01*
X138455585Y-104350330D01*
X138130729Y-104836511D01*
X138016655Y-105410000D01*
X137870000Y-105410000D01*
X137870000Y-103580000D01*
X174550000Y-103580000D01*
X174550000Y-133910000D01*
X174550000Y-133910000D01*
G37*
X174550000Y-133910000D02*
X137870000Y-133910000D01*
X137870000Y-105410000D01*
X138016655Y-105410000D01*
X138130729Y-105983489D01*
X138455585Y-106469670D01*
X138770366Y-106680000D01*
X138455585Y-106890330D01*
X138130729Y-107376511D01*
X138016655Y-107950000D01*
X138130729Y-108523489D01*
X138455585Y-109009670D01*
X138770366Y-109220000D01*
X138455585Y-109430330D01*
X138130729Y-109916511D01*
X138016655Y-110490000D01*
X138130729Y-111063489D01*
X138455585Y-111549670D01*
X138770366Y-111760000D01*
X138455585Y-111970330D01*
X138130729Y-112456511D01*
X138016655Y-113030000D01*
X138130729Y-113603489D01*
X138455585Y-114089670D01*
X138770366Y-114300000D01*
X138455585Y-114510330D01*
X138130729Y-114996511D01*
X138016655Y-115570000D01*
X138130729Y-116143489D01*
X138455585Y-116629670D01*
X138770366Y-116840000D01*
X138455585Y-117050330D01*
X138130729Y-117536511D01*
X138016655Y-118110000D01*
X138130729Y-118683489D01*
X138455585Y-119169670D01*
X138770366Y-119380000D01*
X138455585Y-119590330D01*
X138130729Y-120076511D01*
X138016655Y-120650000D01*
X138130729Y-121223489D01*
X138455585Y-121709670D01*
X138469913Y-121719243D01*
X138448683Y-121723238D01*
X138232559Y-121862310D01*
X138087569Y-122074510D01*
X138036560Y-122326400D01*
X138036560Y-124053600D01*
X138080838Y-124288917D01*
X138219910Y-124505041D01*
X138432110Y-124650031D01*
X138684000Y-124701040D01*
X140716000Y-124701040D01*
X140951317Y-124656762D01*
X141105000Y-124557870D01*
X141105000Y-132080000D01*
X141191397Y-132514346D01*
X141437434Y-132882566D01*
X141805654Y-133128603D01*
X142240000Y-133215000D01*
X148590000Y-133215000D01*
X149024346Y-133128603D01*
X149392566Y-132882566D01*
X150886964Y-131388169D01*
X151133001Y-131019948D01*
X151193760Y-130714490D01*
X151193760Y-132588000D01*
X151238038Y-132823317D01*
X151377110Y-133039441D01*
X151589310Y-133184431D01*
X151841200Y-133235440D01*
X155498800Y-133235440D01*
X155734117Y-133191162D01*
X155950241Y-133052090D01*
X156095231Y-132839890D01*
X156146240Y-132588000D01*
X156146240Y-130556000D01*
X156101962Y-130320683D01*
X155962890Y-130104559D01*
X155750690Y-129959569D01*
X155498800Y-129908560D01*
X151868570Y-129908560D01*
X152372130Y-129405000D01*
X155279868Y-129405000D01*
X157487433Y-131612566D01*
X157760015Y-131794699D01*
X157855654Y-131858603D01*
X158290000Y-131945000D01*
X158911614Y-131945000D01*
X159038110Y-132031431D01*
X159290000Y-132082440D01*
X160790000Y-132082440D01*
X161025317Y-132038162D01*
X161241441Y-131899090D01*
X161287969Y-131830994D01*
X161430302Y-131973327D01*
X161663691Y-132070000D01*
X162254250Y-132070000D01*
X162413000Y-131911250D01*
X162413000Y-130937000D01*
X162667000Y-130937000D01*
X162667000Y-131911250D01*
X162825750Y-132070000D01*
X163416309Y-132070000D01*
X163649698Y-131973327D01*
X163828327Y-131794699D01*
X163925000Y-131561310D01*
X163925000Y-131095750D01*
X163766250Y-130937000D01*
X162667000Y-130937000D01*
X162413000Y-130937000D01*
X162393000Y-130937000D01*
X162393000Y-130683000D01*
X162413000Y-130683000D01*
X162413000Y-129708750D01*
X162667000Y-129708750D01*
X162667000Y-130683000D01*
X163766250Y-130683000D01*
X163925000Y-130524250D01*
X163925000Y-130058690D01*
X163828327Y-129825301D01*
X163649698Y-129646673D01*
X163416309Y-129550000D01*
X162825750Y-129550000D01*
X162667000Y-129708750D01*
X162413000Y-129708750D01*
X162254250Y-129550000D01*
X161663691Y-129550000D01*
X161430302Y-129646673D01*
X161289064Y-129787910D01*
X161254090Y-129733559D01*
X161041890Y-129588569D01*
X160790000Y-129537560D01*
X159290000Y-129537560D01*
X159054683Y-129581838D01*
X158909905Y-129675000D01*
X158760133Y-129675000D01*
X156552566Y-127467434D01*
X156503045Y-127434345D01*
X156184346Y-127221397D01*
X155750000Y-127135000D01*
X154774964Y-127135000D01*
X154805000Y-126984000D01*
X154805000Y-126084936D01*
X154813000Y-126045431D01*
X154813000Y-126110310D01*
X154909673Y-126343699D01*
X155088302Y-126522327D01*
X155321691Y-126619000D01*
X155670250Y-126619000D01*
X155829000Y-126460250D01*
X155829000Y-125095000D01*
X156083000Y-125095000D01*
X156083000Y-126460250D01*
X156241750Y-126619000D01*
X156590309Y-126619000D01*
X156823698Y-126522327D01*
X157002327Y-126343699D01*
X157099000Y-126110310D01*
X157099000Y-125253750D01*
X156940250Y-125095000D01*
X156083000Y-125095000D01*
X155829000Y-125095000D01*
X155809000Y-125095000D01*
X155809000Y-124841000D01*
X155829000Y-124841000D01*
X155829000Y-123475750D01*
X156083000Y-123475750D01*
X156083000Y-124841000D01*
X156940250Y-124841000D01*
X157099000Y-124682250D01*
X157099000Y-123825690D01*
X157002327Y-123592301D01*
X156823698Y-123413673D01*
X156590309Y-123317000D01*
X156241750Y-123317000D01*
X156083000Y-123475750D01*
X155829000Y-123475750D01*
X155670250Y-123317000D01*
X155321691Y-123317000D01*
X155088302Y-123413673D01*
X154909673Y-123592301D01*
X154813000Y-123825690D01*
X154813000Y-123885887D01*
X154781162Y-123716683D01*
X154642090Y-123500559D01*
X154429890Y-123355569D01*
X154178000Y-123304560D01*
X153162000Y-123304560D01*
X152926683Y-123348838D01*
X152710559Y-123487910D01*
X152565569Y-123700110D01*
X152527457Y-123888314D01*
X152519000Y-123843371D01*
X152519000Y-123406132D01*
X152870132Y-123055000D01*
X159444868Y-123055000D01*
X161182560Y-124792693D01*
X161182560Y-125085000D01*
X161226838Y-125320317D01*
X161365910Y-125536441D01*
X161578110Y-125681431D01*
X161830000Y-125732440D01*
X163330000Y-125732440D01*
X163565317Y-125688162D01*
X163781441Y-125549090D01*
X163827969Y-125480994D01*
X163970302Y-125623327D01*
X164203691Y-125720000D01*
X164794250Y-125720000D01*
X164953000Y-125561250D01*
X164953000Y-124587000D01*
X165207000Y-124587000D01*
X165207000Y-125561250D01*
X165365750Y-125720000D01*
X165956309Y-125720000D01*
X166189698Y-125623327D01*
X166368327Y-125444699D01*
X166465000Y-125211310D01*
X166465000Y-124745750D01*
X166306250Y-124587000D01*
X165207000Y-124587000D01*
X164953000Y-124587000D01*
X164933000Y-124587000D01*
X164933000Y-124333000D01*
X164953000Y-124333000D01*
X164953000Y-123358750D01*
X165207000Y-123358750D01*
X165207000Y-124333000D01*
X166306250Y-124333000D01*
X166465000Y-124174250D01*
X166465000Y-123708690D01*
X166398865Y-123549026D01*
X171112642Y-123549026D01*
X171115291Y-123564791D01*
X171369268Y-124092036D01*
X171805680Y-124481954D01*
X172358087Y-124675184D01*
X172593000Y-124530924D01*
X172593000Y-123317000D01*
X172847000Y-123317000D01*
X172847000Y-124530924D01*
X173081913Y-124675184D01*
X173634320Y-124481954D01*
X174070732Y-124092036D01*
X174324709Y-123564791D01*
X174327358Y-123549026D01*
X174206217Y-123317000D01*
X172847000Y-123317000D01*
X172593000Y-123317000D01*
X171233783Y-123317000D01*
X171112642Y-123549026D01*
X166398865Y-123549026D01*
X166368327Y-123475301D01*
X166189698Y-123296673D01*
X165956309Y-123200000D01*
X165365750Y-123200000D01*
X165207000Y-123358750D01*
X164953000Y-123358750D01*
X164794250Y-123200000D01*
X164203691Y-123200000D01*
X163970302Y-123296673D01*
X163829064Y-123437910D01*
X163794090Y-123383559D01*
X163581890Y-123238569D01*
X163330000Y-123187560D01*
X162787693Y-123187560D01*
X160717566Y-121117434D01*
X160555322Y-121009026D01*
X171112642Y-121009026D01*
X171115291Y-121024791D01*
X171369268Y-121552036D01*
X171781108Y-121920000D01*
X171369268Y-122287964D01*
X171115291Y-122815209D01*
X171112642Y-122830974D01*
X171233783Y-123063000D01*
X172593000Y-123063000D01*
X172593000Y-120777000D01*
X172847000Y-120777000D01*
X172847000Y-123063000D01*
X174206217Y-123063000D01*
X174327358Y-122830974D01*
X174324709Y-122815209D01*
X174070732Y-122287964D01*
X173658892Y-121920000D01*
X174070732Y-121552036D01*
X174324709Y-121024791D01*
X174327358Y-121009026D01*
X174206217Y-120777000D01*
X172847000Y-120777000D01*
X172593000Y-120777000D01*
X171233783Y-120777000D01*
X171112642Y-121009026D01*
X160555322Y-121009026D01*
X160349346Y-120871397D01*
X159915000Y-120785000D01*
X152400000Y-120785000D01*
X151965654Y-120871397D01*
X151759678Y-121009026D01*
X151597434Y-121117434D01*
X150581434Y-122133434D01*
X150335397Y-122501654D01*
X150249000Y-122936000D01*
X150249000Y-123833000D01*
X149876000Y-123833000D01*
X149441654Y-123919397D01*
X149208977Y-124074867D01*
X149073434Y-124165434D01*
X147373868Y-125865000D01*
X147320000Y-125865000D01*
X146885654Y-125951397D01*
X146647824Y-126110310D01*
X146517434Y-126197434D01*
X146209908Y-126504960D01*
X144932400Y-126504960D01*
X144697083Y-126549238D01*
X144480959Y-126688310D01*
X144335969Y-126900510D01*
X144284960Y-127152400D01*
X144284960Y-129387600D01*
X144329238Y-129622917D01*
X144468310Y-129839041D01*
X144680510Y-129984031D01*
X144932400Y-130035040D01*
X147167600Y-130035040D01*
X147402917Y-129990762D01*
X147619041Y-129851690D01*
X147764031Y-129639490D01*
X147815040Y-129387600D01*
X147815040Y-128135000D01*
X147844000Y-128135000D01*
X148278346Y-128048603D01*
X148646566Y-127802566D01*
X150266025Y-126183107D01*
X150272838Y-126219317D01*
X150411910Y-126435441D01*
X150624110Y-126580431D01*
X150876000Y-126631440D01*
X151892000Y-126631440D01*
X152127317Y-126587162D01*
X152343441Y-126448090D01*
X152488431Y-126235890D01*
X152526543Y-126047686D01*
X152535000Y-126092629D01*
X152535000Y-126513868D01*
X151913868Y-127135000D01*
X151901998Y-127135000D01*
X151467652Y-127221397D01*
X151148953Y-127434345D01*
X151099432Y-127467434D01*
X149281831Y-129285035D01*
X149035794Y-129653255D01*
X148949397Y-130087601D01*
X148949397Y-130115470D01*
X148119868Y-130945000D01*
X143375000Y-130945000D01*
X143375000Y-124325000D01*
X143818646Y-124325000D01*
X144232399Y-124407301D01*
X144666744Y-124320904D01*
X145034965Y-124074867D01*
X148641730Y-120468102D01*
X148877500Y-120515000D01*
X151130000Y-120515000D01*
X151564346Y-120428603D01*
X151932566Y-120182566D01*
X152178603Y-119814346D01*
X152265000Y-119380000D01*
X152265000Y-119313344D01*
X161357297Y-119313344D01*
X161357702Y-119339746D01*
X161573376Y-119751718D01*
X161930287Y-120049796D01*
X162374100Y-120188600D01*
X163074100Y-120188600D01*
X163074100Y-119130600D01*
X163328100Y-119130600D01*
X163328100Y-120188600D01*
X164028100Y-120188600D01*
X164471913Y-120049796D01*
X164828824Y-119751718D01*
X165044498Y-119339746D01*
X165044903Y-119313344D01*
X164919461Y-119130600D01*
X163328100Y-119130600D01*
X163074100Y-119130600D01*
X161482739Y-119130600D01*
X161357297Y-119313344D01*
X152265000Y-119313344D01*
X152265000Y-117313344D01*
X161257297Y-117313344D01*
X161257702Y-117339746D01*
X161473376Y-117751718D01*
X161824973Y-118045358D01*
X161573376Y-118255482D01*
X161357702Y-118667454D01*
X161357297Y-118693856D01*
X161482739Y-118876600D01*
X163074100Y-118876600D01*
X163074100Y-117818600D01*
X162974100Y-117818600D01*
X162974100Y-117130600D01*
X163228100Y-117130600D01*
X163228100Y-118188600D01*
X163328100Y-118188600D01*
X163328100Y-118876600D01*
X164919461Y-118876600D01*
X165044903Y-118693856D01*
X165044498Y-118667454D01*
X164828824Y-118255482D01*
X164477227Y-117961842D01*
X164728824Y-117751718D01*
X164944498Y-117339746D01*
X164944903Y-117313344D01*
X164819461Y-117130600D01*
X163228100Y-117130600D01*
X162974100Y-117130600D01*
X161382739Y-117130600D01*
X161257297Y-117313344D01*
X152265000Y-117313344D01*
X152265000Y-116693856D01*
X161257297Y-116693856D01*
X161382739Y-116876600D01*
X162974100Y-116876600D01*
X162974100Y-116856600D01*
X163228100Y-116856600D01*
X163228100Y-116876600D01*
X164819461Y-116876600D01*
X164944903Y-116693856D01*
X164944498Y-116667454D01*
X164728824Y-116255482D01*
X164588872Y-116138600D01*
X165333468Y-116138600D01*
X168107434Y-118912566D01*
X168475654Y-119158603D01*
X168910000Y-119245000D01*
X171588324Y-119245000D01*
X171785069Y-119376461D01*
X171369268Y-119747964D01*
X171115291Y-120275209D01*
X171112642Y-120290974D01*
X171233783Y-120523000D01*
X172593000Y-120523000D01*
X172593000Y-120503000D01*
X172847000Y-120503000D01*
X172847000Y-120523000D01*
X174206217Y-120523000D01*
X174327358Y-120290974D01*
X174324709Y-120275209D01*
X174070732Y-119747964D01*
X173654931Y-119376461D01*
X173964415Y-119169670D01*
X174289271Y-118683489D01*
X174403345Y-118110000D01*
X174289271Y-117536511D01*
X173964415Y-117050330D01*
X173649634Y-116840000D01*
X173964415Y-116629670D01*
X174289271Y-116143489D01*
X174403345Y-115570000D01*
X174289271Y-114996511D01*
X173964415Y-114510330D01*
X173649634Y-114300000D01*
X173964415Y-114089670D01*
X174289271Y-113603489D01*
X174403345Y-113030000D01*
X174289271Y-112456511D01*
X173964415Y-111970330D01*
X173649634Y-111760000D01*
X173964415Y-111549670D01*
X174289271Y-111063489D01*
X174403345Y-110490000D01*
X174289271Y-109916511D01*
X173964415Y-109430330D01*
X173649634Y-109220000D01*
X173964415Y-109009670D01*
X174289271Y-108523489D01*
X174403345Y-107950000D01*
X174289271Y-107376511D01*
X173964415Y-106890330D01*
X173950087Y-106880757D01*
X173971317Y-106876762D01*
X174187441Y-106737690D01*
X174332431Y-106525490D01*
X174383440Y-106273600D01*
X174383440Y-104546400D01*
X174339162Y-104311083D01*
X174200090Y-104094959D01*
X173987890Y-103949969D01*
X173736000Y-103898960D01*
X171704000Y-103898960D01*
X171468683Y-103943238D01*
X171456911Y-103950813D01*
X171043600Y-103868600D01*
X164189395Y-103868600D01*
X163938029Y-103818600D01*
X162464171Y-103818600D01*
X162010691Y-103908803D01*
X161626249Y-104165678D01*
X161369374Y-104550120D01*
X161279171Y-105003600D01*
X161369374Y-105457080D01*
X161626249Y-105841522D01*
X161868817Y-106003600D01*
X161626249Y-106165678D01*
X161369374Y-106550120D01*
X161279171Y-107003600D01*
X161369374Y-107457080D01*
X161626249Y-107841522D01*
X161868817Y-108003600D01*
X161626249Y-108165678D01*
X161369374Y-108550120D01*
X161279171Y-109003600D01*
X161369374Y-109457080D01*
X161626249Y-109841522D01*
X161868817Y-110003600D01*
X161626249Y-110165678D01*
X161369374Y-110550120D01*
X161279171Y-111003600D01*
X161369374Y-111457080D01*
X161626249Y-111841522D01*
X161868817Y-112003600D01*
X161626249Y-112165678D01*
X161369374Y-112550120D01*
X161279171Y-113003600D01*
X161369374Y-113457080D01*
X161626249Y-113841522D01*
X161868817Y-114003600D01*
X161626249Y-114165678D01*
X161369374Y-114550120D01*
X161279171Y-115003600D01*
X161369374Y-115457080D01*
X161626249Y-115841522D01*
X161816683Y-115968765D01*
X161473376Y-116255482D01*
X161257702Y-116667454D01*
X161257297Y-116693856D01*
X152265000Y-116693856D01*
X152265000Y-109220000D01*
X152178603Y-108785654D01*
X151932566Y-108417434D01*
X151716166Y-108201034D01*
X151542509Y-108085000D01*
X151347946Y-107954997D01*
X150913600Y-107868600D01*
X149335426Y-107868600D01*
X149375951Y-107841522D01*
X149632826Y-107457080D01*
X149723029Y-107003600D01*
X149632826Y-106550120D01*
X149375951Y-106165678D01*
X149325229Y-106131787D01*
X149502541Y-106017690D01*
X149647531Y-105805490D01*
X149698540Y-105553600D01*
X149698540Y-104453600D01*
X149654262Y-104218283D01*
X149515190Y-104002159D01*
X149302990Y-103857169D01*
X149051100Y-103806160D01*
X146551100Y-103806160D01*
X146315783Y-103850438D01*
X146287558Y-103868600D01*
X140106400Y-103868600D01*
X139887988Y-103912045D01*
X139884745Y-103911400D01*
X139515255Y-103911400D01*
X138941766Y-104025474D01*
X138455585Y-104350330D01*
X138130729Y-104836511D01*
X138016655Y-105410000D01*
X137870000Y-105410000D01*
X137870000Y-103580000D01*
X174550000Y-103580000D01*
X174550000Y-133910000D01*
M02*
