M48
INCH,TZ
T1C0.026
T2C0.040
%
G90
G05
T1
X58465Y-41340
X58465Y-42127
X58465Y-42915
X58465Y-43702
X58465Y-44490
X58465Y-45277
X58465Y-46064
X58465Y-46852
X63977Y-41340
X63977Y-42127
X63977Y-42915
X63977Y-43702
X63977Y-44490
X63977Y-45277
X63977Y-46064
X63977Y-46852
T2
X55000Y-41500
X55000Y-42500
X55000Y-43500
X55000Y-44500
X55000Y-45500
X55000Y-46500
X55000Y-47500
X55000Y-48500
X57000Y-50500
X58000Y-50500
X68000Y-41500
X68000Y-42500
X68000Y-43500
X68000Y-44500
X68000Y-45500
X68000Y-46500
X68000Y-47500
X68000Y-48500
T0
M30
