G04 #@! TF.FileFunction,Legend,Top*
%FSLAX46Y46*%
G04 Gerber Fmt 4.6, Leading zero omitted, Abs format (unit mm)*
G04 Created by KiCad (PCBNEW 0.201510090346+6256~30~ubuntu14.04.1-product) date Mon 23 Nov 2015 18:10:39 CET*
%MOMM*%
G01*
G04 APERTURE LIST*
%ADD10C,0.100000*%
%ADD11C,0.150000*%
%ADD12C,0.152400*%
G04 APERTURE END LIST*
D10*
D11*
X138430000Y-121920000D02*
X138430000Y-104140000D01*
X138430000Y-104140000D02*
X140970000Y-104140000D01*
X140970000Y-104140000D02*
X140970000Y-121920000D01*
X138150000Y-124740000D02*
X138150000Y-123190000D01*
X138430000Y-121920000D02*
X140970000Y-121920000D01*
X141250000Y-123190000D02*
X141250000Y-124740000D01*
X141250000Y-124740000D02*
X138150000Y-124740000D01*
X173990000Y-106680000D02*
X173990000Y-124460000D01*
X173990000Y-124460000D02*
X171450000Y-124460000D01*
X171450000Y-124460000D02*
X171450000Y-106680000D01*
X174270000Y-103860000D02*
X174270000Y-105410000D01*
X173990000Y-106680000D02*
X171450000Y-106680000D01*
X171170000Y-105410000D02*
X171170000Y-103860000D01*
X171170000Y-103860000D02*
X174270000Y-103860000D01*
D12*
X147485100Y-119862600D02*
X147485100Y-120624600D01*
X147485100Y-120624600D02*
X163487100Y-120624600D01*
X163487100Y-120624600D02*
X163487100Y-119862600D01*
D11*
X164330000Y-123610000D02*
X163330000Y-123610000D01*
X163330000Y-125310000D02*
X164330000Y-125310000D01*
X161790000Y-129960000D02*
X160790000Y-129960000D01*
X160790000Y-131660000D02*
X161790000Y-131660000D01*
X147600000Y-126720000D02*
X147600000Y-128270000D01*
X144500000Y-128270000D02*
X144500000Y-126720000D01*
X144500000Y-126720000D02*
X147600000Y-126720000D01*
X144780000Y-129540000D02*
X147320000Y-129540000D01*
X157226000Y-126746000D02*
X157226000Y-123698000D01*
X157226000Y-123698000D02*
X150114000Y-123698000D01*
X150114000Y-123698000D02*
X150114000Y-126746000D01*
X157226000Y-129794000D02*
X157226000Y-130556000D01*
X157226000Y-130556000D02*
X155702000Y-132842000D01*
X155702000Y-132842000D02*
X151638000Y-132842000D01*
X151638000Y-132842000D02*
X150114000Y-130556000D01*
X150114000Y-130556000D02*
X150114000Y-129794000D01*
X138961905Y-128742381D02*
X138961905Y-127742381D01*
X139342858Y-127742381D01*
X139438096Y-127790000D01*
X139485715Y-127837619D01*
X139533334Y-127932857D01*
X139533334Y-128075714D01*
X139485715Y-128170952D01*
X139438096Y-128218571D01*
X139342858Y-128266190D01*
X138961905Y-128266190D01*
X140485715Y-128742381D02*
X139914286Y-128742381D01*
X140200000Y-128742381D02*
X140200000Y-127742381D01*
X140104762Y-127885238D01*
X140009524Y-127980476D01*
X139914286Y-128028095D01*
X171981905Y-100762381D02*
X171981905Y-99762381D01*
X172362858Y-99762381D01*
X172458096Y-99810000D01*
X172505715Y-99857619D01*
X172553334Y-99952857D01*
X172553334Y-100095714D01*
X172505715Y-100190952D01*
X172458096Y-100238571D01*
X172362858Y-100286190D01*
X171981905Y-100286190D01*
X172934286Y-99857619D02*
X172981905Y-99810000D01*
X173077143Y-99762381D01*
X173315239Y-99762381D01*
X173410477Y-99810000D01*
X173458096Y-99857619D01*
X173505715Y-99952857D01*
X173505715Y-100048095D01*
X173458096Y-100190952D01*
X172886667Y-100762381D01*
X173505715Y-100762381D01*
X149239195Y-121055981D02*
X149239195Y-121865505D01*
X149286814Y-121960743D01*
X149334433Y-122008362D01*
X149429671Y-122055981D01*
X149620148Y-122055981D01*
X149715386Y-122008362D01*
X149763005Y-121960743D01*
X149810624Y-121865505D01*
X149810624Y-121055981D01*
X150810624Y-122055981D02*
X150239195Y-122055981D01*
X150524909Y-122055981D02*
X150524909Y-121055981D01*
X150429671Y-121198838D01*
X150334433Y-121294076D01*
X150239195Y-121341695D01*
X163663334Y-122717143D02*
X163615715Y-122764762D01*
X163472858Y-122812381D01*
X163377620Y-122812381D01*
X163234762Y-122764762D01*
X163139524Y-122669524D01*
X163091905Y-122574286D01*
X163044286Y-122383810D01*
X163044286Y-122240952D01*
X163091905Y-122050476D01*
X163139524Y-121955238D01*
X163234762Y-121860000D01*
X163377620Y-121812381D01*
X163472858Y-121812381D01*
X163615715Y-121860000D01*
X163663334Y-121907619D01*
X164615715Y-122812381D02*
X164044286Y-122812381D01*
X164330000Y-122812381D02*
X164330000Y-121812381D01*
X164234762Y-121955238D01*
X164139524Y-122050476D01*
X164044286Y-122098095D01*
X161123334Y-129067143D02*
X161075715Y-129114762D01*
X160932858Y-129162381D01*
X160837620Y-129162381D01*
X160694762Y-129114762D01*
X160599524Y-129019524D01*
X160551905Y-128924286D01*
X160504286Y-128733810D01*
X160504286Y-128590952D01*
X160551905Y-128400476D01*
X160599524Y-128305238D01*
X160694762Y-128210000D01*
X160837620Y-128162381D01*
X160932858Y-128162381D01*
X161075715Y-128210000D01*
X161123334Y-128257619D01*
X161504286Y-128257619D02*
X161551905Y-128210000D01*
X161647143Y-128162381D01*
X161885239Y-128162381D01*
X161980477Y-128210000D01*
X162028096Y-128257619D01*
X162075715Y-128352857D01*
X162075715Y-128448095D01*
X162028096Y-128590952D01*
X161456667Y-129162381D01*
X162075715Y-129162381D01*
X145311905Y-123622381D02*
X145311905Y-122622381D01*
X145692858Y-122622381D01*
X145788096Y-122670000D01*
X145835715Y-122717619D01*
X145883334Y-122812857D01*
X145883334Y-122955714D01*
X145835715Y-123050952D01*
X145788096Y-123098571D01*
X145692858Y-123146190D01*
X145311905Y-123146190D01*
X146216667Y-122622381D02*
X146835715Y-122622381D01*
X146502381Y-123003333D01*
X146645239Y-123003333D01*
X146740477Y-123050952D01*
X146788096Y-123098571D01*
X146835715Y-123193810D01*
X146835715Y-123431905D01*
X146788096Y-123527143D01*
X146740477Y-123574762D01*
X146645239Y-123622381D01*
X146359524Y-123622381D01*
X146264286Y-123574762D01*
X146216667Y-123527143D01*
X152908095Y-128484381D02*
X152908095Y-129293905D01*
X152955714Y-129389143D01*
X153003333Y-129436762D01*
X153098571Y-129484381D01*
X153289048Y-129484381D01*
X153384286Y-129436762D01*
X153431905Y-129389143D01*
X153479524Y-129293905D01*
X153479524Y-128484381D01*
X153908095Y-128579619D02*
X153955714Y-128532000D01*
X154050952Y-128484381D01*
X154289048Y-128484381D01*
X154384286Y-128532000D01*
X154431905Y-128579619D01*
X154479524Y-128674857D01*
X154479524Y-128770095D01*
X154431905Y-128912952D01*
X153860476Y-129484381D01*
X154479524Y-129484381D01*
M02*
