<?xml version="1.0" standalone="no"?>
 <!DOCTYPE svg PUBLIC "-//W3C//DTD SVG 1.1//EN" 
 "http://www.w3.org/Graphics/SVG/1.1/DTD/svg11.dtd"> 
<svg xmlns="http://www.w3.org/2000/svg" version="1.1" 
    width="5.2324cm" height="2.49682cm" viewBox="0 0 20600 9830 ">
<title>SVG Picture created as 05_arduino_minimal-brd.svg date 2015/04/18 00:41:02 </title>
  <desc>Picture generated by PCBNEW </desc>
<g style="fill:#000000; fill-opacity:1;stroke:#000000; stroke-opacity:1;
stroke-linecap:round; stroke-linejoin:round; "
 transform="translate(0 0) scale(1 1)">
</g>
<g style="fill:#000000; fill-opacity:0.0; 
stroke:#000000; stroke-width:39.3701; stroke-opacity:1; 
stroke-linecap:round; stroke-linejoin:round;">
</g>
<g style="fill:#000000; fill-opacity:1.0; 
stroke:#000000; stroke-width:39.3701; stroke-opacity:1; 
stroke-linecap:round; stroke-linejoin:round;">
<circle cx="10089.9" cy="6529.53" r="275.815" /> 
<circle cx="10089.9" cy="8529.53" r="275.815" /> 
<circle cx="3589.89" cy="5529.53" r="373.815" /> 
<circle cx="3589.89" cy="8529.53" r="373.815" /> 
<circle cx="14089.9" cy="8029.53" r="373.815" /> 
<circle cx="16089.9" cy="8029.53" r="373.815" /> 
<circle cx="11589.9" cy="7029.53" r="275.815" /> 
<circle cx="11589.9" cy="8029.53" r="275.815" /> 
<circle cx="18589.9" cy="7029.53" r="275.815" /> 
<circle cx="18589.9" cy="8029.53" r="275.815" /> 
</g>
<g style="fill:#000000; fill-opacity:1.0; 
stroke:#000000; stroke-width:591; stroke-opacity:1; 
stroke-linecap:round; stroke-linejoin:round;">
</g>
<g style="fill:#000000; fill-opacity:0.0; 
stroke:#000000; stroke-width:591; stroke-opacity:1; 
stroke-linecap:round; stroke-linejoin:round;">
<path d="M5554 5232
L5554 5507
" />
<path d="M6554 5232
L6554 5507
" />
<path d="M7554 5232
L7554 5507
" />
<path d="M8554 5232
L8554 5507
" />
<path d="M9554 5232
L9554 5507
" />
<path d="M10554 5232
L10554 5507
" />
<path d="M11554 5232
L11554 5507
" />
<path d="M12554 5232
L12554 5507
" />
<path d="M13554 5232
L13554 5507
" />
<path d="M14554 5232
L14554 5507
" />
<path d="M15554 5232
L15554 5507
" />
<path d="M16554 5232
L16554 5507
" />
<path d="M17554 5232
L17554 5507
" />
<path d="M18554 5232
L18554 5507
" />
<path d="M18554 2232
L18554 2507
" />
<path d="M17554 2232
L17554 2507
" />
<path d="M16554 2232
L16554 2507
" />
<path d="M15554 2232
L15554 2507
" />
<path d="M14554 2232
L14554 2507
" />
<path d="M13554 2232
L13554 2507
" />
<path d="M12554 2232
L12554 2507
" />
<path d="M11554 2232
L11554 2507
" />
<path d="M10554 2232
L10554 2507
" />
<path d="M9554 2232
L9554 2507
" />
<path d="M8554 2232
L8554 2507
" />
<path d="M7554 2232
L7554 2507
" />
<path d="M6554 2232
L6554 2507
" />
<path d="M5554 2232
L5554 2507
" />
</g>
<g style="fill:#000000; fill-opacity:0.0; 
stroke:#000000; stroke-width:39.3701; stroke-opacity:1; 
stroke-linecap:round; stroke-linejoin:round;">
</g>
<g style="fill:#000000; fill-opacity:1.0; 
stroke:#000000; stroke-width:39.3701; stroke-opacity:1; 
stroke-linecap:round; stroke-linejoin:round;">
<circle cx="5809.89" cy="8801.53" r="373.815" /> 
<circle cx="8369.89" cy="7029.53" r="373.815" /> 
<circle cx="5809.89" cy="7029.53" r="373.815" /> 
<circle cx="8369.89" cy="8801.53" r="373.815" /> 
<polyline style="fill-rule:evenodd;"
points="1709,2849
1709,2209
2470,2209
2470,2849
1709,2849
" /> 
</g>
<g style="fill:#000000; fill-opacity:1.0; 
stroke:#000000; stroke-width:680; stroke-opacity:1; 
stroke-linecap:round; stroke-linejoin:round;">
</g>
<g style="fill:#000000; fill-opacity:0.0; 
stroke:#000000; stroke-width:680; stroke-opacity:1; 
stroke-linecap:round; stroke-linejoin:round;">
<path d="M2029 3529
L2149 3529
" />
<path d="M2029 4529
L2149 4529
" />
<path d="M2029 5529
L2149 5529
" />
<path d="M2029 6529
L2149 6529
" />
</g>
<g style="fill:#000000; fill-opacity:0.0; 
stroke:#000000; stroke-width:118.11; stroke-opacity:1; 
stroke-linecap:round; stroke-linejoin:round;">
<path d="M3589 5529
L2089 5529
" />
<path d="M9601 7041
L8979 6419
" />
<path d="M8979 6419
L4479 6419
" />
<path d="M4479 6419
L3983 5923
" />
<path d="M3983 5923
L3589 5529
" />
<path d="M11554 5369
L11554 5822
" />
<path d="M11554 5822
L10335 7041
" />
<path d="M10335 7041
L9601 7041
" />
<path d="M13554 2369
L13554 2507
" />
<path d="M13554 2507
L11554 4507
" />
<path d="M11554 4507
L11554 5369
" />
</g>
<g style="fill:#000000; fill-opacity:0.0; 
stroke:#000000; stroke-width:236.22; stroke-opacity:1; 
stroke-linecap:round; stroke-linejoin:round;">
<path d="M11554 5232
L11554 5369
" />
<path d="M5809 8801
L6581 8029
" />
<path d="M6581 8029
L9589 8029
" />
<path d="M9589 8029
L9794 8234
" />
<path d="M9794 8234
L10089 8529
" />
<path d="M3589 8529
L5537 8529
" />
<path d="M5537 8529
L5809 8801
" />
<path d="M3703 8415
L3589 8529
" />
<path d="M13554 7494
L12124 7494
" />
<path d="M12124 7494
L11589 8029
" />
<path d="M13554 5369
L13554 7494
" />
<path d="M13554 7494
L14089 8029
" />
<path d="M18589 8029
L16089 8029
" />
<path d="M16089 8029
L16089 6904
" />
<path d="M16089 6904
L15224 6038
" />
<path d="M15224 6038
L15086 6038
" />
<path d="M15086 6038
L14554 5507
" />
<path d="M14554 5507
L14554 5369
" />
<path d="M8369 7029
L6800 7029
" />
<path d="M6800 7029
L6131 7698
" />
<path d="M6131 7698
L3895 7698
" />
<path d="M3895 7698
L2726 6529
" />
<path d="M2726 6529
L2089 6529
" />
<path d="M11589 7029
L11089 7529
" />
<path d="M11089 7529
L8869 7529
" />
<path d="M8869 7529
L8763 7423
" />
<path d="M8763 7423
L8369 7029
" />
<path d="M12554 5369
L12554 6064
" />
<path d="M12554 6064
L11589 7029
" />
<path d="M19125 4782
L19125 6493
" />
<path d="M19125 6493
L18589 7029
" />
<path d="M12554 5369
L12554 5507
" />
<path d="M18106 3763
L19125 4782
" />
<path d="M11554 2369
L11554 2232
" />
<path d="M11554 2232
L12125 1660
" />
<path d="M12125 1660
L18791 1660
" />
<path d="M18791 1660
L19125 1995
" />
<path d="M19125 1995
L19125 2743
" />
<path d="M19125 2743
L18106 3763
" />
<path d="M18106 3763
L14023 3763
" />
<path d="M14023 3763
L12554 5232
" />
<path d="M12554 5232
L12554 5369
" />
<path d="M2089 2529
L2149 2529
" />
<path d="M2149 2529
L4983 5363
" />
<path d="M5318 6078
L9638 6078
" />
<path d="M4983 5363
L4983 5743
" />
<path d="M4983 5743
L5318 6078
" />
<path d="M9638 6078
L10089 6529
" />
<path d="M2089 3529
L1453 3529
" />
<path d="M1453 3529
L1414 3490
" />
<path d="M1414 3490
L1414 1969
" />
<path d="M1414 1969
L1469 1913
" />
<path d="M1469 1913
L3236 1913
" />
<path d="M3236 1913
L6554 5232
" />
<path d="M6554 5232
L6554 5369
" />
<path d="M2089 4529
L1453 4529
" />
<path d="M6885 4700
L7023 4700
" />
<path d="M1453 4529
L1020 4096
" />
<path d="M1306 1520
L3705 1520
" />
<path d="M1020 4096
L1020 1805
" />
<path d="M3705 1520
L6885 4700
" />
<path d="M1020 1805
L1306 1520
" />
<path d="M7023 4700
L7554 5232
" />
<path d="M7554 5232
L7554 5369
" />
</g>
<g style="fill:#FFFFFF; fill-opacity:0.0; 
stroke:#FFFFFF; stroke-width:39.3701; stroke-opacity:1; 
stroke-linecap:round; stroke-linejoin:round;">
</g>
<g style="fill:#FFFFFF; fill-opacity:1.0; 
stroke:#FFFFFF; stroke-width:39.3701; stroke-opacity:1; 
stroke-linecap:round; stroke-linejoin:round;">
<circle cx="10089.9" cy="6529.53" r="137.815" /> 
<circle cx="10089.9" cy="8529.53" r="137.815" /> 
<circle cx="3589.89" cy="5529.53" r="137.815" /> 
<circle cx="3589.89" cy="8529.53" r="137.815" /> 
<circle cx="14089.9" cy="8029.53" r="137.815" /> 
<circle cx="16089.9" cy="8029.53" r="137.815" /> 
<circle cx="11589.9" cy="7029.53" r="137.815" /> 
<circle cx="11589.9" cy="8029.53" r="137.815" /> 
<circle cx="18589.9" cy="7029.53" r="137.815" /> 
<circle cx="18589.9" cy="8029.53" r="137.815" /> 
<circle cx="5554.89" cy="5369.53" r="137.815" /> 
<circle cx="6554.89" cy="5369.53" r="137.815" /> 
<circle cx="7554.89" cy="5369.53" r="137.815" /> 
<circle cx="8554.89" cy="5369.53" r="137.815" /> 
<circle cx="9554.89" cy="5369.53" r="137.815" /> 
<circle cx="10554.9" cy="5369.53" r="137.815" /> 
<circle cx="11554.9" cy="5369.53" r="137.815" /> 
<circle cx="12554.9" cy="5369.53" r="137.815" /> 
<circle cx="13554.9" cy="5369.53" r="137.815" /> 
<circle cx="14554.9" cy="5369.53" r="137.815" /> 
<circle cx="15554.9" cy="5369.53" r="137.815" /> 
<circle cx="16554.9" cy="5369.53" r="137.815" /> 
<circle cx="17554.9" cy="5369.53" r="137.815" /> 
<circle cx="18554.9" cy="5369.53" r="137.815" /> 
<circle cx="18554.9" cy="2369.53" r="137.815" /> 
<circle cx="17554.9" cy="2369.53" r="137.815" /> 
<circle cx="16554.9" cy="2369.53" r="137.815" /> 
<circle cx="15554.9" cy="2369.53" r="137.815" /> 
<circle cx="14554.9" cy="2369.53" r="137.815" /> 
<circle cx="13554.9" cy="2369.53" r="137.815" /> 
<circle cx="12554.9" cy="2369.53" r="137.815" /> 
<circle cx="11554.9" cy="2369.53" r="137.815" /> 
<circle cx="10554.9" cy="2369.53" r="137.815" /> 
<circle cx="9554.89" cy="2369.53" r="137.815" /> 
<circle cx="8554.89" cy="2369.53" r="137.815" /> 
<circle cx="7554.89" cy="2369.53" r="137.815" /> 
<circle cx="6554.89" cy="2369.53" r="137.815" /> 
<circle cx="5554.89" cy="2369.53" r="137.815" /> 
<circle cx="5809.89" cy="8801.53" r="177.315" /> 
<circle cx="8369.89" cy="7029.53" r="177.315" /> 
<circle cx="5809.89" cy="7029.53" r="177.315" /> 
<circle cx="8369.89" cy="8801.53" r="177.315" /> 
<circle cx="2089.89" cy="2529.53" r="180.315" /> 
<circle cx="2089.89" cy="3529.53" r="180.315" /> 
<circle cx="2089.89" cy="4529.53" r="180.315" /> 
<circle cx="2089.89" cy="5529.53" r="180.315" /> 
<circle cx="2089.89" cy="6529.53" r="180.315" /> 
</g>
<g style="fill:#000000; fill-opacity:1.0; 
stroke:#000000; stroke-width:39.3701; stroke-opacity:1; 
stroke-linecap:round; stroke-linejoin:round;">
<circle cx="10089.9" cy="6529.53" r="275.815" /> 
<circle cx="10089.9" cy="8529.53" r="275.815" /> 
<circle cx="3589.89" cy="5529.53" r="373.815" /> 
<circle cx="3589.89" cy="8529.53" r="373.815" /> 
<circle cx="14089.9" cy="8029.53" r="373.815" /> 
<circle cx="16089.9" cy="8029.53" r="373.815" /> 
<circle cx="11589.9" cy="7029.53" r="275.815" /> 
<circle cx="11589.9" cy="8029.53" r="275.815" /> 
<circle cx="18589.9" cy="7029.53" r="275.815" /> 
<circle cx="18589.9" cy="8029.53" r="275.815" /> 
</g>
<g style="fill:#000000; fill-opacity:1.0; 
stroke:#000000; stroke-width:591; stroke-opacity:1; 
stroke-linecap:round; stroke-linejoin:round;">
</g>
<g style="fill:#000000; fill-opacity:0.0; 
stroke:#000000; stroke-width:591; stroke-opacity:1; 
stroke-linecap:round; stroke-linejoin:round;">
<path d="M5554 5232
L5554 5507
" />
<path d="M6554 5232
L6554 5507
" />
<path d="M7554 5232
L7554 5507
" />
<path d="M8554 5232
L8554 5507
" />
<path d="M9554 5232
L9554 5507
" />
<path d="M10554 5232
L10554 5507
" />
<path d="M11554 5232
L11554 5507
" />
<path d="M12554 5232
L12554 5507
" />
<path d="M13554 5232
L13554 5507
" />
<path d="M14554 5232
L14554 5507
" />
<path d="M15554 5232
L15554 5507
" />
<path d="M16554 5232
L16554 5507
" />
<path d="M17554 5232
L17554 5507
" />
<path d="M18554 5232
L18554 5507
" />
<path d="M18554 2232
L18554 2507
" />
<path d="M17554 2232
L17554 2507
" />
<path d="M16554 2232
L16554 2507
" />
<path d="M15554 2232
L15554 2507
" />
<path d="M14554 2232
L14554 2507
" />
<path d="M13554 2232
L13554 2507
" />
<path d="M12554 2232
L12554 2507
" />
<path d="M11554 2232
L11554 2507
" />
<path d="M10554 2232
L10554 2507
" />
<path d="M9554 2232
L9554 2507
" />
<path d="M8554 2232
L8554 2507
" />
<path d="M7554 2232
L7554 2507
" />
<path d="M6554 2232
L6554 2507
" />
<path d="M5554 2232
L5554 2507
" />
</g>
<g style="fill:#000000; fill-opacity:0.0; 
stroke:#000000; stroke-width:39.3701; stroke-opacity:1; 
stroke-linecap:round; stroke-linejoin:round;">
</g>
<g style="fill:#000000; fill-opacity:1.0; 
stroke:#000000; stroke-width:39.3701; stroke-opacity:1; 
stroke-linecap:round; stroke-linejoin:round;">
<circle cx="5809.89" cy="8801.53" r="373.815" /> 
<circle cx="8369.89" cy="7029.53" r="373.815" /> 
<circle cx="5809.89" cy="7029.53" r="373.815" /> 
<circle cx="8369.89" cy="8801.53" r="373.815" /> 
<polyline style="fill-rule:evenodd;"
points="1709,2849
1709,2209
2470,2209
2470,2849
1709,2849
" /> 
</g>
<g style="fill:#000000; fill-opacity:1.0; 
stroke:#000000; stroke-width:680; stroke-opacity:1; 
stroke-linecap:round; stroke-linejoin:round;">
</g>
<g style="fill:#000000; fill-opacity:0.0; 
stroke:#000000; stroke-width:680; stroke-opacity:1; 
stroke-linecap:round; stroke-linejoin:round;">
<path d="M2029 3529
L2149 3529
" />
<path d="M2029 4529
L2149 4529
" />
<path d="M2029 5529
L2149 5529
" />
<path d="M2029 6529
L2149 6529
" />
</g>
<g style="fill:#FFFFFF; fill-opacity:0.0; 
stroke:#FFFFFF; stroke-width:39.3701; stroke-opacity:1; 
stroke-linecap:round; stroke-linejoin:round;">
</g>
<g style="fill:#FFFFFF; fill-opacity:1.0; 
stroke:#FFFFFF; stroke-width:39.3701; stroke-opacity:1; 
stroke-linecap:round; stroke-linejoin:round;">
<circle cx="10089.9" cy="6529.53" r="137.815" /> 
<circle cx="10089.9" cy="8529.53" r="137.815" /> 
<circle cx="3589.89" cy="5529.53" r="137.815" /> 
<circle cx="3589.89" cy="8529.53" r="137.815" /> 
<circle cx="14089.9" cy="8029.53" r="137.815" /> 
<circle cx="16089.9" cy="8029.53" r="137.815" /> 
<circle cx="11589.9" cy="7029.53" r="137.815" /> 
<circle cx="11589.9" cy="8029.53" r="137.815" /> 
<circle cx="18589.9" cy="7029.53" r="137.815" /> 
<circle cx="18589.9" cy="8029.53" r="137.815" /> 
<circle cx="5554.89" cy="5369.53" r="137.815" /> 
<circle cx="6554.89" cy="5369.53" r="137.815" /> 
<circle cx="7554.89" cy="5369.53" r="137.815" /> 
<circle cx="8554.89" cy="5369.53" r="137.815" /> 
<circle cx="9554.89" cy="5369.53" r="137.815" /> 
<circle cx="10554.9" cy="5369.53" r="137.815" /> 
<circle cx="11554.9" cy="5369.53" r="137.815" /> 
<circle cx="12554.9" cy="5369.53" r="137.815" /> 
<circle cx="13554.9" cy="5369.53" r="137.815" /> 
<circle cx="14554.9" cy="5369.53" r="137.815" /> 
<circle cx="15554.9" cy="5369.53" r="137.815" /> 
<circle cx="16554.9" cy="5369.53" r="137.815" /> 
<circle cx="17554.9" cy="5369.53" r="137.815" /> 
<circle cx="18554.9" cy="5369.53" r="137.815" /> 
<circle cx="18554.9" cy="2369.53" r="137.815" /> 
<circle cx="17554.9" cy="2369.53" r="137.815" /> 
<circle cx="16554.9" cy="2369.53" r="137.815" /> 
<circle cx="15554.9" cy="2369.53" r="137.815" /> 
<circle cx="14554.9" cy="2369.53" r="137.815" /> 
<circle cx="13554.9" cy="2369.53" r="137.815" /> 
<circle cx="12554.9" cy="2369.53" r="137.815" /> 
<circle cx="11554.9" cy="2369.53" r="137.815" /> 
<circle cx="10554.9" cy="2369.53" r="137.815" /> 
<circle cx="9554.89" cy="2369.53" r="137.815" /> 
<circle cx="8554.89" cy="2369.53" r="137.815" /> 
<circle cx="7554.89" cy="2369.53" r="137.815" /> 
<circle cx="6554.89" cy="2369.53" r="137.815" /> 
<circle cx="5554.89" cy="2369.53" r="137.815" /> 
<circle cx="5809.89" cy="8801.53" r="177.315" /> 
<circle cx="8369.89" cy="7029.53" r="177.315" /> 
<circle cx="5809.89" cy="7029.53" r="177.315" /> 
<circle cx="8369.89" cy="8801.53" r="177.315" /> 
<circle cx="2089.89" cy="2529.53" r="180.315" /> 
<circle cx="2089.89" cy="3529.53" r="180.315" /> 
<circle cx="2089.89" cy="4529.53" r="180.315" /> 
<circle cx="2089.89" cy="5529.53" r="180.315" /> 
<circle cx="2089.89" cy="6529.53" r="180.315" /> 
</g>
<g style="fill:#000000; fill-opacity:1.0; 
stroke:#000000; stroke-width:39.3701; stroke-opacity:1; 
stroke-linecap:round; stroke-linejoin:round;">
</g>
<g style="fill:#000000; fill-opacity:0.0; 
stroke:#000000; stroke-width:39.3701; stroke-opacity:1; 
stroke-linecap:round; stroke-linejoin:round;">
<path d="M589 9529
L20589 9529
" />
<path d="M589 1029
L589 9529
" />
<path d="M20589 1029
L589 1029
" />
<path d="M20589 9529
L20589 1029
" />
</g> 
</svg>
