<?xml version="1.0" standalone="no"?>
 <!DOCTYPE svg PUBLIC "-//W3C//DTD SVG 1.1//EN" 
 "http://www.w3.org/Graphics/SVG/1.1/DTD/svg11.dtd"> 
<svg xmlns="http://www.w3.org/2000/svg" version="1.1" 
    width="2.78384cm" height="2.7813cm" viewBox="0 0 10960 10950 ">
<title>SVG Picture created as 09_raspibo_gadget-brd.svg date 2015/06/30 23:59:31 </title>
  <desc>Picture generated by PCBNEW </desc>
<g style="fill:#000000; fill-opacity:1;stroke:#000000; stroke-opacity:1;
stroke-linecap:round; stroke-linejoin:round; "
 transform="translate(0 0) scale(1 1)">
</g>
<g style="fill:#C1C100; fill-opacity:1.0; 
stroke:#C1C100; stroke-width:39.3701; stroke-opacity:1; 
stroke-linecap:round; stroke-linejoin:round;">
<polyline style="fill-rule:evenodd;"
points="613,5673
613,5793
617,5911
622,6027
623,6041
638,6212
658,6381
684,6549
715,6716
748,6863
748,5737
748,5636
751,5536
755,5436
761,5340
764,5293
781,5126
804,4960
832,4796
866,4632
906,4470
951,4309
1002,4151
1058,3994
1120,3838
1187,3685
1259,3535
1337,3386
1420,3240
1459,3175
1481,3139
1481,3094
1481,3049
1455,3013
1408,2947
1362,2881
1317,2815
1274,2750
1232,2686
1192,2623
1154,2563
1119,2504
1086,2448
1055,2395
1028,2344
1004,2298
983,2255
966,2216
965,2215
942,2156
923,2100
908,2046
898,1994
892,1945
890,1900
891,1869
897,1828
905,1788
918,1750
934,1711
955,1673
980,1633
1010,1592
1022,1577
1071,1519
1121,1468
1173,1422
1227,1381
1281,1346
1337,1316
1395,1292
1453,1274
1487,1266
1516,1261
1543,1257
1570,1255
1599,1253
1625,1253
1689,1256
1750,1263
1810,1275
1869,1292
1889,1298
1943,1319
2000,1343
2061,1372
2126,1405
2194,1441
2264,1481
2338,1525
2414,1572
2492,1623
2573,1677
2655,1734
2691,1760
2741,1795
2781,1795
2821,1795
2854,1773
2997,1686
3142,1603
3291,1526
3442,1454
3595,1386
3751,1324
3909,1268
4069,1216
4231,1170
4394,1129
4559,1094
4726,1065
4893,1040
5061,1022
5230,1009
5327,1004
5385,1003
5448,1002
5513,1002
5581,1002
5649,1004
5717,1006
5782,1009
5845,1012
5904,1016
5927,1018
6092,1035
6256,1058
6418,1086
6578,1119
6736,1158
6893,1203
7047,1252
7199,1307
7349,1367
7496,1432
7640,1503
7782,1578
7921,1658
7948,1675
8088,1765
8225,1859
8359,1958
8489,2061
8615,2169
8737,2281
8855,2396
8969,2516
9014,2567
9122,2692
9225,2822
9324,2954
9418,3090
9506,3229
9590,3370
9669,3515
9743,3662
9812,3811
9875,3963
9933,4117
9986,4273
10033,4430
10076,4590
10112,4751
10143,4914
10168,5078
10188,5243
10190,5267
10196,5324
10200,5377
10203,5429
10206,5481
10208,5533
10210,5587
10211,5644
10211,5706
10211,5720
10211,5780
10210,5835
10209,5886
10207,5936
10205,5984
10202,6032
10199,6081
10194,6133
10190,6175
10172,6339
10147,6503
10117,6665
10081,6826
10040,6986
9993,7144
9940,7300
9882,7454
9819,7607
9750,7758
9675,7906
9596,8053
9511,8197
9457,8281
9365,8420
9268,8554
9167,8685
9061,8812
8952,8935
8838,9054
8721,9168
8600,9279
8475,9385
8346,9486
8215,9583
8080,9675
7941,9763
7800,9846
7655,9924
7508,9997
7358,10065
7205,10128
7050,10186
6892,10238
6732,10285
6698,10295
6541,10334
6383,10368
6224,10396
6063,10419
5899,10437
5734,10450
5679,10453
5661,10453
5638,10454
5611,10455
5580,10455
5547,10455
5512,10455
5476,10456
5440,10456
5405,10455
5371,10455
5340,10455
5311,10454
5287,10454
5267,10453
5264,10453
5096,10442
4928,10426
4762,10404
4598,10377
4435,10343
4274,10305
4115,10260
3957,10210
3801,10155
3647,10093
3495,10027
3345,9955
3197,9877
3106,9826
2964,9741
2826,9652
2691,9558
2560,9459
2433,9356
2309,9249
2189,9137
2074,9022
1963,8903
1856,8779
1753,8652
1655,8522
1561,8388
1472,8250
1387,8109
1308,7965
1241,7833
1169,7679
1103,7524
1042,7368
987,7209
938,7049
894,6888
856,6725
824,6560
797,6393
776,6225
760,6055
758,6027
753,5934
750,5837
748,5737
748,6863
752,6881
795,7045
843,7207
896,7367
955,7525
1019,7681
1088,7835
1163,7986
1243,8135
1328,8281
1386,8373
1477,8512
1574,8647
1675,8778
1781,8907
1891,9031
2007,9152
2126,9270
2250,9383
2331,9453
2452,9552
2578,9649
2709,9741
2843,9829
2980,9914
3121,9994
3264,10070
3409,10140
3556,10206
3696,10263
3853,10321
4010,10373
4168,10420
4327,10461
4488,10497
4651,10527
4815,10552
4981,10571
5150,10585
5259,10591
5277,10592
5300,10592
5328,10593
5359,10593
5392,10593
5427,10593
5463,10593
5499,10593
5535,10593
5568,10593
5600,10593
5628,10592
5653,10592
5673,10591
5679,10591
5844,10580
6007,10565
6167,10544
6324,10519
6480,10488
6636,10453
6790,10412
6944,10365
7017,10342
7176,10285
7334,10224
7488,10157
7640,10085
7789,10008
7935,9926
8078,9839
8218,9747
8355,9650
8488,9549
8618,9443
8744,9333
8867,9217
8986,9098
9101,8974
9199,8860
9267,8778
9335,8691
9402,8601
9469,8508
9532,8414
9593,8321
9632,8257
9718,8111
9799,7963
9874,7812
9944,7659
10008,7503
10067,7346
10120,7188
10168,7027
10211,6865
10247,6702
10278,6537
10303,6371
10323,6204
10336,6053
10341,5954
10345,5852
10346,5747
10346,5642
10343,5538
10339,5436
10334,5364
10319,5196
10299,5030
10272,4864
10240,4699
10202,4536
10159,4373
10110,4213
10055,4054
9996,3897
9931,3742
9860,3589
9785,3439
9704,3292
9695,3277
9609,3132
9518,2991
9422,2854
9321,2719
9216,2589
9107,2462
8993,2339
8875,2220
8753,2106
8627,1995
8497,1889
8364,1787
8226,1689
8209,1678
8080,1593
7951,1514
7822,1441
7690,1372
7557,1307
7454,1261
7301,1197
7146,1140
6989,1087
6830,1040
6669,998
6506,962
6342,931
6176,906
6009,887
5934,880
5872,875
5806,872
5736,868
5665,866
5592,864
5520,864
5450,864
5384,865
5323,867
5150,876
4979,891
4808,912
4638,939
4470,971
4303,1008
4138,1051
3974,1099
3813,1153
3653,1212
3495,1276
3340,1346
3188,1421
3038,1500
2891,1585
2805,1638
2781,1653
2729,1616
2700,1595
2667,1573
2631,1548
2592,1523
2552,1496
2512,1470
2472,1445
2434,1420
2397,1398
2365,1378
2355,1372
2284,1331
2215,1293
2148,1258
2085,1227
2024,1201
1967,1178
1924,1163
1853,1142
1782,1127
1711,1117
1641,1114
1572,1116
1503,1123
1436,1136
1370,1155
1332,1169
1271,1196
1212,1228
1153,1265
1096,1307
1042,1354
989,1404
957,1440
914,1490
876,1539
844,1587
817,1634
795,1681
777,1728
764,1775
757,1814
752,1864
752,1918
756,1974
766,2033
780,2095
800,2159
824,2227
852,2296
886,2368
911,2418
941,2474
974,2533
1010,2595
1049,2660
1090,2726
1132,2793
1176,2860
1220,2926
1265,2991
1309,3054
1317,3066
1326,3078
1334,3089
1340,3098
1343,3102
1343,3103
1342,3106
1338,3113
1332,3123
1324,3136
1318,3147
1272,3225
1225,3309
1179,3395
1134,3482
1091,3570
1051,3657
1033,3696
967,3853
907,4012
852,4172
803,4335
759,4499
721,4665
688,4832
661,5001
640,5172
637,5204
627,5316
619,5433
615,5552
613,5673
613,5673
" /> 
</g> 
</svg>
