G04 #@! TF.FileFunction,Soldermask,Top*
%FSLAX46Y46*%
G04 Gerber Fmt 4.6, Leading zero omitted, Abs format (unit mm)*
G04 Created by KiCad (PCBNEW no-vcs-found-product) date dom 12 lug 2015 22:33:50 CEST*
%MOMM*%
G01*
G04 APERTURE LIST*
%ADD10C,0.200000*%
G04 APERTURE END LIST*
D10*
G36*
X207964505Y-74401769D02*
X207116769Y-75249505D01*
X206269033Y-74401769D01*
X207116769Y-73554033D01*
X207964505Y-74401769D01*
X207964505Y-74401769D01*
G37*
G36*
X206480967Y-72918231D02*
X205633231Y-73765967D01*
X204785495Y-72918231D01*
X205633231Y-72070495D01*
X206480967Y-72918231D01*
X206480967Y-72918231D01*
G37*
G36*
X202880495Y-74823231D02*
X203728231Y-73975495D01*
X204575967Y-74823231D01*
X203728231Y-75670967D01*
X202880495Y-74823231D01*
X202880495Y-74823231D01*
G37*
G36*
X204364033Y-76306769D02*
X205211769Y-75459033D01*
X206059505Y-76306769D01*
X205211769Y-77154505D01*
X204364033Y-76306769D01*
X204364033Y-76306769D01*
G37*
G36*
X200975495Y-76728231D02*
X201823231Y-75880495D01*
X202670967Y-76728231D01*
X201823231Y-77575967D01*
X200975495Y-76728231D01*
X200975495Y-76728231D01*
G37*
G36*
X202459033Y-78211769D02*
X203306769Y-77364033D01*
X204154505Y-78211769D01*
X203306769Y-79059505D01*
X202459033Y-78211769D01*
X202459033Y-78211769D01*
G37*
G36*
X199070495Y-78633231D02*
X199918231Y-77785495D01*
X200765967Y-78633231D01*
X199918231Y-79480967D01*
X199070495Y-78633231D01*
X199070495Y-78633231D01*
G37*
G36*
X200554033Y-80116769D02*
X201401769Y-79269033D01*
X202249505Y-80116769D01*
X201401769Y-80964505D01*
X200554033Y-80116769D01*
X200554033Y-80116769D01*
G37*
G36*
X197165495Y-80538231D02*
X198013231Y-79690495D01*
X198860967Y-80538231D01*
X198013231Y-81385967D01*
X197165495Y-80538231D01*
X197165495Y-80538231D01*
G37*
G36*
X198649033Y-82021769D02*
X199496769Y-81174033D01*
X200344505Y-82021769D01*
X199496769Y-82869505D01*
X198649033Y-82021769D01*
X198649033Y-82021769D01*
G37*
G36*
X204790691Y-87187596D02*
X203982468Y-87995819D01*
X203623257Y-87636608D01*
X204431480Y-86828385D01*
X204790691Y-87187596D01*
X204790691Y-87187596D01*
G37*
G36*
X203892666Y-86289571D02*
X203084443Y-87097794D01*
X202725232Y-86738583D01*
X203533455Y-85930360D01*
X203892666Y-86289571D01*
X203892666Y-86289571D01*
G37*
G36*
X202994640Y-85391545D02*
X202186417Y-86199768D01*
X201827206Y-85840557D01*
X202635429Y-85032334D01*
X202994640Y-85391545D01*
X202994640Y-85391545D01*
G37*
G36*
X202096615Y-84493520D02*
X201288392Y-85301743D01*
X200929181Y-84942532D01*
X201737404Y-84134309D01*
X202096615Y-84493520D01*
X202096615Y-84493520D01*
G37*
G36*
X206586743Y-80003392D02*
X205778520Y-80811615D01*
X205419309Y-80452404D01*
X206227532Y-79644181D01*
X206586743Y-80003392D01*
X206586743Y-80003392D01*
G37*
G36*
X207484768Y-80901417D02*
X206676545Y-81709640D01*
X206317334Y-81350429D01*
X207125557Y-80542206D01*
X207484768Y-80901417D01*
X207484768Y-80901417D01*
G37*
G36*
X208382794Y-81799443D02*
X207574571Y-82607666D01*
X207215360Y-82248455D01*
X208023583Y-81440232D01*
X208382794Y-81799443D01*
X208382794Y-81799443D01*
G37*
G36*
X209280819Y-82697468D02*
X208472596Y-83505691D01*
X208113385Y-83146480D01*
X208921608Y-82338257D01*
X209280819Y-82697468D01*
X209280819Y-82697468D01*
G37*
G36*
X203516105Y-69741435D02*
X202456435Y-70801105D01*
X201536857Y-69881527D01*
X202596527Y-68821857D01*
X203516105Y-69741435D01*
X203516105Y-69741435D01*
G37*
G36*
X204863143Y-71088473D02*
X203803473Y-72148143D01*
X202883895Y-71228565D01*
X203943565Y-70168895D01*
X204863143Y-71088473D01*
X204863143Y-71088473D01*
G37*
G36*
X201611105Y-71646435D02*
X200551435Y-72706105D01*
X199631857Y-71786527D01*
X200691527Y-70726857D01*
X201611105Y-71646435D01*
X201611105Y-71646435D01*
G37*
G36*
X202958143Y-72993473D02*
X201898473Y-74053143D01*
X200978895Y-73133565D01*
X202038565Y-72073895D01*
X202958143Y-72993473D01*
X202958143Y-72993473D01*
G37*
G36*
X199706105Y-73551435D02*
X198646435Y-74611105D01*
X197726857Y-73691527D01*
X198786527Y-72631857D01*
X199706105Y-73551435D01*
X199706105Y-73551435D01*
G37*
G36*
X201053143Y-74898473D02*
X199993473Y-75958143D01*
X199073895Y-75038565D01*
X200133565Y-73978895D01*
X201053143Y-74898473D01*
X201053143Y-74898473D01*
G37*
G36*
X197801105Y-75456435D02*
X196741435Y-76516105D01*
X195821857Y-75596527D01*
X196881527Y-74536857D01*
X197801105Y-75456435D01*
X197801105Y-75456435D01*
G37*
G36*
X199148143Y-76803473D02*
X198088473Y-77863143D01*
X197168895Y-76943565D01*
X198228565Y-75883895D01*
X199148143Y-76803473D01*
X199148143Y-76803473D01*
G37*
G36*
X195896105Y-77361435D02*
X194836435Y-78421105D01*
X193916857Y-77501527D01*
X194976527Y-76441857D01*
X195896105Y-77361435D01*
X195896105Y-77361435D01*
G37*
G36*
X197243143Y-78708473D02*
X196183473Y-79768143D01*
X195263895Y-78848565D01*
X196323565Y-77788895D01*
X197243143Y-78708473D01*
X197243143Y-78708473D01*
G37*
G36*
X192631590Y-85388240D02*
X193973240Y-84046590D01*
X194803016Y-84876366D01*
X193461366Y-86218016D01*
X192631590Y-85388240D01*
X192631590Y-85388240D01*
G37*
G36*
X193816984Y-86573634D02*
X195158634Y-85231984D01*
X195988410Y-86061760D01*
X194646760Y-87403410D01*
X193816984Y-86573634D01*
X193816984Y-86573634D01*
G37*
G36*
X194859592Y-87616242D02*
X196201242Y-86274592D01*
X197880550Y-87953900D01*
X196538900Y-89295550D01*
X194859592Y-87616242D01*
X194859592Y-87616242D01*
G37*
G36*
X190739450Y-83496100D02*
X192081100Y-82154450D01*
X193760408Y-83833758D01*
X192418758Y-85175408D01*
X190739450Y-83496100D01*
X190739450Y-83496100D01*
G37*
G36*
X196412278Y-86061759D02*
X197897612Y-84576425D01*
X198939322Y-85618135D01*
X197453988Y-87103469D01*
X196412278Y-86061759D01*
X196412278Y-86061759D01*
G37*
G36*
X192931531Y-82581012D02*
X194416865Y-81095678D01*
X195458575Y-82137388D01*
X193973241Y-83622722D01*
X192931531Y-82581012D01*
X192931531Y-82581012D01*
G37*
G36*
X194624309Y-83253633D02*
X195599564Y-82278378D01*
X195917465Y-82596279D01*
X194942210Y-83571534D01*
X194624309Y-83253633D01*
X194624309Y-83253633D01*
G37*
G36*
X195084099Y-83713422D02*
X196059354Y-82738167D01*
X196377255Y-83056068D01*
X195402000Y-84031323D01*
X195084099Y-83713422D01*
X195084099Y-83713422D01*
G37*
G36*
X195543888Y-84173211D02*
X196519143Y-83197956D01*
X196837044Y-83515857D01*
X195861789Y-84491112D01*
X195543888Y-84173211D01*
X195543888Y-84173211D01*
G37*
G36*
X196003677Y-84633000D02*
X196978932Y-83657745D01*
X197296833Y-83975646D01*
X196321578Y-84950901D01*
X196003677Y-84633000D01*
X196003677Y-84633000D01*
G37*
G36*
X196463466Y-85092790D02*
X197438721Y-84117535D01*
X197756622Y-84435436D01*
X196781367Y-85410691D01*
X196463466Y-85092790D01*
X196463466Y-85092790D01*
G37*
M02*
