G04 #@! TF.FileFunction,Legend,Top*
%FSLAX46Y46*%
G04 Gerber Fmt 4.6, Leading zero omitted, Abs format (unit mm)*
G04 Created by KiCad (PCBNEW no-vcs-found-product) date dom 12 lug 2015 22:33:50 CEST*
%MOMM*%
G01*
G04 APERTURE LIST*
%ADD10C,0.200000*%
%ADD11C,0.300000*%
%ADD12C,0.254000*%
%ADD13C,0.127000*%
%ADD14C,0.150000*%
%ADD15C,0.200660*%
%ADD16C,0.149860*%
%ADD17C,0.099060*%
G04 APERTURE END LIST*
D10*
D11*
X190176748Y-79969597D02*
X190833347Y-80444369D01*
X190641418Y-79828177D01*
X191156596Y-80121120D01*
X190823245Y-79323100D01*
X191065682Y-79080663D02*
X191722281Y-79555435D01*
X191530352Y-78939243D01*
X192045530Y-79232186D01*
X191712179Y-78434165D01*
X191954617Y-78191728D02*
X192611216Y-78666500D01*
X192419286Y-78050308D01*
X192934464Y-78343251D01*
X192601114Y-77545231D01*
X193348627Y-77767464D02*
X193424388Y-77772515D01*
X193419337Y-77858378D01*
X193343576Y-77853327D01*
X193348627Y-77767464D01*
X193419337Y-77858378D01*
X193823399Y-77454317D02*
X193328424Y-76817921D01*
X193469845Y-76999749D02*
X193439541Y-76868429D01*
X193444592Y-76782565D01*
X193490049Y-76656296D01*
X193570861Y-76575484D01*
X194712333Y-76565383D02*
X194323424Y-76065358D01*
X194212308Y-76014850D01*
X194096140Y-76050205D01*
X193934516Y-76211829D01*
X193889059Y-76338099D01*
X194676978Y-76519926D02*
X194631521Y-76646195D01*
X194429490Y-76848225D01*
X194313323Y-76883581D01*
X194202206Y-76833074D01*
X194131495Y-76742160D01*
X194101191Y-76610840D01*
X194146648Y-76484570D01*
X194348678Y-76282540D01*
X194394135Y-76156270D01*
X195040632Y-76156271D02*
X195156800Y-76120916D01*
X195318425Y-75959291D01*
X195363881Y-75833022D01*
X195333577Y-75701703D01*
X195298221Y-75656246D01*
X195187104Y-75605738D01*
X195070937Y-75641093D01*
X194949719Y-75762312D01*
X194833551Y-75797667D01*
X194722434Y-75747160D01*
X194687079Y-75701703D01*
X194656774Y-75570383D01*
X194702231Y-75444113D01*
X194823450Y-75322895D01*
X194939617Y-75287540D01*
X195308323Y-74838022D02*
X196050785Y-75792616D01*
X195343678Y-74883479D02*
X195389135Y-74757209D01*
X195550760Y-74595585D01*
X195666927Y-74560230D01*
X195742689Y-74565281D01*
X195853806Y-74615789D01*
X196065938Y-74888530D01*
X196096242Y-75019849D01*
X196091191Y-75105712D01*
X196045734Y-75231981D01*
X195884110Y-75393606D01*
X195767942Y-75428961D01*
X196571014Y-74706702D02*
X196076039Y-74070306D01*
X195828551Y-73752108D02*
X195823501Y-73837971D01*
X195899262Y-73843022D01*
X195904313Y-73757159D01*
X195828551Y-73752108D01*
X195899262Y-73843022D01*
X196975075Y-74302641D02*
X196232613Y-73348047D01*
X196515455Y-73711702D02*
X196560912Y-73585432D01*
X196722537Y-73423808D01*
X196838704Y-73388453D01*
X196914466Y-73393504D01*
X197025583Y-73444012D01*
X197237715Y-73716753D01*
X197268019Y-73848072D01*
X197262968Y-73933935D01*
X197217511Y-74060204D01*
X197055887Y-74221828D01*
X196939719Y-74257184D01*
X197864009Y-73413707D02*
X197747841Y-73449062D01*
X197672080Y-73444011D01*
X197560963Y-73393505D01*
X197348831Y-73120764D01*
X197318527Y-72989443D01*
X197323577Y-72903580D01*
X197369034Y-72777310D01*
X197490252Y-72656093D01*
X197606420Y-72620737D01*
X197682182Y-72625788D01*
X197793298Y-72676296D01*
X198005431Y-72949037D01*
X198035735Y-73080356D01*
X198030684Y-73166219D01*
X197985227Y-73292489D01*
X197864009Y-73413707D01*
X198439796Y-72676295D02*
X198515557Y-72681346D01*
X198510506Y-72767209D01*
X198434745Y-72762159D01*
X198439796Y-72676295D01*
X198510506Y-72767209D01*
X199035786Y-72241930D02*
X198919618Y-72277285D01*
X198843857Y-72272234D01*
X198732740Y-72221727D01*
X198520608Y-71948986D01*
X198490304Y-71817666D01*
X198495354Y-71731803D01*
X198540811Y-71605533D01*
X198662029Y-71484315D01*
X198778197Y-71448960D01*
X198853959Y-71454011D01*
X198965076Y-71504519D01*
X199177208Y-71777260D01*
X199207512Y-71908579D01*
X199202461Y-71994442D01*
X199157004Y-72120712D01*
X199035786Y-72241930D01*
X199682283Y-71595432D02*
X199187309Y-70959036D01*
X199328730Y-71140865D02*
X199298425Y-71009544D01*
X199303476Y-70923681D01*
X199348933Y-70797411D01*
X199429745Y-70716600D01*
X200076243Y-70070102D02*
X200677284Y-70842869D01*
X200707588Y-70974188D01*
X200702537Y-71060051D01*
X200657081Y-71186320D01*
X200535862Y-71307539D01*
X200419695Y-71342894D01*
X200535862Y-70661041D02*
X200490405Y-70787310D01*
X200328781Y-70948935D01*
X200212613Y-70984290D01*
X200136852Y-70979239D01*
X200025735Y-70928733D01*
X199813603Y-70655992D01*
X199783299Y-70524671D01*
X199788349Y-70438808D01*
X199833806Y-70312538D01*
X199995431Y-70150914D01*
X200111598Y-70115559D01*
D12*
X209308700Y-68326000D02*
X209308700Y-71628000D01*
X207657700Y-69977000D02*
X210959700Y-69977000D01*
X210585034Y-69977000D02*
G75*
G03X210585034Y-69977000I-1276334J0D01*
G01*
D13*
X206233112Y-73518112D02*
X206233112Y-73941980D01*
X206233112Y-73941980D02*
X206656980Y-73518112D01*
X206656980Y-73518112D02*
X206233112Y-73518112D01*
X206375000Y-73519908D02*
X206234908Y-73660000D01*
X206233112Y-73801888D02*
X206516888Y-73518112D01*
X206728822Y-72882310D02*
X205597310Y-74013822D01*
X206021178Y-74437690D02*
X207152690Y-73306178D01*
X206516888Y-74933400D02*
X205101600Y-73518112D01*
X205101600Y-73518112D02*
X206233112Y-72386600D01*
X206233112Y-72386600D02*
X207648400Y-73801888D01*
X207648400Y-73801888D02*
X206516888Y-74933400D01*
X204611888Y-75706888D02*
X204611888Y-75283020D01*
X204611888Y-75283020D02*
X204188020Y-75706888D01*
X204188020Y-75706888D02*
X204611888Y-75706888D01*
X204470000Y-75705092D02*
X204610092Y-75565000D01*
X204611888Y-75423112D02*
X204328112Y-75706888D01*
X204116178Y-76342690D02*
X205247690Y-75211178D01*
X204823822Y-74787310D02*
X203692310Y-75918822D01*
X204328112Y-74291600D02*
X205743400Y-75706888D01*
X205743400Y-75706888D02*
X204611888Y-76838400D01*
X204611888Y-76838400D02*
X203196600Y-75423112D01*
X203196600Y-75423112D02*
X204328112Y-74291600D01*
X202706888Y-77611888D02*
X202706888Y-77188020D01*
X202706888Y-77188020D02*
X202283020Y-77611888D01*
X202283020Y-77611888D02*
X202706888Y-77611888D01*
X202565000Y-77610092D02*
X202705092Y-77470000D01*
X202706888Y-77328112D02*
X202423112Y-77611888D01*
X202211178Y-78247690D02*
X203342690Y-77116178D01*
X202918822Y-76692310D02*
X201787310Y-77823822D01*
X202423112Y-76196600D02*
X203838400Y-77611888D01*
X203838400Y-77611888D02*
X202706888Y-78743400D01*
X202706888Y-78743400D02*
X201291600Y-77328112D01*
X201291600Y-77328112D02*
X202423112Y-76196600D01*
X200801888Y-79516888D02*
X200801888Y-79093020D01*
X200801888Y-79093020D02*
X200378020Y-79516888D01*
X200378020Y-79516888D02*
X200801888Y-79516888D01*
X200660000Y-79515092D02*
X200800092Y-79375000D01*
X200801888Y-79233112D02*
X200518112Y-79516888D01*
X200306178Y-80152690D02*
X201437690Y-79021178D01*
X201013822Y-78597310D02*
X199882310Y-79728822D01*
X200518112Y-78101600D02*
X201933400Y-79516888D01*
X201933400Y-79516888D02*
X200801888Y-80648400D01*
X200801888Y-80648400D02*
X199386600Y-79233112D01*
X199386600Y-79233112D02*
X200518112Y-78101600D01*
X198896888Y-81421888D02*
X198896888Y-80998020D01*
X198896888Y-80998020D02*
X198473020Y-81421888D01*
X198473020Y-81421888D02*
X198896888Y-81421888D01*
X198755000Y-81420092D02*
X198895092Y-81280000D01*
X198896888Y-81138112D02*
X198613112Y-81421888D01*
X198401178Y-82057690D02*
X199532690Y-80926178D01*
X199108822Y-80502310D02*
X197977310Y-81633822D01*
X198613112Y-80006600D02*
X200028400Y-81421888D01*
X200028400Y-81421888D02*
X198896888Y-82553400D01*
X198896888Y-82553400D02*
X197481600Y-81138112D01*
X197481600Y-81138112D02*
X198613112Y-80006600D01*
D14*
X205284605Y-87232497D02*
X201692503Y-83640395D01*
X201692503Y-83640395D02*
X204925395Y-80407503D01*
X204925395Y-80407503D02*
X208517497Y-83999605D01*
X208517497Y-83999605D02*
X205284605Y-87232497D01*
X206362236Y-86154867D02*
X206003026Y-85795656D01*
X206003026Y-85795656D02*
X206901051Y-84897631D01*
X206901051Y-84897631D02*
X207260261Y-85256841D01*
D13*
X202301974Y-70485000D02*
X203200000Y-69586974D01*
X203200000Y-71383026D02*
X204080065Y-70502961D01*
X203469408Y-71652433D02*
X202032567Y-70215592D01*
X202032567Y-70215592D02*
X202930592Y-69317567D01*
X202930592Y-69317567D02*
X204367433Y-70754408D01*
X204367433Y-70754408D02*
X203469408Y-71652433D01*
X200396974Y-72390000D02*
X201295000Y-71491974D01*
X201295000Y-73288026D02*
X202175065Y-72407961D01*
X201564408Y-73557433D02*
X200127567Y-72120592D01*
X200127567Y-72120592D02*
X201025592Y-71222567D01*
X201025592Y-71222567D02*
X202462433Y-72659408D01*
X202462433Y-72659408D02*
X201564408Y-73557433D01*
X198491974Y-74295000D02*
X199390000Y-73396974D01*
X199390000Y-75193026D02*
X200270065Y-74312961D01*
X199659408Y-75462433D02*
X198222567Y-74025592D01*
X198222567Y-74025592D02*
X199120592Y-73127567D01*
X199120592Y-73127567D02*
X200557433Y-74564408D01*
X200557433Y-74564408D02*
X199659408Y-75462433D01*
X196586974Y-76200000D02*
X197485000Y-75301974D01*
X197485000Y-77098026D02*
X198365065Y-76217961D01*
X197754408Y-77367433D02*
X196317567Y-75930592D01*
X196317567Y-75930592D02*
X197215592Y-75032567D01*
X197215592Y-75032567D02*
X198652433Y-76469408D01*
X198652433Y-76469408D02*
X197754408Y-77367433D01*
X194681974Y-78105000D02*
X195580000Y-77206974D01*
X195580000Y-79003026D02*
X196460065Y-78122961D01*
X195849408Y-79272433D02*
X194412567Y-77835592D01*
X194412567Y-77835592D02*
X195310592Y-76937567D01*
X195310592Y-76937567D02*
X196747433Y-78374408D01*
X196747433Y-78374408D02*
X195849408Y-79272433D01*
D15*
X189925839Y-84167824D02*
X195867176Y-90109161D01*
X189853997Y-84239666D02*
X195795334Y-90181003D01*
X195795334Y-90181003D02*
X195937222Y-90039115D01*
X195937222Y-90039115D02*
X189995885Y-84097778D01*
X189995885Y-84097778D02*
X189853997Y-84239666D01*
X190067727Y-84453396D02*
X193604152Y-80916971D01*
X193604152Y-80916971D02*
X199118029Y-86430848D01*
X199118029Y-86430848D02*
X195581604Y-89967273D01*
D16*
X201153914Y-78045922D02*
X201719670Y-77480166D01*
X201854374Y-77614870D01*
X201908255Y-77722633D01*
X201908255Y-77830396D01*
X201881315Y-77911219D01*
X201800492Y-78045922D01*
X201719670Y-78126745D01*
X201584966Y-78207567D01*
X201504144Y-78234508D01*
X201396381Y-78234508D01*
X201288618Y-78180626D01*
X201153914Y-78045922D01*
X202339308Y-78476975D02*
X201962137Y-78854145D01*
X202420130Y-78126745D02*
X201881315Y-78396152D01*
X202231545Y-78746382D01*
D17*
X192049628Y-87463064D02*
X192403450Y-87109242D01*
X192538239Y-87244031D01*
X192555087Y-87294577D01*
X192555087Y-87328275D01*
X192538239Y-87378821D01*
X192487693Y-87429367D01*
X192437147Y-87446216D01*
X192403449Y-87446216D01*
X192352904Y-87429367D01*
X192218114Y-87294577D01*
X192588785Y-88002221D02*
X192386601Y-87800037D01*
X192487693Y-87901129D02*
X192841515Y-87547307D01*
X192757272Y-87564156D01*
X192689877Y-87564156D01*
X192639331Y-87547307D01*
X196254226Y-81624144D02*
X195967798Y-81910572D01*
X195950950Y-81961118D01*
X195950949Y-81994815D01*
X195967799Y-82045361D01*
X196035193Y-82112755D01*
X196085738Y-82129604D01*
X196119436Y-82129604D01*
X196169982Y-82112756D01*
X196456410Y-81826328D01*
X196271074Y-82314940D02*
X196304772Y-82382334D01*
X196389015Y-82466577D01*
X196439561Y-82483427D01*
X196473258Y-82483426D01*
X196523805Y-82466578D01*
X196557502Y-82432881D01*
X196574351Y-82382334D01*
X196574351Y-82348638D01*
X196557502Y-82298091D01*
X196506956Y-82213848D01*
X196490107Y-82163302D01*
X196490107Y-82129604D01*
X196506956Y-82079058D01*
X196540653Y-82045361D01*
X196591199Y-82028513D01*
X196624897Y-82028513D01*
X196675443Y-82045361D01*
X196759686Y-82129604D01*
X196793383Y-82196999D01*
X196911323Y-82618216D02*
X196945021Y-82685610D01*
X196945021Y-82719308D01*
X196928173Y-82769854D01*
X196877627Y-82820400D01*
X196827081Y-82837248D01*
X196793383Y-82837248D01*
X196742837Y-82820399D01*
X196608048Y-82685610D01*
X196961870Y-82331788D01*
X197079810Y-82449728D01*
X197096659Y-82500275D01*
X197096659Y-82533972D01*
X197079810Y-82584519D01*
X197046113Y-82618216D01*
X196995567Y-82635064D01*
X196961870Y-82635065D01*
X196911323Y-82618216D01*
X196793383Y-82500275D01*
X196843929Y-82988887D02*
X197113508Y-83258466D01*
X197652666Y-83022584D02*
X197720060Y-83089978D01*
X197736908Y-83140524D01*
X197736909Y-83207919D01*
X197686362Y-83292163D01*
X197568422Y-83410103D01*
X197484179Y-83460650D01*
X197416784Y-83460649D01*
X197366238Y-83443800D01*
X197298844Y-83376406D01*
X197281994Y-83325860D01*
X197281994Y-83258466D01*
X197332540Y-83174222D01*
X197450481Y-83056281D01*
X197534725Y-83005735D01*
X197602119Y-83005735D01*
X197652666Y-83022584D01*
X197905396Y-83275314D02*
X198107580Y-83477498D01*
X197652666Y-83730228D02*
X198006488Y-83376406D01*
X198394007Y-83797623D02*
X198377159Y-83747077D01*
X198326613Y-83696531D01*
X198259218Y-83662834D01*
X198191824Y-83662834D01*
X198141277Y-83679682D01*
X198057033Y-83730228D01*
X198006487Y-83780774D01*
X197955942Y-83865018D01*
X197939093Y-83915564D01*
X197939093Y-83982959D01*
X197972791Y-84050353D01*
X198006488Y-84084050D01*
X198073882Y-84117748D01*
X198107580Y-84117748D01*
X198225521Y-83999808D01*
X198158126Y-83932413D01*
M02*
